<svg xmlns="http://www.w3.org/2000/svg" version="1.1" xmlns:xlink="http://www.w3.org/1999/xlink" xmlns:svgjs="http://svgjs.dev/svgjs" viewBox="0 0 800 800" opacity="0.61"><defs><filter id="bbburst-blur-1" x="-100%" y="-100%" width="400%" height="400%"><feGaussianBlur in="SourceGraphic" stdDeviation="1"></feGaussianBlur></filter><filter id="bbburst-blur-2" x="-100%" y="-100%" width="400%" height="400%"><feGaussianBlur in="SourceGraphic" stdDeviation="2"></feGaussianBlur></filter><filter id="bbburst-blur-3" x="-100%" y="-100%" width="400%" height="400%"><feGaussianBlur in="SourceGraphic" stdDeviation="4"></feGaussianBlur></filter><filter id="bbburst-blur-4" x="-100%" y="-100%" width="400%" height="400%"><feGaussianBlur in="SourceGraphic" stdDeviation="12"></feGaussianBlur></filter><symbol id="bbburst-shape-1" viewBox="0 0 194 167"><path d="m97 0 96.129 166.5H.871L97 0Z"></path></symbol><symbol id="bbburst-shape-4" viewBox="0 0 149 143"><path d="M71.647 2.781c.898-2.764 4.808-2.764 5.706 0l15.445 47.534a3 3 0 0 0 2.853 2.073h49.98c2.906 0 4.115 3.719 1.764 5.427L106.96 87.193a2.999 2.999 0 0 0-1.09 3.354l15.445 47.534c.898 2.764-2.266 5.062-4.617 3.354l-40.435-29.378a3 3 0 0 0-3.526 0l-40.435 29.378c-2.351 1.708-5.515-.59-4.617-3.354L43.13 90.547a3 3 0 0 0-1.09-3.354L1.605 57.815c-2.35-1.708-1.142-5.427 1.764-5.427h49.98a3 3 0 0 0 2.853-2.073L71.647 2.781Z"></path></symbol><symbol id="bbburst-shape-8" viewBox="0 0 87 168"><path d="m12 12 31.2546 18.0749c16.4102 9.4902 20.014 31.6325 7.4603 45.8369L36.3296 92.1884c-12.5684 14.2206-8.9394 36.3916 7.5068 45.8636L75 156" stroke-width="14" stroke-linecap="round" stroke-linejoin="round"></path></symbol><symbol id="bbburst-shape-9" viewBox="0 0 182 172"><path d="M13.5809 69.845 91 13.5967l77.419 56.2483-29.571 91.012H43.1524L13.5809 69.845Z" stroke-width="22"></path></symbol><symbol id="bbburst-shape-10" viewBox="0 0 145 145"><circle cx="72.5" cy="72.5" r="61.5" fill="none" stroke-width="22"></circle></symbol><symbol id="bbburst-shape-12" viewBox="0 0 170 151"><path d="M69.3728 54.2122 85 10.0031l15.627 44.2091c1.413 3.9958 5.19 6.6672 9.428 6.6673h49.312l-39.149 26.1447c-3.803 2.5401-5.399 7.3367-3.875 11.6488l15.179 42.94-40.9683-27.36c-3.3621-2.245-7.7453-2.245-11.1074 0l-40.9682 27.36 15.1785-42.94c1.5243-4.3121-.0712-9.1087-3.8746-11.6488L10.6333 60.8795h49.3112c4.2381-.0001 8.0159-2.6715 9.4283-6.6673Z" stroke-width="12"></path></symbol><symbol id="bbburst-shape-14" viewBox="0 0 185 109"><path d="M168 16.5C168 58.1975 134.197 92 92.5 92 50.8025 92 17 58.1975 17 16.5" stroke-width="33" stroke-linecap="round"></path></symbol></defs><use xlink:href="#bbburst-shape-8" width="8.074178424497797" opacity="0.8195094503051681" transform="matrix(0.8806962356576623,0.473681475781377,-0.473681475781377,0.8806962356576623,586.956266986909,-35.404902113134426)" fill="none" stroke="#fee440"></use><use xlink:href="#bbburst-shape-1" width="12.167149711872987" opacity="0.6462191972196938" transform="matrix(0.9876273088765872,0.15681931883919842,-0.15681931883919842,0.9876273088765872,307.284557464781,-50.89874794493039)" fill="#00a19d" filter="url(#bbburst-blur-1)"></use><use xlink:href="#bbburst-shape-4" width="24.64880070797069" opacity="0.4296067395943052" transform="matrix(0.9998711614600861,-0.01605180614318096,0.01605180614318096,0.9998711614600861,625.9114771019879,77.90645878551095)" fill="#ffa6d5" filter="url(#bbburst-blur-2)"></use><use xlink:href="#bbburst-shape-14" width="4.8270233985426145" opacity="0.8780419499585919" transform="matrix(0.975133731248397,-0.2216172515432388,0.2216172515432388,0.975133731248397,266.6240146744557,45.3607388052456)" fill="none" stroke="#ffa6d5"></use><use xlink:href="#bbburst-shape-10" width="29.7805263160487" opacity="0.18431667262796037" transform="matrix(1.249989990068991,-0.005002472121273263,0.005002472121273263,1.249989990068991,602.0603497106459,191.87891639644408)" fill="none" stroke="#2c2891" filter="url(#bbburst-blur-3)"></use><use xlink:href="#bbburst-shape-10" width="6.339117326288984" opacity="0.864591296110024" transform="matrix(0.789974118496032,-0.6131401896030118,0.6131401896030118,0.789974118496032,163.6959551393082,26.10639263949753)" fill="none" stroke="#ffbd9b"></use><use xlink:href="#bbburst-shape-4" width="32.943582315188465" opacity="0.2808009379689209" transform="matrix(1.0980675558081836,0.5972835531650287,-0.5972835531650287,1.0980675558081836,909.3954372283865,97.4600463104166)" fill="#00a19d" filter="url(#bbburst-blur-3)"></use><use xlink:href="#bbburst-shape-12" width="18.5337623435205" opacity="0.6282370083219024" transform="matrix(0.8262773642302289,0.5632634528892724,-0.5632634528892724,0.8262773642302289,568.6020307221937,224.17804317485377)" fill="none" stroke="#00a19d" filter="url(#bbburst-blur-1)"></use><use xlink:href="#bbburst-shape-10" width="9.528879199464074" opacity="0.7511664090403138" transform="matrix(0.9821407005827583,0.18814793184834325,-0.18814793184834325,0.9821407005827583,359.515906795615,-8.008687778204205)" fill="none" stroke="#ffbd9b" filter="url(#bbburst-blur-1)"></use><use xlink:href="#bbburst-shape-12" width="11.75744931041922" opacity="0.7282022958464953" transform="matrix(0.9385248026650771,-0.3452118114759084,0.3452118114759084,0.9385248026650771,334.78280814789406,-67.28417833646915)" fill="none" stroke="#ffa6d5" filter="url(#bbburst-blur-1)"></use><use xlink:href="#bbburst-shape-10" width="16.9575244689405" opacity="0.6305981982780304" transform="matrix(0.7477305213854367,0.6640023097766024,-0.6640023097766024,0.7477305213854367,773.2854334641211,-25.681344996779103)" fill="none" stroke="#2c2891" filter="url(#bbburst-blur-1)"></use><use xlink:href="#bbburst-shape-14" width="10.767127578159823" opacity="0.7753651388253189" transform="matrix(0.9999855963290776,0.0053672278113685344,-0.0053672278113685344,0.9999855963290776,295.9064169315544,6.788481141965917)" fill="none" stroke="#ff5c58" filter="url(#bbburst-blur-1)"></use><use xlink:href="#bbburst-shape-8" width="16.303711379565705" opacity="0.553892701212487" transform="matrix(0.7793076880895794,0.6266414662982932,-0.6266414662982932,0.7793076880895794,613.4681723298476,281.53455577315833)" fill="none" stroke="#ffbd9b" filter="url(#bbburst-blur-2)"></use><use xlink:href="#bbburst-shape-4" width="23.951927945165195" opacity="0.11339961785190122" transform="matrix(0.9509971449959147,-0.8112363590283779,0.8112363590283779,0.9509971449959147,432.15823372237116,-124.7255535471208)" fill="#fee440" filter="url(#bbburst-blur-3)"></use><use xlink:href="#bbburst-shape-9" width="5.205422023549753" opacity="0.9686376656919746" transform="matrix(0.8942411182996705,-0.44758554751260105,0.44758554751260105,0.8942411182996705,204.54301826297555,44.40806394640606)" fill="none" stroke="#ff5c58"></use><use xlink:href="#bbburst-shape-14" width="14.313074992623587" opacity="0.6765194944099984" transform="matrix(0.8005973380916463,-0.5992027221571762,0.5992027221571762,0.8005973380916463,78.06655703263431,-39.75772272878669)" fill="none" stroke="#ffa6d5" filter="url(#bbburst-blur-1)"></use><use xlink:href="#bbburst-shape-10" width="10.524816251406767" opacity="0.808357543958264" transform="matrix(0.9989473851338753,0.04587070671128903,-0.04587070671128903,0.9989473851338753,498.89212316352763,-8.504877946179136)" fill="none" stroke="#ffa6d5"></use><use xlink:href="#bbburst-shape-14" width="12.587991249123089" opacity="0.7242720545528725" transform="matrix(0.9878429603991262,0.1554550918750823,-0.1554550918750823,0.9878429603991262,502.57498605664966,-111.08780955944269)" fill="none" stroke="#00a19d" filter="url(#bbburst-blur-1)"></use><use xlink:href="#bbburst-shape-14" width="24.43819270543729" opacity="0.2811043583902094" transform="matrix(1.0861765063679893,-0.6186441602522644,0.6186441602522644,1.0861765063679893,-164.82489844340986,-137.1837980615652)" fill="none" stroke="#ffa6d5" filter="url(#bbburst-blur-3)"></use><use xlink:href="#bbburst-shape-9" width="12.448294300129817" opacity="0.76777744486376" transform="matrix(0.9945528254817972,-0.1042337628898317,0.1042337628898317,0.9945528254817972,452.0447833679807,-27.797946311515147)" fill="none" stroke="#2c2891" filter="url(#bbburst-blur-1)"></use><use xlink:href="#bbburst-shape-12" width="20.804686310108284" opacity="0.36178312930880174" transform="matrix(0.9871390960335964,-0.15986370783255988,0.15986370783255988,0.9871390960335964,117.84540321117906,-191.3351656293433)" fill="none" stroke="#00a19d" filter="url(#bbburst-blur-2)"></use><use xlink:href="#bbburst-shape-8" width="3.6257734021331633" opacity="0.936931647076752" transform="matrix(0.9999908720000915,-0.004272694290091152,0.004272694290091152,0.9999908720000915,369.47813749025045,8.756228420679804)" fill="none" stroke="#ffa6d5"></use><use xlink:href="#bbburst-shape-14" width="9.732011520325113" opacity="0.7981662508342819" transform="matrix(0.9629590876287327,0.2696475394904218,-0.2696475394904218,0.9629590876287327,591.9848029092012,32.519364072414874)" fill="none" stroke="#00a19d"></use><use xlink:href="#bbburst-shape-4" width="5.694915260708203" opacity="0.8997731650278447" transform="matrix(0.9723991500219448,0.23332358011268256,-0.23332358011268256,0.9723991500219448,493.3653892647525,-34.6337129774318)" fill="#ffbd9b"></use><use xlink:href="#bbburst-shape-12" width="15.99319745342632" opacity="0.6504787335309552" transform="matrix(0.9992581573279298,-0.038511491967856575,0.038511491967856575,0.9992581573279298,259.01471614618384,-103.88135511267296)" fill="none" stroke="#2c2891" filter="url(#bbburst-blur-1)"></use><use xlink:href="#bbburst-shape-14" width="6.652586169488231" opacity="0.9070889536747189" transform="matrix(0.9995498910945416,0.030000253547094458,-0.030000253547094458,0.9995498910945416,380.2144584423477,-30.538692797317367)" fill="none" stroke="#2c2891"></use><use xlink:href="#bbburst-shape-8" width="44.679813026622384" opacity="-0.10445989176071069" transform="matrix(1.6859036554349704,-0.4692854830388469,0.4692854830388469,1.6859036554349704,-172.88932883320464,91.44076655987635)" fill="none" stroke="#ffa6d5" filter="url(#bbburst-blur-4)"></use><use xlink:href="#bbburst-shape-12" width="15.462840756844814" opacity="0.6498304104895419" transform="matrix(0.9021628444492972,-0.43139564450183454,0.43139564450183454,0.9021628444492972,377.2914372538665,27.196493759182772)" fill="none" stroke="#ff5c58" filter="url(#bbburst-blur-1)"></use><use xlink:href="#bbburst-shape-9" width="30.324746901717134" opacity="0.2771596515858269" transform="matrix(0.9857025622583926,-0.7686939955256835,0.7686939955256835,0.9857025622583926,278.8087357569864,-238.2648204536151)" fill="none" stroke="#2c2891" filter="url(#bbburst-blur-3)"></use><use xlink:href="#bbburst-shape-8" width="29.481011450821555" opacity="0.17391956172699852" transform="matrix(1.0440585168320493,-0.687344028438788,0.687344028438788,1.0440585168320493,142.78768690477926,-377.7498702260539)" fill="none" stroke="#ffa6d5" filter="url(#bbburst-blur-3)"></use><use xlink:href="#bbburst-shape-10" width="20.581888828664454" opacity="0.4269663364761339" transform="matrix(0.7432664172163901,0.6689955403725134,-0.6689955403725134,0.7432664172163901,808.7958741022212,-114.759738775642)" fill="none" stroke="#ffa6d5" filter="url(#bbburst-blur-2)"></use><use xlink:href="#bbburst-shape-1" width="36.93585086967857" opacity="0.25698181381784635" transform="matrix(1.2495224050448752,0.03455082185521635,-0.03455082185521635,1.2495224050448752,111.80671549631218,-284.7518057466385)" fill="#ff5c58" filter="url(#bbburst-blur-3)"></use><use xlink:href="#bbburst-shape-9" width="10.017338804189276" opacity="0.7163439827170992" transform="matrix(0.7149509267821323,-0.6991746364774469,0.6991746364774469,0.7149509267821323,101.56413717875625,244.21769489269656)" fill="none" stroke="#ffbd9b" filter="url(#bbburst-blur-1)"></use><use xlink:href="#bbburst-shape-8" width="16.793548979707104" opacity="0.5316614971807857" transform="matrix(0.7288575462613875,0.6846653761202106,-0.6846653761202106,0.7288575462613875,467.5297065943259,36.90574440875241)" fill="none" stroke="#fee440" filter="url(#bbburst-blur-2)"></use><use xlink:href="#bbburst-shape-14" width="11.667940106575019" opacity="0.7632432934960068" transform="matrix(0.8264519107066743,-0.5630073172608747,0.5630073172608747,0.8264519107066743,124.05563447281085,168.84917299787304)" fill="none" stroke="#2c2891" filter="url(#bbburst-blur-1)"></use><use xlink:href="#bbburst-shape-12" width="17.797829253870145" opacity="0.41228414479224584" transform="matrix(0.7430153510967855,-0.6692743742550737,0.6692743742550737,0.7430153510967855,-113.79285253524236,-3.566102318550236)" fill="none" stroke="#ffbd9b" filter="url(#bbburst-blur-2)"></use><use xlink:href="#bbburst-shape-1" width="16.177229973997996" opacity="0.7242131239898711" transform="matrix(0.9991001446614024,-0.042413452318394135,0.042413452318394135,0.9991001446614024,492.7988851823992,39.63976536744286)" fill="#2c2891" filter="url(#bbburst-blur-1)"></use><use xlink:href="#bbburst-shape-8" width="34.69241215761886" opacity="0.044074151900217795" transform="matrix(1.2898615091788708,1.1826906980013014,-1.1826906980013014,1.2898615091788708,619.7502121732157,226.4514393619645)" fill="none" stroke="#00a19d" filter="url(#bbburst-blur-4)"></use><use xlink:href="#bbburst-shape-12" width="5.144235886759227" opacity="0.9428024093022134" transform="matrix(0.9987220397514223,0.05053995760542885,-0.05053995760542885,0.9987220397514223,395.8433976934165,-13.305406776630718)" fill="none" stroke="#ffa6d5"></use><use xlink:href="#bbburst-shape-10" width="4.989055800309372" opacity="0.8647339678991735" transform="matrix(0.812493927993687,0.5829696535613063,-0.5829696535613063,0.812493927993687,570.3780166358192,76.79525544413616)" fill="none" stroke="#ffbd9b"></use><use xlink:href="#bbburst-shape-1" width="16.102244862921122" opacity="0.5611132955328304" transform="matrix(0.9299780793539284,0.3676149778248682,-0.3676149778248682,0.9299780793539284,501.4020948737399,-168.7112197100607)" fill="#ffbd9b" filter="url(#bbburst-blur-1)"></use><use xlink:href="#bbburst-shape-9" width="5.911142923523551" opacity="0.9087048398769921" transform="matrix(0.9966979832649129,-0.08119809206905881,0.08119809206905881,0.9966979832649129,324.16031680291167,-5.8760050916556565)" fill="none" stroke="#fee440"></use><use xlink:href="#bbburst-shape-14" width="7.0047251420432435" opacity="0.8612433170796719" transform="matrix(0.8911507126790923,-0.4537074027294968,0.4537074027294968,0.8911507126790923,209.2720656438987,-17.00185366930799)" fill="none" stroke="#fee440"></use><use xlink:href="#bbburst-shape-10" width="27.997542996355165" opacity="0.21819421298785002" transform="matrix(1.0144950277507165,0.7302738107511957,-0.7302738107511957,1.0144950277507165,444.26622607974593,-279.04890235978144)" fill="none" stroke="#ffbd9b" filter="url(#bbburst-blur-3)"></use><use xlink:href="#bbburst-shape-8" width="5.683299602345478" opacity="0.9526884240260104" transform="matrix(0.995222550896559,0.0976323419105882,-0.0976323419105882,0.995222550896559,427.0952058876954,20.866924708480667)" fill="none" stroke="#00a19d"></use><use xlink:href="#bbburst-shape-8" width="8.110772351036106" opacity="0.8462906986474409" transform="matrix(0.7865836040323043,-0.6174837923926029,0.6174837923926029,0.7865836040323043,208.3708053086053,51.049785491412365)" fill="none" stroke="#00a19d"></use><use xlink:href="#bbburst-shape-14" width="6.084509676464036" opacity="0.9392496681579519" transform="matrix(0.8257828799600965,0.5639881516173978,-0.5639881516173978,0.8257828799600965,623.1882714675065,95.3152597837394)" fill="none" stroke="#ffa6d5"></use><use xlink:href="#bbburst-shape-4" width="8.551491166955682" opacity="0.8272639580120389" transform="matrix(0.9999370633667225,-0.011219149055751797,0.011219149055751797,0.9999370633667225,313.5102158345134,-0.7551857420893384)" fill="#ffa6d5"></use><use xlink:href="#bbburst-shape-8" width="4.415110817415124" opacity="0.9068571926732647" transform="matrix(0.8045988291507212,-0.5938187637059715,0.5938187637059715,0.8045988291507212,124.13662204376658,58.97271264036402)" fill="none" stroke="#2c2891"></use><use xlink:href="#bbburst-shape-10" width="35.37784087140593" opacity="0.2024662749364352" transform="matrix(1.0424544026292086,0.6897744692571477,-0.6897744692571477,1.0424544026292086,358.6016354179087,169.5124563941639)" fill="none" stroke="#ffa6d5" filter="url(#bbburst-blur-3)"></use><use xlink:href="#bbburst-shape-12" width="14.700770878784475" opacity="0.6671192286093437" transform="matrix(0.9657754507151155,-0.2593796036623072,0.2593796036623072,0.9657754507151155,319.43774590888563,-131.13021352950017)" fill="none" stroke="#ffbd9b" filter="url(#bbburst-blur-1)"></use><use xlink:href="#bbburst-shape-10" width="10.562503435570616" opacity="0.830299283963213" transform="matrix(0.9562462139340694,0.2925631185518057,-0.2925631185518057,0.9562462139340694,537.8956526403911,87.78806420331472)" fill="none" stroke="#2c2891"></use><use xlink:href="#bbburst-shape-14" width="5.470228929049648" opacity="0.9030398950125544" transform="matrix(0.8754209369273293,0.4833613381201241,-0.4833613381201241,0.8754209369273293,620.7306488032557,16.630872262640253)" fill="none" stroke="#00a19d"></use><use xlink:href="#bbburst-shape-12" width="13.994464278714638" opacity="0.6959909197881897" transform="matrix(0.959969134417543,-0.2801058031630788,0.2801058031630788,0.959969134417543,366.4088354809222,125.00173873842533)" fill="none" stroke="#00a19d" filter="url(#bbburst-blur-1)"></use><use xlink:href="#bbburst-shape-8" width="24.39845098236438" opacity="0.16023685629659912" transform="matrix(1.2373883229542841,-0.17711617152700698,0.17711617152700698,1.2373883229542841,396.51644648570925,275.9926819351104)" fill="none" stroke="#ffbd9b" filter="url(#bbburst-blur-3)"></use><use xlink:href="#bbburst-shape-14" width="15.075590291376876" opacity="0.6908315415037973" transform="matrix(0.9172349115431444,-0.3983467296796098,0.3983467296796098,0.9172349115431444,95.84070690687304,17.810734912176997)" fill="none" stroke="#fee440" filter="url(#bbburst-blur-1)"></use><use xlink:href="#bbburst-shape-10" width="6.423716251595878" opacity="0.8081429544042498" transform="matrix(0.9472837602894264,0.32039581378651716,-0.32039581378651716,0.9472837602894264,440.62248437045224,37.79806787250624)" fill="none" stroke="#00a19d"></use><use xlink:href="#bbburst-shape-4" width="10.703783630576435" opacity="0.7160953973985" transform="matrix(0.8832109571866185,0.4689759110076947,-0.4689759110076947,0.8832109571866185,512.2839663480479,150.70861442557674)" fill="#2c2891" filter="url(#bbburst-blur-1)"></use><use xlink:href="#bbburst-shape-14" width="28.91232095161811" opacity="0.051260834638297226" transform="matrix(1.7163880758368475,0.34133850225997764,-0.34133850225997764,1.7163880758368475,875.2781210493272,-67.61586636643926)" fill="none" stroke="#ffa6d5" filter="url(#bbburst-blur-4)"></use><use xlink:href="#bbburst-shape-10" width="18.671906668403924" opacity="0.5321426237041829" transform="matrix(0.9982962564899762,-0.058348815567237595,0.058348815567237595,0.9982962564899762,577.0292278526283,20.092544032158912)" fill="none" stroke="#fee440" filter="url(#bbburst-blur-2)"></use><use xlink:href="#bbburst-shape-12" width="16.94990840580351" opacity="0.5691792669588482" transform="matrix(0.9223868607254145,0.3862673674556455,-0.3862673674556455,0.9223868607254145,381.6119001966553,129.383368791799)" fill="none" stroke="#00a19d" filter="url(#bbburst-blur-1)"></use><use xlink:href="#bbburst-shape-8" width="11.98735548240328" opacity="0.7265688929183338" transform="matrix(0.8225379606902951,0.5687102102331648,-0.5687102102331648,0.8225379606902951,538.2850518826322,-22.081868283380118)" fill="none" stroke="#00a19d" filter="url(#bbburst-blur-1)"></use><use xlink:href="#bbburst-shape-4" width="7.637601424433371" opacity="0.8613882120912142" transform="matrix(0.8933262731937679,0.449408688858742,-0.449408688858742,0.8933262731937679,529.5894029163069,-0.32280594419694353)" fill="#00a19d"></use><use xlink:href="#bbburst-shape-10" width="25.918861814259824" opacity="0.16997994505042735" transform="matrix(1.1743214399144561,-0.428332996344244,0.428332996344244,1.1743214399144561,402.40993469553814,-386.3615312473739)" fill="none" stroke="#ffa6d5" filter="url(#bbburst-blur-3)"></use><use xlink:href="#bbburst-shape-4" width="10.035837317486846" opacity="0.7203623814815645" transform="matrix(0.7206807044888363,-0.6932671362306702,0.6932671362306702,0.7206807044888363,243.78368112421265,98.33982239278487)" fill="#ffa6d5" filter="url(#bbburst-blur-1)"></use><use xlink:href="#bbburst-shape-4" width="8.281793597602528" opacity="0.7785484060782765" transform="matrix(0.7394601500782567,-0.6732003315850654,0.6732003315850654,0.7394601500782567,42.94764819506872,159.4885905153701)" fill="#00a19d"></use><use xlink:href="#bbburst-shape-14" width="8.34259666204513" opacity="0.8297862874914975" transform="matrix(0.999837849323971,-0.018007638912868346,0.018007638912868346,0.999837849323971,346.2409671702772,-63.64874851526025)" fill="none" stroke="#2c2891"></use><use xlink:href="#bbburst-shape-1" width="7.172054837360117" opacity="0.8252353576546403" transform="matrix(0.9977809994619822,-0.06658135709527016,0.06658135709527016,0.9977809994619822,394.62109512178915,-73.4855177531719)" fill="#ffbd9b"></use><use xlink:href="#bbburst-shape-10" width="35.230572136204025" opacity="0.30164985425132484" transform="matrix(1.177637022915921,-0.4191312947725645,0.4191312947725645,1.177637022915921,342.90872601095225,221.83950274058935)" fill="none" stroke="#ffbd9b" filter="url(#bbburst-blur-3)"></use><use xlink:href="#bbburst-shape-10" width="7.7567539570551896" opacity="0.8294660794221624" transform="matrix(0.8214781641304694,-0.5702399721668358,0.5702399721668358,0.8214781641304694,215.17929635017896,134.69749840708937)" fill="none" stroke="#00a19d"></use><use xlink:href="#bbburst-shape-8" width="20.275253569856236" opacity="0.2794094211253183" transform="matrix(0.9326176462511795,0.8323006223119802,-0.8323006223119802,0.9326176462511795,693.2813959430916,-304.34245907546864)" fill="none" stroke="#ffbd9b" filter="url(#bbburst-blur-3)"></use><use xlink:href="#bbburst-shape-1" width="33.74479873781388" opacity="0.25461119970245805" transform="matrix(1.1705875043973548,-0.43843459551998465,0.43843459551998465,1.1705875043973548,-113.50896504105813,44.70775006229252)" fill="#ffa6d5" filter="url(#bbburst-blur-3)"></use><use xlink:href="#bbburst-shape-10" width="8.056185748167907" opacity="0.8738761245525364" transform="matrix(0.8209712832581215,0.5709694843557869,-0.5709694843557869,0.8209712832581215,573.2294733048933,46.23235619283321)" fill="none" stroke="#2c2891"></use><use xlink:href="#bbburst-shape-12" width="28.395750596662435" opacity="0.41743695929351" transform="matrix(0.8462178404662085,0.5328370918739671,-0.5328370918739671,0.8462178404662085,339.00243947840283,55.96028464281659)" fill="none" stroke="#2c2891" filter="url(#bbburst-blur-2)"></use><use xlink:href="#bbburst-shape-8" width="24.361382085985113" opacity="0.3374167092399202" transform="matrix(0.9066097105412316,0.4219701799325922,-0.4219701799325922,0.9066097105412316,751.7683560211981,258.613618554959)" fill="none" stroke="#ffbd9b" filter="url(#bbburst-blur-2)"></use><use xlink:href="#bbburst-shape-8" width="14.789667997825418" opacity="0.5960243819840279" transform="matrix(0.9106299342955954,0.41322284879323845,-0.41322284879323845,0.9106299342955954,385.1885461992897,87.38476055272167)" fill="none" stroke="#00a19d" filter="url(#bbburst-blur-1)"></use><use xlink:href="#bbburst-shape-12" width="12.714579201052059" opacity="0.7709243594313495" transform="matrix(0.9317221500973519,0.3631719083546629,-0.3631719083546629,0.9317221500973519,527.1857413622672,-77.38246902032239)" fill="none" stroke="#fee440" filter="url(#bbburst-blur-1)"></use><use xlink:href="#bbburst-shape-8" width="7.500087327510286" opacity="0.875576154375875" transform="matrix(0.7080100422095958,0.7062023648575289,-0.7062023648575289,0.7080100422095958,723.3393289645516,149.38320749571704)" fill="none" stroke="#00a19d"></use><use xlink:href="#bbburst-shape-8" width="19.96937870818071" opacity="0.5517004815303803" transform="matrix(0.983625804240024,0.1802228543586133,-0.1802228543586133,0.983625804240024,478.7003908274434,-196.3141869069881)" fill="none" stroke="#ffbd9b" filter="url(#bbburst-blur-2)"></use><use xlink:href="#bbburst-shape-10" width="5.063140737076754" opacity="0.8990557391433569" transform="matrix(0.9172299258578975,0.398358209543516,-0.398358209543516,0.9172299258578975,575.5077575854552,-9.393497100872025)" fill="none" stroke="#fee440"></use><use xlink:href="#bbburst-shape-14" width="36.32942261606702" opacity="-0.09303092011150849" transform="matrix(1.7250612930983582,-0.2943867100495886,0.2943867100495886,1.7250612930983582,606.4406882228807,55.316964555853474)" fill="none" stroke="#ffa6d5" filter="url(#bbburst-blur-4)"></use><use xlink:href="#bbburst-shape-10" width="41.19138369296327" opacity="0.11914705120594071" transform="matrix(1.1680140710603468,0.4452450222125286,-0.4452450222125286,1.1680140710603468,193.8883193008606,-241.93390646380658)" fill="none" stroke="#ffbd9b" filter="url(#bbburst-blur-3)"></use><use xlink:href="#bbburst-shape-4" width="8.776319606841964" opacity="0.7728452102020638" transform="matrix(0.9343036237562822,0.3564782442672757,-0.3564782442672757,0.9343036237562822,570.1745977156359,121.90634158918039)" fill="#ffbd9b" filter="url(#bbburst-blur-1)"></use><use xlink:href="#bbburst-shape-12" width="5.569527785937651" opacity="0.9254024878448216" transform="matrix(0.9705205137287818,-0.24101853130334508,0.24101853130334508,0.9705205137287818,330.68104217107344,-3.0133556693891137)" fill="none" stroke="#00a19d"></use><use xlink:href="#bbburst-shape-8" width="29.4146860607407" opacity="0.16657360854319925" transform="matrix(1.2070451110426281,-0.32487243636247337,0.32487243636247337,1.2070451110426281,-120.93593886746024,-41.26519001014486)" fill="none" stroke="#ffbd9b" filter="url(#bbburst-blur-3)"></use><use xlink:href="#bbburst-shape-1" width="30.624303055660754" opacity="0.009107220907320523" transform="matrix(1.6499103149662542,-0.5833489115169036,0.5833489115169036,1.6499103149662542,399.60034113647515,-614.5202022056224)" fill="#00a19d" filter="url(#bbburst-blur-4)"></use><use xlink:href="#bbburst-shape-10" width="11.523186391299248" opacity="0.7559210768436135" transform="matrix(0.8392847863500598,-0.5436920519938971,0.5436920519938971,0.8392847863500598,269.095704284057,6.52205101736962)" fill="none" stroke="#ff5c58" filter="url(#bbburst-blur-1)"></use><use xlink:href="#bbburst-shape-4" width="8.216190115842538" opacity="0.7982918751819494" transform="matrix(0.9292655433360871,0.3694124388380645,-0.3694124388380645,0.9292655433360871,479.4269989123899,-37.06369153799346)" fill="#2c2891"></use><use xlink:href="#bbburst-shape-14" width="20.298251966753355" opacity="0.5027844990647578" transform="matrix(0.8765094325809275,0.48138468463034895,-0.48138468463034895,0.8765094325809275,795.61990718074,-27.08441474024295)" fill="none" stroke="#00a19d" filter="url(#bbburst-blur-2)"></use><use xlink:href="#bbburst-shape-14" width="10.813063364479635" opacity="0.7767015307965295" transform="matrix(0.968677709741166,0.24832135359370433,-0.24832135359370433,0.968677709741166,428.7591389257636,87.55015626836138)" fill="none" stroke="#ffbd9b" filter="url(#bbburst-blur-1)"></use><use xlink:href="#bbburst-shape-12" width="23.350057135029694" opacity="0.18148522521517907" transform="matrix(1.2039770506491887,0.33606437108101883,-0.33606437108101883,1.2039770506491887,503.88751667251813,282.3967402087321)" fill="none" stroke="#ff5c58" filter="url(#bbburst-blur-3)"></use><use xlink:href="#bbburst-shape-8" width="8.438189830142036" opacity="0.8037361368842777" transform="matrix(0.9335019631429504,0.35857228672648084,-0.35857228672648084,0.9335019631429504,512.1974268964261,-58.90943416431156)" fill="none" stroke="#ffa6d5"></use><use xlink:href="#bbburst-shape-12" width="22.726594279845074" opacity="0.008234910224600211" transform="matrix(1.4448467516000154,-0.9873792910482191,0.9873792910482191,1.4448467516000154,-378.88342928247494,-420.04167602139233)" fill="none" stroke="#2c2891" filter="url(#bbburst-blur-4)"></use><use xlink:href="#bbburst-shape-12" width="6.800466379680467" opacity="0.7969923915363772" transform="matrix(0.9210014777387059,-0.3895590815307995,0.3895590815307995,0.9210014777387059,151.15632201502967,16.59138997489788)" fill="none" stroke="#ffbd9b"></use><use xlink:href="#bbburst-shape-4" width="8.084726379730553" opacity="0.8408323523224639" transform="matrix(0.9979590107240967,-0.06385775532057428,0.06385775532057428,0.9979590107240967,373.027443004306,72.65992518030288)" fill="#2c2891"></use><use xlink:href="#bbburst-shape-8" width="16.885217691691576" opacity="0.6004528893850267" transform="matrix(0.967286277986087,-0.25368732017943346,0.25368732017943346,0.967286277986087,388.3081679903387,166.00049817804705)" fill="none" stroke="#ffbd9b" filter="url(#bbburst-blur-1)"></use><use xlink:href="#bbburst-shape-12" width="7.10877532982896" opacity="0.8620779822011071" transform="matrix(0.9869381377543437,-0.16109969660427087,0.16109969660427087,0.9869381377543437,361.58308369522274,-48.803396952682476)" fill="none" stroke="#ff5c58"></use><use xlink:href="#bbburst-shape-8" width="17.456330527519782" opacity="0.4886779868778507" transform="matrix(0.9544015673710412,-0.2985257915150715,0.2985257915150715,0.9544015673710412,60.935474603761705,111.87143132288583)" fill="none" stroke="#ffa6d5" filter="url(#bbburst-blur-2)"></use><use xlink:href="#bbburst-shape-8" width="5.858762933277205" opacity="0.9143876219120147" transform="matrix(0.8934275803483502,-0.4492072558106025,0.4492072558106025,0.8934275803483502,187.4814615448548,67.84183550038881)" fill="none" stroke="#00a19d"></use><use xlink:href="#bbburst-shape-9" width="27.279550783693765" opacity="0.3651565834316276" transform="matrix(0.7226500014686763,-0.6912141313495567,0.6912141313495567,0.7226500014686763,-40.265043376512125,-120.51315639326546)" fill="none" stroke="#00a19d" filter="url(#bbburst-blur-2)"></use><use xlink:href="#bbburst-shape-1" width="23.44492870868782" opacity="0.48823406184658" transform="matrix(0.9823766627976911,0.18691199102912426,-0.18691199102912426,0.9823766627976911,550.7703151966597,-208.12530790795302)" fill="#ffa6d5" filter="url(#bbburst-blur-2)"></use><use xlink:href="#bbburst-shape-12" width="22.21633537918585" opacity="0.4527675284729108" transform="matrix(0.8980584762040229,0.4398760885955366,-0.4398760885955366,0.8980584762040229,612.2634598062729,-206.0141546249974)" fill="none" stroke="#2c2891" filter="url(#bbburst-blur-2)"></use><use xlink:href="#bbburst-shape-8" width="13.430956690217553" opacity="0.6364701059841176" transform="matrix(0.7210951892055141,-0.6928360037589443,0.6928360037589443,0.7210951892055141,112.56766847620833,-47.28280085639773)" fill="none" stroke="#2c2891" filter="url(#bbburst-blur-1)"></use><use xlink:href="#bbburst-shape-4" width="11.482690582815245" opacity="0.7585943969629453" transform="matrix(0.784905563735189,0.6196154097644321,-0.6196154097644321,0.784905563735189,553.2588576230654,21.76271223931593)" fill="#2c2891" filter="url(#bbburst-blur-1)"></use><use xlink:href="#bbburst-shape-10" width="4.784337055766151" opacity="0.9249121707853638" transform="matrix(0.9321045333883382,0.36218936875191166,-0.36218936875191166,0.9321045333883382,576.4196036157915,25.254985953929065)" fill="none" stroke="#00a19d"></use><use xlink:href="#bbburst-shape-12" width="16.97534709014114" opacity="0.7068491087593629" transform="matrix(0.9231381386661915,0.3844684342568571,-0.3844684342568571,0.9231381386661915,654.5999831471354,102.28980207503201)" fill="none" stroke="#fee440" filter="url(#bbburst-blur-1)"></use><use xlink:href="#bbburst-shape-10" width="30.035720676388763" opacity="0.1716836485891987" transform="matrix(1.24518407829672,-0.10962030448939424,0.10962030448939424,1.24518407829672,707.0863973800847,-144.46056057746978)" fill="none" stroke="#fee440" filter="url(#bbburst-blur-3)"></use><use xlink:href="#bbburst-shape-4" width="5.474811857807184" opacity="0.8831541806427227" transform="matrix(0.8532933974147718,0.5214310864614387,-0.5214310864614387,0.8532933974147718,553.906333055735,52.1083685415108)" fill="#2c2891"></use><use xlink:href="#bbburst-shape-4" width="21.22420771383028" opacity="0.22099134767904982" transform="matrix(1.121321773328672,0.5523925059765403,-0.5523925059765403,1.121321773328672,708.6632724907379,-390.47119922128496)" fill="#ff5c58" filter="url(#bbburst-blur-3)"></use><use xlink:href="#bbburst-shape-8" width="24.448282739891027" opacity="0.5085598073797335" transform="matrix(0.8208827663539382,-0.5710967377801293,0.5710967377801293,0.8208827663539382,318.7302149810425,-76.91465676269317)" fill="none" stroke="#ff5c58" filter="url(#bbburst-blur-2)"></use><use xlink:href="#bbburst-shape-12" width="4.703830805451144" opacity="0.9693184534044929" transform="matrix(0.9885902648974638,-0.15062963901557452,0.15062963901557452,0.9885902648974638,328.6493886162225,-5.751887258078)" fill="none" stroke="#ffbd9b"></use><use xlink:href="#bbburst-shape-10" width="21.3758506105874" opacity="0.5788165966182524" transform="matrix(0.8108460311000476,0.585259526918871,-0.585259526918871,0.8108460311000476,783.7138221846457,-34.858678288212275)" fill="none" stroke="#2c2891" filter="url(#bbburst-blur-1)"></use><use xlink:href="#bbburst-shape-4" width="25.67761117262892" opacity="0.10278141426947829" transform="matrix(1.7435473771209042,-0.15014174547678594,0.15014174547678594,1.7435473771209042,15.691918212327437,-563.568899014018)" fill="#ffa6d5" filter="url(#bbburst-blur-4)"></use><use xlink:href="#bbburst-shape-10" width="8.76965759329212" opacity="0.7954397219009356" transform="matrix(0.8012898095510653,-0.5982763919039573,0.5982763919039573,0.8012898095510653,161.26964514247115,174.06846830561204)" fill="none" stroke="#fee440"></use><use xlink:href="#bbburst-shape-10" width="8.311278319310697" opacity="0.8424474193285444" transform="matrix(0.9241214370364572,0.3820989002989582,-0.3820989002989582,0.9241214370364572,480.5856094472755,10.157253209842736)" fill="none" stroke="#ffa6d5"></use><use xlink:href="#bbburst-shape-4" width="7.162415558048288" opacity="0.8796096504741419" transform="matrix(0.9869517873238828,-0.16101605354185403,0.16101605354185403,0.9869517873238828,383.4812187981599,22.857363677291403)" fill="#2c2891"></use><use xlink:href="#bbburst-shape-8" width="5.901291629519823" opacity="0.8757070238142194" transform="matrix(0.9931147888168584,0.11714527832246044,-0.11714527832246044,0.9931147888168584,454.877483010026,57.25797941326698)" fill="none" stroke="#00a19d"></use><use xlink:href="#bbburst-shape-1" width="5.216675496064723" opacity="0.8966215090117112" transform="matrix(0.71904884807072,-0.6949595341371831,0.6949595341371831,0.71904884807072,105.50269149580419,70.04220640808074)" fill="#2c2891"></use><use xlink:href="#bbburst-shape-12" width="6.590423271396274" opacity="0.9548012062560974" transform="matrix(0.9237207298074813,0.3830665912396094,-0.3830665912396094,0.9237207298074813,569.7125980674579,23.541165387764522)" fill="none" stroke="#00a19d"></use><use xlink:href="#bbburst-shape-12" width="19.85484930487222" opacity="0.5692641516606397" transform="matrix(0.7656456083956524,0.6432626231520461,-0.6432626231520461,0.7656456083956524,835.4988367948754,142.64044408952861)" fill="none" stroke="#ffbd9b" filter="url(#bbburst-blur-1)"></use><use xlink:href="#bbburst-shape-14" width="28.53443296929619" opacity="0.4002749150609797" transform="matrix(0.9517310212247202,0.30693332050878946,-0.30693332050878946,0.9517310212247202,248.10823347939157,83.32610340213637)" fill="none" stroke="#ff5c58" filter="url(#bbburst-blur-2)"></use><use xlink:href="#bbburst-shape-4" width="5.846776550019529" opacity="0.8519842966514394" transform="matrix(0.7672396284760414,0.641360547972781,-0.641360547972781,0.7672396284760414,596.9585038079424,125.12572872461539)" fill="#2c2891"></use><use xlink:href="#bbburst-shape-14" width="13.951253982375905" opacity="0.5995643767684152" transform="matrix(0.8960444657859608,0.4439643176363977,-0.4439643176363977,0.8960444657859608,587.0746586713824,218.0087634659626)" fill="none" stroke="#00a19d" filter="url(#bbburst-blur-1)"></use><use xlink:href="#bbburst-shape-8" width="21.505917167736765" opacity="0.37953177301094676" transform="matrix(0.8042244137667085,0.5943257459521623,-0.5943257459521623,0.8042244137667085,888.3314712554998,-31.755900428958626)" fill="none" stroke="#00a19d" filter="url(#bbburst-blur-2)"></use><use xlink:href="#bbburst-shape-12" width="16.959778552605087" opacity="0.5737831489745385" transform="matrix(0.8828934042049297,0.46957346263543326,-0.46957346263543326,0.8828934042049297,412.9427491182202,-50.75485892661192)" fill="none" stroke="#ff5c58" filter="url(#bbburst-blur-1)"></use><use xlink:href="#bbburst-shape-14" width="9.821734138691593" opacity="0.7136784371743151" transform="matrix(0.8052247725486329,-0.5929697004687527,0.5929697004687527,0.8052247725486329,30.400629351654402,90.71704548400464)" fill="none" stroke="#ffa6d5" filter="url(#bbburst-blur-1)"></use><use xlink:href="#bbburst-shape-14" width="23.985606896020144" opacity="0.15581690959294914" transform="matrix(0.8866304074849622,0.881127981920362,-0.881127981920362,0.8866304074849622,684.0147473183962,-340.65394429109534)" fill="none" stroke="#00a19d" filter="url(#bbburst-blur-3)"></use><use xlink:href="#bbburst-shape-1" width="22.30998863413396" opacity="0.3523905216951647" transform="matrix(0.7611337412098573,0.6485949645132052,-0.6485949645132052,0.7611337412098573,870.3097221259452,-103.50033431918476)" fill="#ffbd9b" filter="url(#bbburst-blur-2)"></use><use xlink:href="#bbburst-shape-14" width="7.341607921028828" opacity="0.9059870967415659" transform="matrix(0.8563938439146219,-0.5163231392307904,0.5163231392307904,0.8563938439146219,188.34362518334606,101.60533378677928)" fill="none" stroke="#ffa6d5"></use><use xlink:href="#bbburst-shape-14" width="10.239118664308469" opacity="0.720760156528037" transform="matrix(0.7280371089490955,0.6855377217870967,-0.6855377217870967,0.7280371089490955,677.9449766173578,-20.150318721960502)" fill="none" stroke="#ffa6d5" filter="url(#bbburst-blur-1)"></use><use xlink:href="#bbburst-shape-9" width="8.891085954772949" opacity="0.8109346731666777" transform="matrix(0.7420198948309054,-0.6703778603706511,0.6703778603706511,0.7420198948309054,87.10684213457881,180.45328384581512)" fill="none" stroke="#ffbd9b"></use><use xlink:href="#bbburst-shape-14" width="20.200144630365763" opacity="0.4325671674252741" transform="matrix(0.9834516885997787,-0.1811705720867598,0.1811705720867598,0.9834516885997787,281.4975742790106,261.2551649517399)" fill="none" stroke="#ffbd9b" filter="url(#bbburst-blur-2)"></use><use xlink:href="#bbburst-shape-14" width="38.18515557470823" opacity="0.11729255577365483" transform="matrix(1.2179744263491088,0.2811375050745797,-0.2811375050745797,1.2179744263491088,657.6746747173462,267.21930173012316)" fill="none" stroke="#00a19d" filter="url(#bbburst-blur-3)"></use><use xlink:href="#bbburst-shape-4" width="7.794710208151134" opacity="0.8412374338621897" transform="matrix(0.9823227540752237,-0.18719510363806904,0.18719510363806904,0.9823227540752237,275.133835710068,62.33529141309941)" fill="#ffbd9b"></use><use xlink:href="#bbburst-shape-1" width="11.879524421347478" opacity="0.6588601239303928" transform="matrix(0.7924204465881275,0.6099752747686357,-0.6099752747686357,0.7924204465881275,501.77310576778,147.683102463097)" fill="#ff5c58" filter="url(#bbburst-blur-1)"></use><use xlink:href="#bbburst-shape-12" width="26.521424596709707" opacity="0.15735849173483196" transform="matrix(1.2497343895953217,0.025767333249849936,-0.025767333249849936,1.2497343895953217,21.86649973355647,-174.43927228490372)" fill="none" stroke="#ff5c58" filter="url(#bbburst-blur-3)"></use><use xlink:href="#bbburst-shape-4" width="16.686520675587534" opacity="0.3899156901988633" transform="matrix(0.7716939286870933,0.6359940883589088,-0.6359940883589088,0.7716939286870933,671.3271219049102,359.5686398513835)" fill="#ffa6d5" filter="url(#bbburst-blur-2)"></use><use xlink:href="#bbburst-shape-9" width="15.929132080774083" opacity="0.5617135222100249" transform="matrix(0.9413640665744568,-0.3373924927475443,0.3373924927475443,0.9413640665744568,364.0857543030054,-139.91340646267835)" fill="none" stroke="#00a19d" filter="url(#bbburst-blur-1)"></use><use xlink:href="#bbburst-shape-10" width="5.273996637972293" opacity="0.93522764600074" transform="matrix(0.9907967003716904,-0.13535840769073332,0.13535840769073332,0.9907967003716904,361.5063392236654,-18.67877785350015)" fill="none" stroke="#00a19d"></use><use xlink:href="#bbburst-shape-14" width="14.803805827970795" opacity="0.6413618268709297" transform="matrix(0.7221665005414677,0.6917192678360856,-0.6917192678360856,0.7221665005414677,544.6614519126792,206.0342539562888)" fill="none" stroke="#ff5c58" filter="url(#bbburst-blur-1)"></use><use xlink:href="#bbburst-shape-8" width="5.5293491355746305" opacity="0.875240085921645" transform="matrix(0.9987632745397036,-0.04971842144244531,0.04971842144244531,0.9987632745397036,419.5957557905368,-36.345309437044534)" fill="none" stroke="#ffbd9b"></use><use xlink:href="#bbburst-shape-12" width="10.76767092202502" opacity="0.7568212491614404" transform="matrix(0.8111833555035253,-0.584791897818396,0.584791897818396,0.8111833555035253,57.05697632031885,110.65781239456675)" fill="none" stroke="#2c2891" filter="url(#bbburst-blur-1)"></use><use xlink:href="#bbburst-shape-10" width="19.162656709618833" opacity="0.4434932231382246" transform="matrix(0.9758355716128895,-0.2185061490552274,0.2185061490552274,0.9758355716128895,553.2695073307858,-2.4997953607281147)" fill="none" stroke="#00a19d" filter="url(#bbburst-blur-2)"></use><use xlink:href="#bbburst-shape-8" width="27.31681180161654" opacity="0.11531834334380175" transform="matrix(1.1387585218249827,0.5154891162488112,-0.5154891162488112,1.1387585218249827,221.7738127071972,87.20638062417623)" fill="none" stroke="#00a19d" filter="url(#bbburst-blur-3)"></use><use xlink:href="#bbburst-shape-12" width="7.378997207387037" opacity="0.8951342958048008" transform="matrix(0.9473468552619878,0.3202092063405146,-0.3202092063405146,0.9473468552619878,507.7719448346507,63.95703580562446)" fill="none" stroke="#2c2891"></use><use xlink:href="#bbburst-shape-9" width="7.2196928042912365" opacity="0.9133594548387942" transform="matrix(0.7597495993446792,0.65021576903025,-0.65021576903025,0.7597495993446792,670.3136359865525,130.49486437756144)" fill="none" stroke="#ffa6d5"></use><use xlink:href="#bbburst-shape-12" width="12.386090056600052" opacity="0.6836817866163223" transform="matrix(0.7380673485006225,0.6747270478328705,-0.6747270478328705,0.7380673485006225,780.6459691952792,17.121402242013517)" fill="none" stroke="#00a19d" filter="url(#bbburst-blur-1)"></use><use xlink:href="#bbburst-shape-8" width="23.06564318604021" opacity="0.22576259318092928" transform="matrix(1.1402833358636701,0.5121073265943581,-0.5121073265943581,1.1402833358636701,449.3815324091585,255.99789008624816)" fill="none" stroke="#ffbd9b" filter="url(#bbburst-blur-3)"></use><use xlink:href="#bbburst-shape-12" width="27.760780607816276" opacity="0.43976928627934997" transform="matrix(0.8432370341554835,-0.5375419092765363,0.5375419092765363,0.8432370341554835,253.11784732441296,309.242737156686)" fill="none" stroke="#00a19d" filter="url(#bbburst-blur-2)"></use><use xlink:href="#bbburst-shape-4" width="21.555570030788274" opacity="0.08407432538703674" transform="matrix(1.3316190905185579,1.1354693292936315,-1.1354693292936315,1.3316190905185579,657.7506442644409,-514.6355611457789)" fill="#ffbd9b" filter="url(#bbburst-blur-4)"></use><use xlink:href="#bbburst-shape-8" width="8.456858554674454" opacity="0.7510020885340819" transform="matrix(0.9552500487366491,-0.2957995003184242,0.2957995003184242,0.9552500487366491,389.49448998760056,25.767920224593865)" fill="none" stroke="#ffbd9b" filter="url(#bbburst-blur-1)"></use><use xlink:href="#bbburst-shape-10" width="32.50815956859725" opacity="-0.112567759698736" transform="matrix(1.742872561385076,0.1577822384523212,-0.1577822384523212,1.742872561385076,79.29895365222309,-652.2561238773887)" fill="none" stroke="#2c2891" filter="url(#bbburst-blur-4)"></use><use xlink:href="#bbburst-shape-12" width="40.26787597102053" opacity="0.015194426488418844" transform="matrix(1.383253583732309,1.0719652620732276,-1.0719652620732276,1.383253583732309,437.89588671642093,79.058551490774)" fill="none" stroke="#ff5c58" filter="url(#bbburst-blur-4)"></use><use xlink:href="#bbburst-shape-10" width="26.497261619093113" opacity="0.3498657270388853" transform="matrix(0.904017144526541,0.4274962016229841,-0.4274962016229841,0.904017144526541,468.6603883794819,-245.5267240838138)" fill="none" stroke="#ffbd9b" filter="url(#bbburst-blur-2)"></use><use xlink:href="#bbburst-shape-9" width="6.6029337115902695" opacity="0.8495069048961645" transform="matrix(0.8523984331268957,-0.5228928295576573,0.5228928295576573,0.8523984331268957,122.5606046703248,78.14250402054677)" fill="none" stroke="#2c2891"></use><use xlink:href="#bbburst-shape-14" width="12.55486206442015" opacity="0.6546116565605227" transform="matrix(0.9161313926074309,0.40087812546853846,-0.40087812546853846,0.9161313926074309,544.5408064725331,186.14583294108985)" fill="none" stroke="#00a19d" filter="url(#bbburst-blur-1)"></use><use xlink:href="#bbburst-shape-10" width="24.005419633422576" opacity="0.48087373710042514" transform="matrix(0.9992075085288946,-0.03980395582701645,0.03980395582701645,0.9992075085288946,290.8095080622077,219.80709000357797)" fill="none" stroke="#ffa6d5" filter="url(#bbburst-blur-2)"></use><use xlink:href="#bbburst-shape-10" width="5.221333091368117" opacity="0.9243132747103465" transform="matrix(0.7121657283117577,0.702011378410766,-0.702011378410766,0.7121657283117577,662.8051566645468,143.29286120849292)" fill="none" stroke="#ff5c58"></use><use xlink:href="#bbburst-shape-8" width="7.664903555208937" opacity="0.8923179336367049" transform="matrix(0.9525564473242508,0.30436197965744954,-0.30436197965744954,0.9525564473242508,562.5770347145897,-1.407444526732661)" fill="none" stroke="#00a19d"></use><use xlink:href="#bbburst-shape-1" width="21.412308516676394" opacity="0.48422515923608545" transform="matrix(0.9916672245016291,-0.12882591295712012,0.12882591295712012,0.9916672245016291,193.39543675656137,-176.9217033926975)" fill="#ffa6d5" filter="url(#bbburst-blur-2)"></use><use xlink:href="#bbburst-shape-10" width="16.690844239390735" opacity="0.5519633273213141" transform="matrix(0.9566380628894666,-0.2912792760068745,0.2912792760068745,0.9566380628894666,123.27908063289922,-112.42332661556509)" fill="none" stroke="#2c2891" filter="url(#bbburst-blur-2)"></use><use xlink:href="#bbburst-shape-4" width="13.529463186899687" opacity="0.6723102300401427" transform="matrix(0.9994917494086631,0.0318785643342057,-0.0318785643342057,0.9994917494086631,306.15446330770646,108.5240707138912)" fill="#ffa6d5" filter="url(#bbburst-blur-1)"></use><use xlink:href="#bbburst-shape-12" width="28.905934896804236" opacity="0.12351491991149299" transform="matrix(1.249886692753874,0.01683018944583333,-0.01683018944583333,1.249886692753874,667.5114158281257,-379.2119942781892)" fill="none" stroke="#2c2891" filter="url(#bbburst-blur-3)"></use><use xlink:href="#bbburst-shape-4" width="20.195443983370648" opacity="0.3678132652000541" transform="matrix(0.8345856361279886,0.5508782224492456,-0.5508782224492456,0.8345856361279886,492.1438212594036,318.6616734931096)" fill="#ffbd9b" filter="url(#bbburst-blur-2)"></use><use xlink:href="#bbburst-shape-12" width="29.47553829354697" opacity="0.30086703926684166" transform="matrix(1.236563782665083,0.18278405674735781,-0.18278405674735781,1.236563782665083,401.0847976332173,212.58775557157503)" fill="none" stroke="#ff5c58" filter="url(#bbburst-blur-3)"></use><use xlink:href="#bbburst-shape-12" width="24.120286524472743" opacity="0.46504434312502807" transform="matrix(0.8774068356734438,0.47974706326721217,-0.47974706326721217,0.8774068356734438,393.0001837227044,193.1456675771613)" fill="none" stroke="#ffbd9b" filter="url(#bbburst-blur-2)"></use><use xlink:href="#bbburst-shape-12" width="12.772724676724945" opacity="0.7312539644872811" transform="matrix(0.7876750562729631,0.6160909070302729,-0.6160909070302729,0.7876750562729631,596.821658711217,-31.43463202509787)" fill="none" stroke="#2c2891" filter="url(#bbburst-blur-1)"></use><use xlink:href="#bbburst-shape-14" width="6.212631726655052" opacity="0.8400344885034203" transform="matrix(0.9998351649589983,-0.018156070924423538,0.018156070924423538,0.9998351649589983,435.6689714884259,-55.2078431129666)" fill="none" stroke="#00a19d"></use><use xlink:href="#bbburst-shape-12" width="14.67545103777456" opacity="0.6202114035359622" transform="matrix(0.9999336705053214,-0.011517577425622899,0.011517577425622899,0.9999336705053214,547.1616073154061,-62.314992020286354)" fill="none" stroke="#ffbd9b" filter="url(#bbburst-blur-1)"></use><use xlink:href="#bbburst-shape-4" width="6.134355409992331" opacity="0.9677380080595351" transform="matrix(0.8260677656575338,0.5635707999369465,-0.5635707999369465,0.8260677656575338,630.8782899504614,55.72538116943974)" fill="#ff5c58"></use><use xlink:href="#bbburst-shape-12" width="9.880153570611817" opacity="0.8105272271993991" transform="matrix(0.9958819479278819,-0.09065950469403361,0.09065950469403361,0.9958819479278819,436.6610943337786,-32.70343228386747)" fill="none" stroke="#ffa6d5"></use><use xlink:href="#bbburst-shape-9" width="30.786111657556773" opacity="0.35813291595381425" transform="matrix(0.7704028419779252,-0.6375574178631568,0.6375574178631568,0.7704028419779252,-119.47351185280158,241.8243823935763)" fill="none" stroke="#ffbd9b" filter="url(#bbburst-blur-2)"></use><use xlink:href="#bbburst-shape-1" width="18.371972234297147" opacity="0.39274264458683017" transform="matrix(0.9674209245865897,0.2531733688049118,-0.2531733688049118,0.9674209245865897,488.53182671609125,-262.5098675788027)" fill="#ffbd9b" filter="url(#bbburst-blur-2)"></use><use xlink:href="#bbburst-shape-8" width="37.74209635287206" opacity="0.02650324428300055" transform="matrix(1.6379433469985072,0.6161506244607138,-0.6161506244607138,1.6379433469985072,975.6214462369869,-516.3190162309753)" fill="none" stroke="#ff5c58" filter="url(#bbburst-blur-4)"></use><use xlink:href="#bbburst-shape-9" width="15.801671154337832" opacity="0.637303522812303" transform="matrix(0.9946291343800466,0.10350306779221184,-0.10350306779221184,0.9946291343800466,346.3602549442043,139.19528282059798)" fill="none" stroke="#ffa6d5" filter="url(#bbburst-blur-1)"></use><use xlink:href="#bbburst-shape-4" width="11.911498880502776" opacity="0.7698174033835199" transform="matrix(0.8891649146547533,-0.45758688196560576,0.45758688196560576,0.8891649146547533,156.9950952640432,-40.9050803399183)" fill="#00a19d" filter="url(#bbburst-blur-1)"></use><use xlink:href="#bbburst-shape-10" width="8.352567203400145" opacity="0.7933336377386047" transform="matrix(0.7429356879124108,-0.6693628041847807,0.6693628041847807,0.7429356879124108,184.66411361676705,31.006168721675863)" fill="none" stroke="#00a19d"></use><use xlink:href="#bbburst-shape-10" width="15.367262734624026" opacity="0.6178241146125802" transform="matrix(0.997359336127018,-0.07262475225619648,0.07262475225619648,0.997359336127018,492.9455148474113,114.59849131737428)" fill="none" stroke="#2c2891" filter="url(#bbburst-blur-1)"></use><use xlink:href="#bbburst-shape-12" width="23.28425835235106" opacity="0.5194245003735289" transform="matrix(0.9872296456532922,0.15930356789248376,-0.15930356789248376,0.9872296456532922,238.49196612456691,36.105586515751725)" fill="none" stroke="#ffbd9b" filter="url(#bbburst-blur-2)"></use><use xlink:href="#bbburst-shape-8" width="6.612178114201817" opacity="0.9098857254332517" transform="matrix(0.9579265091226374,-0.28701359396397524,0.28701359396397524,0.9579265091226374,242.25764665815439,25.701095353036408)" fill="none" stroke="#ffbd9b"></use><use xlink:href="#bbburst-shape-1" width="19.962682640491806" opacity="0.28382012224831155" transform="matrix(1.2274960663095014,-0.23612159408808883,0.23612159408808883,1.2274960663095014,343.0845734913893,229.80327796589677)" fill="#fee440" filter="url(#bbburst-blur-3)"></use><use xlink:href="#bbburst-shape-8" width="4.315069247930478" opacity="0.9551786475956976" transform="matrix(0.9816382931355482,-0.1907518321011036,0.1907518321011036,0.9816382931355482,319.30949953187076,-12.285031646869072)" fill="none" stroke="#00a19d"></use><use xlink:href="#bbburst-shape-10" width="8.423815874766795" opacity="0.7663335437963077" transform="matrix(0.8784188748158117,0.47789149434502737,-0.47789149434502737,0.8784188748158117,566.1468056912682,149.58752624030154)" fill="none" stroke="#ffa6d5" filter="url(#bbburst-blur-1)"></use><use xlink:href="#bbburst-shape-12" width="18.93364016535351" opacity="0.10237558325654617" transform="matrix(1.456522266177669,-0.9700736508784618,0.9700736508784618,1.456522266177669,146.0525890926907,-549.3538663058548)" fill="none" stroke="#fee440" filter="url(#bbburst-blur-4)"></use><use xlink:href="#bbburst-shape-9" width="9.230161353294912" opacity="0.771873923962717" transform="matrix(0.8163698163188619,0.5775294996824906,-0.5775294996824906,0.8163698163188619,681.6921645830671,157.78612530051117)" fill="none" stroke="#ffa6d5" filter="url(#bbburst-blur-1)"></use><use xlink:href="#bbburst-shape-8" width="11.619267306590006" opacity="0.7307190820251148" transform="matrix(0.7154743651695122,-0.6986389860187331,0.6986389860187331,0.7154743651695122,25.009973972384444,197.4544113593136)" fill="none" stroke="#fee440" filter="url(#bbburst-blur-1)"></use><use xlink:href="#bbburst-shape-4" width="15.772159671151245" opacity="0.615893581214719" transform="matrix(0.8762937475074568,-0.48177719755021353,0.48177719755021353,0.8762937475074568,29.449467164098166,27.656963654741958)" fill="#00a19d" filter="url(#bbburst-blur-1)"></use><use xlink:href="#bbburst-shape-10" width="9.78054919680219" opacity="0.778747036419849" transform="matrix(0.9640270348058241,0.2658042064443122,-0.2658042064443122,0.9640270348058241,589.6056436241563,59.66457728278937)" fill="none" stroke="#ffa6d5"></use><use xlink:href="#bbburst-shape-12" width="13.211384561283245" opacity="0.6630684659561293" transform="matrix(0.9945988833349682,-0.10379335850060177,0.10379335850060177,0.9945988833349682,426.80213755677266,-129.0093281492072)" fill="none" stroke="#00a19d" filter="url(#bbburst-blur-1)"></use><use xlink:href="#bbburst-shape-10" width="25.435368046967227" opacity="0.19233409431377013" transform="matrix(1.2490901593119847,0.04768410542267387,-0.04768410542267387,1.2490901593119847,288.774584152557,-445.21379728428866)" fill="none" stroke="#ffbd9b" filter="url(#bbburst-blur-3)"></use><use xlink:href="#bbburst-shape-1" width="20.525478644287297" opacity="0.5701518001439656" transform="matrix(0.8936917961680733,0.44868137186859347,-0.44868137186859347,0.8936917961680733,634.488249227489,220.4093886698389)" fill="#ffa6d5" filter="url(#bbburst-blur-1)"></use><use xlink:href="#bbburst-shape-10" width="9.050449665304813" opacity="0.8008355684692672" transform="matrix(0.999643581552935,0.026696626379012087,-0.026696626379012087,0.999643581552935,474.30524739957565,-58.184834457395425)" fill="none" stroke="#2c2891"></use><use xlink:href="#bbburst-shape-10" width="9.649754213908668" opacity="0.8282860434013972" transform="matrix(0.8531434610690349,0.5216763698263014,-0.5216763698263014,0.8531434610690349,539.0792371841634,15.190539920435526)" fill="none" stroke="#fee440"></use><use xlink:href="#bbburst-shape-10" width="14.204600801193912" opacity="0.7015632436847072" transform="matrix(0.939080439184746,0.34369743778588807,-0.34369743778588807,0.939080439184746,655.5280425210992,-27.88091824585905)" fill="none" stroke="#ffa6d5" filter="url(#bbburst-blur-1)"></use><use xlink:href="#bbburst-shape-8" width="10.830588707885335" opacity="0.7307260961386737" transform="matrix(0.825624772266737,0.5642195808543857,-0.5642195808543857,0.825624772266737,507.3655202458613,25.211702978727942)" fill="none" stroke="#ffa6d5" filter="url(#bbburst-blur-1)"></use><use xlink:href="#bbburst-shape-12" width="13.633412078567424" opacity="0.5741246012132177" transform="matrix(0.9887532528265887,-0.1495560263741991,0.1495560263741991,0.9887532528265887,250.16456245199117,-167.11453883794638)" fill="none" stroke="#fee440" filter="url(#bbburst-blur-1)"></use><use xlink:href="#bbburst-shape-1" width="14.489758673850305" opacity="0.6603655288856505" transform="matrix(0.7204298948830534,0.6935277691331418,-0.6935277691331418,0.7204298948830534,823.3985814252721,128.9811215756784)" fill="#ffbd9b" filter="url(#bbburst-blur-1)"></use><use xlink:href="#bbburst-shape-4" width="30.036158528329366" opacity="0.3205608835172631" transform="matrix(1.2328864165488107,-0.2061336554021018,0.2061336554021018,1.2328864165488107,77.56616674912891,120.76493870513286)" fill="#ffbd9b" filter="url(#bbburst-blur-3)"></use><use xlink:href="#bbburst-shape-14" width="17.470481277682197" opacity="0.46383222958197856" transform="matrix(0.9802560346011646,-0.19773241167800604,0.19773241167800604,0.9802560346011646,276.27991486251824,-228.91626346731618)" fill="none" stroke="#2c2891" filter="url(#bbburst-blur-2)"></use><use xlink:href="#bbburst-shape-10" width="9.13294669627736" opacity="0.7800954316961352" transform="matrix(0.8528545866014486,-0.5221484981428867,0.5221484981428867,0.8528545866014486,229.4889841052608,-28.24507951124724)" fill="none" stroke="#2c2891"></use><use xlink:href="#bbburst-shape-4" width="11.067773668859491" opacity="0.6867525128428879" transform="matrix(0.8541727220498091,-0.5199893853782206,0.5199893853782206,0.8541727220498091,66.7454362980209,-11.86447171300432)" fill="#ffa6d5" filter="url(#bbburst-blur-1)"></use><use xlink:href="#bbburst-shape-4" width="42.84751181139973" opacity="-0.10645408268473999" transform="matrix(1.7319071065707674,0.2509935740405976,-0.2509935740405976,1.7319071065707674,817.15278501063,-648.3373499647282)" fill="#ffbd9b" filter="url(#bbburst-blur-4)"></use><use xlink:href="#bbburst-shape-12" width="22.341398740642173" opacity="0.4516375992986562" transform="matrix(0.802464162725917,0.5967003163570411,-0.5967003163570411,0.802464162725917,838.1308508333101,-59.84024345290243)" fill="none" stroke="#ffbd9b" filter="url(#bbburst-blur-2)"></use><use xlink:href="#bbburst-shape-1" width="6.961967024903998" opacity="0.8861506595129834" transform="matrix(0.856715428687821,0.5157893700419222,-0.5157893700419222,0.856715428687821,555.5135031516348,73.92241145655203)" fill="#ffa6d5"></use><use xlink:href="#bbburst-shape-14" width="5.733330449663789" opacity="0.9496194540526423" transform="matrix(0.9706298835687593,0.2405776987239191,-0.2405776987239191,0.9706298835687593,505.0793843797556,30.525271230968144)" fill="none" stroke="#00a19d"></use><use xlink:href="#bbburst-shape-12" width="12.27467126494406" opacity="0.6997611042808389" transform="matrix(0.8600731062663712,0.5101708065710104,-0.5101708065710104,0.8600731062663712,551.0443093058739,179.206151332927)" fill="none" stroke="#ff5c58" filter="url(#bbburst-blur-1)"></use><use xlink:href="#bbburst-shape-4" width="8.933104592134296" opacity="0.8380780335902671" transform="matrix(0.7586048895906383,0.6515509354526132,-0.6515509354526132,0.7586048895906383,724.7316842440979,121.08340964783474)" fill="#2c2891"></use><use xlink:href="#bbburst-shape-9" width="5.510673514215563" opacity="0.9753882858559397" transform="matrix(0.990904489286106,0.13456705805152105,-0.13456705805152105,0.990904489286106,449.9521243094849,14.24608957183807)" fill="none" stroke="#2c2891"></use><use xlink:href="#bbburst-shape-8" width="8.37169416938601" opacity="0.8140601734714084" transform="matrix(0.946936956193724,-0.32141935379588654,0.32141935379588654,0.946936956193724,190.92316133302822,56.36360162706268)" fill="none" stroke="#00a19d"></use><use xlink:href="#bbburst-shape-9" width="17.79947829181409" opacity="0.4521080145717906" transform="matrix(0.8583727017971011,0.5130266121845385,-0.5130266121845385,0.8583727017971011,396.60624920727406,-90.76194853388569)" fill="none" stroke="#ff5c58" filter="url(#bbburst-blur-2)"></use><use xlink:href="#bbburst-shape-12" width="14.540184502879741" opacity="0.5970640024422679" transform="matrix(0.7711410103036457,0.6366643874349127,-0.6366643874349127,0.7711410103036457,538.4528593469978,-56.77106985980919)" fill="none" stroke="#ffbd9b" filter="url(#bbburst-blur-1)"></use><use xlink:href="#bbburst-shape-1" width="28.730984464211193" opacity="0.006004585702116816" transform="matrix(1.7074779233095634,-0.3834307517798496,0.3834307517798496,1.7074779233095634,488.4399428186851,81.94839908094536)" fill="#ffbd9b" filter="url(#bbburst-blur-4)"></use><use xlink:href="#bbburst-shape-14" width="5.2292460196829635" opacity="0.9452193419452642" transform="matrix(0.9452027800458871,-0.32648385043295225,0.32648385043295225,0.9452027800458871,289.4478739473209,32.827343881519255)" fill="none" stroke="#00a19d"></use><use xlink:href="#bbburst-shape-1" width="40.08704720784827" opacity="0.016582406756743273" transform="matrix(1.3854589810616456,1.0691133764927023,-1.0691133764927023,1.3854589810616456,534.2870989485301,-529.5630575599794)" fill="#ff5c58" filter="url(#bbburst-blur-4)"></use><use xlink:href="#bbburst-shape-4" width="8.854854046819996" opacity="0.8249575565046932" transform="matrix(0.891602284663129,0.4528193524834034,-0.4528193524834034,0.891602284663129,639.5170157528345,89.50954739997445)" fill="#2c2891"></use><use xlink:href="#bbburst-shape-9" width="16.061765288298503" opacity="0.6674007088434993" transform="matrix(0.832870397021031,0.5534680675215419,-0.5534680675215419,0.832870397021031,646.516857551306,208.5783098011966)" fill="none" stroke="#00a19d" filter="url(#bbburst-blur-1)"></use><use xlink:href="#bbburst-shape-4" width="9.12527136496015" opacity="0.8494884395395844" transform="matrix(0.8230776800229113,-0.5679288094894483,0.5679288094894483,0.8230776800229113,236.64735767048316,78.02862789901769)" fill="#00a19d"></use><use xlink:href="#bbburst-shape-14" width="40.16708811385652" opacity="0.23088044383372552" transform="matrix(1.1431834872334883,-0.5056001528052387,0.5056001528052387,1.1431834872334883,464.45016992326,-236.548410624714)" fill="none" stroke="#ffbd9b" filter="url(#bbburst-blur-3)"></use><use xlink:href="#bbburst-shape-4" width="10.693092750561288" opacity="0.7360642239416962" transform="matrix(0.8105255691129972,0.5857032540579333,-0.5857032540579333,0.8105255691129972,643.5691225789988,190.6529214830582)" fill="#ff5c58" filter="url(#bbburst-blur-1)"></use><use xlink:href="#bbburst-shape-1" width="22.849479145193804" opacity="0.1339765604444687" transform="matrix(0.9787764591136422,-0.7774938218950429,0.7774938218950429,0.9787764591136422,-38.881900004111344,389.22018444219464)" fill="#ffa6d5" filter="url(#bbburst-blur-3)"></use><use xlink:href="#bbburst-shape-10" width="28.993309858280035" opacity="0.46324882158362657" transform="matrix(0.929593855013367,0.36858549174023,-0.36858549174023,0.929593855013367,661.9332618079316,227.6679225731662)" fill="none" stroke="#00a19d" filter="url(#bbburst-blur-2)"></use><use xlink:href="#bbburst-shape-4" width="7.733748309288093" opacity="0.8761358400775764" transform="matrix(0.9916512277598843,-0.1289489917847909,0.1289489917847909,0.9916512277598843,372.9960434719656,51.80061539201955)" fill="#ffbd9b"></use><use xlink:href="#bbburst-shape-9" width="3.426994647830734" opacity="0.9504816421644279" transform="matrix(0.971759542723499,0.2359732847714253,-0.2359732847714253,0.971759542723499,475.14868882444034,24.560769008125476)" fill="none" stroke="#ff5c58"></use><use xlink:href="#bbburst-shape-10" width="26.176669071597363" opacity="0.22212001393948488" transform="matrix(1.2397913951467392,0.15942802927999267,-0.15942802927999267,1.2397913951467392,270.21568282773876,-399.80895433022596)" fill="none" stroke="#ffbd9b" filter="url(#bbburst-blur-3)"></use><use xlink:href="#bbburst-shape-12" width="14.179588501670986" opacity="0.636909283835404" transform="matrix(0.9535594130496483,-0.30120498964062714,0.30120498964062714,0.9535594130496483,419.6154227189771,92.29043220033253)" fill="none" stroke="#ffbd9b" filter="url(#bbburst-blur-1)"></use><use xlink:href="#bbburst-shape-10" width="33.03303518673642" opacity="0.1040841014075583" transform="matrix(1.6952531990227444,0.43430011651293793,-0.43430011651293793,1.6952531990227444,263.9458761207708,3.0706286807810557)" fill="none" stroke="#ffa6d5" filter="url(#bbburst-blur-4)"></use><use xlink:href="#bbburst-shape-9" width="26.36087353784064" opacity="0.34312975680140223" transform="matrix(0.9451989039642665,-0.3264950718536947,0.3264950718536947,0.9451989039642665,377.7866395995346,-243.6799637490904)" fill="none" stroke="#2c2891" filter="url(#bbburst-blur-2)"></use><use xlink:href="#bbburst-shape-14" width="12.360300159189778" opacity="0.6864861450943349" transform="matrix(0.828073718940979,-0.5606192254991408,0.5606192254991408,0.828073718940979,34.38574076435049,108.82212270058443)" fill="none" stroke="#ffbd9b" filter="url(#bbburst-blur-1)"></use><use xlink:href="#bbburst-shape-4" width="23.028095624639622" opacity="0.440014574072621" transform="matrix(0.9484805868569421,-0.31683525112510874,0.31683525112510874,0.9484805868569421,112.10232699900894,226.57701544703718)" fill="#fee440" filter="url(#bbburst-blur-2)"></use><use xlink:href="#bbburst-shape-10" width="37.235808532737906" opacity="0.1524708465017658" transform="matrix(1.1475447267062546,-0.4956219327356965,0.4956219327356965,1.1475447267062546,539.8020899145372,77.79180961966972)" fill="none" stroke="#2c2891" filter="url(#bbburst-blur-3)"></use><use xlink:href="#bbburst-shape-14" width="21.82189599585515" opacity="0.32427001307537684" transform="matrix(1.0080554836229219,-0.7391374310219696,0.7391374310219696,1.0080554836229219,393.51714664614815,53.59812400191902)" fill="none" stroke="#2c2891" filter="url(#bbburst-blur-3)"></use><use xlink:href="#bbburst-shape-4" width="6.460963935384125" opacity="0.883435159343781" transform="matrix(0.7636060102056224,-0.6456824770565258,0.6456824770565258,0.7636060102056224,108.60500018358857,139.20929522600062)" fill="#fee440"></use><use xlink:href="#bbburst-shape-10" width="5.023091637573536" opacity="0.9338637466109387" transform="matrix(0.968970493118007,0.24717642174496823,-0.24717642174496823,0.968970493118007,480.8396366335146,-13.555788876025531)" fill="none" stroke="#00a19d"></use><use xlink:href="#bbburst-shape-14" width="10.938049305909374" opacity="0.705652506782716" transform="matrix(0.8451284121603188,-0.5345633423265932,0.5345633423265932,0.8451284121603188,160.14443909404943,-65.82891326588856)" fill="none" stroke="#ffa6d5" filter="url(#bbburst-blur-1)"></use><use xlink:href="#bbburst-shape-14" width="11.460412356853157" opacity="0.723484086030155" transform="matrix(0.7691789694165104,0.6390334208845067,-0.6390334208845067,0.7691789694165104,542.020994066893,148.37947374822454)" fill="none" stroke="#ffbd9b" filter="url(#bbburst-blur-1)"></use><use xlink:href="#bbburst-shape-10" width="28.03759296552212" opacity="0.319786713459842" transform="matrix(1.2105267797304267,-0.3116487053646837,0.3116487053646837,1.2105267797304267,562.7466446183792,-112.24306141432635)" fill="none" stroke="#00a19d" filter="url(#bbburst-blur-3)"></use><use xlink:href="#bbburst-shape-1" width="23.99901357854805" opacity="0.3713247137889625" transform="matrix(0.9436304916468545,-0.3310007480872446,0.3310007480872446,0.9436304916468545,483.59357425911367,194.97165143206627)" fill="#ff5c58" filter="url(#bbburst-blur-2)"></use><use xlink:href="#bbburst-shape-9" width="7.109342902223856" opacity="0.9156804581110103" transform="matrix(0.774752119020081,0.6322650979406457,-0.6322650979406457,0.774752119020081,675.9284293517676,115.68693717612581)" fill="none" stroke="#ff5c58"></use><use xlink:href="#bbburst-shape-8" width="17.19588988736116" opacity="0.6254639121932428" transform="matrix(0.9767485790601781,-0.21438799710786757,0.21438799710786757,0.9767485790601781,137.80710878315597,24.13700527651639)" fill="none" stroke="#ffa6d5" filter="url(#bbburst-blur-1)"></use><use xlink:href="#bbburst-shape-10" width="29.847875396761978" opacity="0.25084655187651894" transform="matrix(0.9572912387996891,-0.8037994053974888,0.8037994053974888,0.9572912387996891,383.4178418853551,-79.29590125581416)" fill="none" stroke="#2c2891" filter="url(#bbburst-blur-3)"></use><use xlink:href="#bbburst-shape-1" width="4.17721175627657" opacity="0.9330771539873636" transform="matrix(0.998453299803757,0.05559683544041823,-0.05559683544041823,0.998453299803757,427.9746060695754,-28.57391932364135)" fill="#ffa6d5"></use><use xlink:href="#bbburst-shape-10" width="5.968168427932593" opacity="0.890832818591195" transform="matrix(0.7793726080228293,-0.626560721609401,0.626560721609401,0.7793726080228293,196.14068637663502,88.27898896818704)" fill="none" stroke="#ffa6d5"></use><use xlink:href="#bbburst-shape-14" width="5.53767886017375" opacity="0.9127260073104662" transform="matrix(0.9804073899626594,-0.19698058205469343,0.19698058205469343,0.9804073899626594,354.6450037404205,23.73723733744265)" fill="none" stroke="#fee440"></use><use xlink:href="#bbburst-shape-8" width="27.111190383588124" opacity="0.17954148933580805" transform="matrix(1.0907218755033705,0.6105946202665153,-0.6105946202665153,1.0907218755033705,996.2855795794777,-2.771308099790872)" fill="none" stroke="#2c2891" filter="url(#bbburst-blur-3)"></use><use xlink:href="#bbburst-shape-10" width="22.205949734642463" opacity="0.3007782942129499" transform="matrix(1.0759521308310829,-0.6362601764687558,0.6362601764687558,1.0759521308310829,-179.34376478155346,9.882714150988079)" fill="none" stroke="#ff5c58" filter="url(#bbburst-blur-3)"></use><use xlink:href="#bbburst-shape-9" width="14.855012266149151" opacity="0.596827986419656" transform="matrix(0.9442216050116338,0.32931073567263835,-0.32931073567263835,0.9442216050116338,582.2473227316012,-152.30260945468902)" fill="none" stroke="#2c2891" filter="url(#bbburst-blur-1)"></use><use xlink:href="#bbburst-shape-8" width="8.232008719594896" opacity="0.8519863776535042" transform="matrix(0.945283418936361,0.32625029943891887,-0.32625029943891887,0.945283418936361,504.1734571946649,-42.1699030964607)" fill="none" stroke="#ffa6d5"></use><use xlink:href="#bbburst-shape-9" width="16.943182563508202" opacity="0.6469818869329336" transform="matrix(0.8035531402494296,0.5952330222654658,-0.5952330222654658,0.8035531402494296,583.8740814897478,-78.15239773626203)" fill="none" stroke="#ffbd9b" filter="url(#bbburst-blur-1)"></use><use xlink:href="#bbburst-shape-8" width="6.116704539694704" opacity="0.9751206464265331" transform="matrix(0.9992235830552887,0.039398363749661554,-0.039398363749661554,0.9992235830552887,423.10243071580066,4.337769763535732)" fill="none" stroke="#2c2891"></use><use xlink:href="#bbburst-shape-4" width="6.064821695301636" opacity="0.8676559158268968" transform="matrix(0.9174307383606034,-0.39789551431389386,0.39789551431389386,0.9174307383606034,228.5386808277252,93.02783013513448)" fill="#ffa6d5"></use><use xlink:href="#bbburst-shape-10" width="7.913767739963338" opacity="0.8155513734199569" transform="matrix(0.9947518260332802,0.102317176483007,-0.102317176483007,0.9947518260332802,372.9870195565691,54.54168751710495)" fill="none" stroke="#ffbd9b"></use><use xlink:href="#bbburst-shape-8" width="23.086693068987486" opacity="0.4719575946031387" transform="matrix(0.9988842093293127,-0.04722643700888094,0.04722643700888094,0.9988842093293127,275.506396077833,-217.21298079268993)" fill="none" stroke="#2c2891" filter="url(#bbburst-blur-2)"></use><use xlink:href="#bbburst-shape-8" width="6.04407038072066" opacity="0.9253317152531076" transform="matrix(0.9762064308257792,0.21684327154512587,-0.21684327154512587,0.9762064308257792,478.5424537526031,-24.326760884876933)" fill="none" stroke="#00a19d"></use><use xlink:href="#bbburst-shape-12" width="4.285631644188579" opacity="0.9960990398156199" transform="matrix(0.7705329255876174,0.6374001965683626,-0.6374001965683626,0.7705329255876174,652.7505936722171,88.75242027380085)" fill="none" stroke="#fee440"></use><use xlink:href="#bbburst-shape-8" width="7.959224622718851" opacity="0.8769008149393173" transform="matrix(0.792233030152669,-0.6102186705887654,0.6102186705887654,0.792233030152669,121.85270378872104,39.56432680601887)" fill="none" stroke="#ffa6d5"></use><use xlink:href="#bbburst-shape-8" width="17.90466451037201" opacity="0.565504774901358" transform="matrix(0.9218616526514803,-0.38751915226306083,0.38751915226306083,0.9218616526514803,430.151345723879,6.070500052390969)" fill="none" stroke="#2c2891" filter="url(#bbburst-blur-1)"></use><use xlink:href="#bbburst-shape-14" width="5.702190736868456" opacity="0.9363295779019517" transform="matrix(0.8100915519200943,-0.5863034005595509,0.5863034005595509,0.8100915519200943,134.77176108044827,73.86498154185921)" fill="none" stroke="#fee440"></use><use xlink:href="#bbburst-shape-10" width="8.338992687357383" opacity="0.8547384195185979" transform="matrix(0.9821074549752086,-0.18832139252384095,0.18832139252384095,0.9821074549752086,383.7939679482315,-8.685934673126837)" fill="none" stroke="#2c2891"></use><use xlink:href="#bbburst-shape-10" width="22.621145985380604" opacity="0.5030034101126175" transform="matrix(0.8706451073294362,0.49191167609979997,-0.49191167609979997,0.8706451073294362,746.1123426518601,203.26263838458885)" fill="none" stroke="#ff5c58" filter="url(#bbburst-blur-2)"></use><use xlink:href="#bbburst-shape-1" width="11.561280330206182" opacity="0.7715972043313163" transform="matrix(0.9954626550986887,0.09515304673981306,-0.09515304673981306,0.9954626550986887,451.09936616307334,-99.7686699762645)" fill="#2c2891" filter="url(#bbburst-blur-1)"></use><use xlink:href="#bbburst-shape-12" width="26.698471895408964" opacity="0.23855527893632744" transform="matrix(1.243884230457201,-0.12349907376129113,0.12349907376129113,1.243884230457201,133.72657358322306,182.0705206546951)" fill="none" stroke="#2c2891" filter="url(#bbburst-blur-3)"></use><use xlink:href="#bbburst-shape-14" width="19.628077144304644" opacity="0.5611633654379805" transform="matrix(0.7324711094677997,-0.6807981152992498,0.6807981152992498,0.7324711094677997,-13.082642185422571,259.1423625198519)" fill="none" stroke="#ffa6d5" filter="url(#bbburst-blur-1)"></use><use xlink:href="#bbburst-shape-12" width="21.63169317309584" opacity="0.5278831018644246" transform="matrix(0.713112244401691,0.7010498747481402,-0.7010498747481402,0.713112244401691,460.9912622823163,89.79797965335689)" fill="none" stroke="#2c2891" filter="url(#bbburst-blur-2)"></use><use xlink:href="#bbburst-shape-9" width="24.71254511624029" opacity="0.2766056277980722" transform="matrix(1.0816642148117057,-0.6265002205871727,0.6265002205871727,1.0816642148117057,-187.8769939676751,-58.526418470715555)" fill="none" stroke="#2c2891" filter="url(#bbburst-blur-3)"></use><use xlink:href="#bbburst-shape-12" width="8.718060048862782" opacity="0.816565646278274" transform="matrix(0.7147025188176155,-0.6994285593223628,0.6994285593223628,0.7147025188176155,97.86678952655728,197.42954444121023)" fill="none" stroke="#ffa6d5"></use><use xlink:href="#bbburst-shape-8" width="15.878207756681494" opacity="0.6949950186464678" transform="matrix(0.75665963882682,0.6538089866088309,-0.6538089866088309,0.75665963882682,711.1641822310459,217.61062787129987)" fill="none" stroke="#2c2891" filter="url(#bbburst-blur-1)"></use><use xlink:href="#bbburst-shape-12" width="16.948535744250318" opacity="0.5586339256818467" transform="matrix(0.9127934982521086,0.4084213872322036,-0.4084213872322036,0.9127934982521086,463.3619730010368,207.26700804778073)" fill="none" stroke="#00a19d" filter="url(#bbburst-blur-1)"></use><use xlink:href="#bbburst-shape-10" width="17.24339442342614" opacity="0.5071252198808025" transform="matrix(0.9997525391308023,-0.022245460245037586,0.022245460245037586,0.9997525391308023,402.21851822419785,221.20458515810867)" fill="none" stroke="#00a19d" filter="url(#bbburst-blur-2)"></use><use xlink:href="#bbburst-shape-8" width="8.44683360974063" opacity="0.7926089231257196" transform="matrix(0.9193965207929155,-0.3933319686395731,0.3933319686395731,0.9193965207929155,152.7967953670467,-2.372746735482565)" fill="none" stroke="#ffa6d5"></use><use xlink:href="#bbburst-shape-8" width="8.159901175138405" opacity="0.8527406802989262" transform="matrix(0.950917859279019,0.3094434114732577,-0.3094434114732577,0.950917859279019,492.8425975262803,78.86247375593211)" fill="none" stroke="#ff5c58"></use><use xlink:href="#bbburst-shape-4" width="20.869056280861034" opacity="0.5095483220346555" transform="matrix(0.9670980104326451,-0.2544040845136325,0.2544040845136325,0.9670980104326451,479.92926147338983,125.06460980620852)" fill="#00a19d" filter="url(#bbburst-blur-2)"></use><use xlink:href="#bbburst-shape-10" width="28.88806612810981" opacity="0.32366745266884933" transform="matrix(1.1769463638042257,0.42106680791533724,-0.42106680791533724,1.1769463638042257,599.6304049287459,-377.36856199873)" fill="none" stroke="#ffa6d5" filter="url(#bbburst-blur-3)"></use><use xlink:href="#bbburst-shape-12" width="26.396993188071765" opacity="0.41278675185569036" transform="matrix(0.995705886647407,0.09257314565089152,-0.09257314565089152,0.995705886647407,165.63923088003904,-55.511781983740036)" fill="none" stroke="#ffbd9b" filter="url(#bbburst-blur-2)"></use><use xlink:href="#bbburst-shape-9" width="33.623596674332326" opacity="0.15307348011064492" transform="matrix(1.2194017161179296,0.27488080094587986,-0.27488080094587986,1.2194017161179296,779.9544804521854,154.11002926188962)" fill="none" stroke="#ffa6d5" filter="url(#bbburst-blur-3)"></use><use xlink:href="#bbburst-shape-9" width="13.85740663983563" opacity="0.7641933672268388" transform="matrix(0.7102017701600936,0.7039981858367745,-0.7039981858367745,0.7102017701600936,753.7928990226125,183.93729208266552)" fill="none" stroke="#ffbd9b" filter="url(#bbburst-blur-1)"></use></svg>