<svg xmlns="http://www.w3.org/2000/svg" version="1.1" xmlns:xlink="http://www.w3.org/1999/xlink" xmlns:svgjs="http://svgjs.dev/svgjs" viewBox="0 0 1422 800"><g fill="none" stroke-width="3" stroke="hsl(190, 100%, 70%)"><path d="M97 82H147C175 82 197 104 197 132H147C119 132 97 110 97 82Z " transform="matrix(-0.28010631173323974,-0.3585197298274264,0.3585197298274264,-0.28010631173323974,149.81401673325163,189.6737756400883)"></path><path d="M961 736H1011C1039 736 1061 758 1061 786H1011C983 786 961 764 961 736Z " transform="matrix(-0.3674653343476448,0.02569567933068702,-0.02569567933068702,-0.3674653343476448,1402.0618649961216,1014.6627876352333)"></path><path d="M993 559H1043C1071 559 1093 581 1093 609H1043C1015 609 993 587 993 559Z " transform="matrix(-0.3664564200722983,0.03206078243262014,-0.03206078243262014,-0.3664564200722983,1443.9375430760572,764.5711532449993)"></path><path d="M779 732H829C857 732 879 754 879 782H829C801 782 779 760 779 732Z " transform="matrix(-0.37207797402763915,-0.18147455342084162,0.18147455342084162,-0.37207797402763915,1000.0764035293356,1189.1054311248004)"></path><path d="M869 733H919C947 733 969 755 969 783H919C891 783 869 761 869 733Z " transform="matrix(-0.3785185564701776,-0.013218159258844142,0.013218159258844142,-0.3785185564701776,1256.8391886778893,1057.0645541632723)"></path><path d="M591 435H641C669 435 691 457 691 485H641C613 485 591 463 591 435Z " transform="matrix(-0.11863395932320589,-0.47581482212338105,0.47581482212338105,-0.11863395932320589,498.16954974941973,819.568922269762)"></path><path d="M1253 92H1303C1331 92 1353 114 1353 142H1303C1275 142 1253 120 1253 92Z " transform="matrix(-0.3699823737758289,0.019389954583459282,-0.019389954583459282,-0.3699823737758289,1787.3556577161698,135.02282690952455)"></path><path d="M661 83H711C739 83 761 105 761 133H711C683 133 661 111 661 83Z " transform="matrix(-0.366516066387285,-0.203163173101336,0.203163173101336,-0.366516066387285,949.6513005064154,292.03275124487675)"></path><path d="M4 557H54C82 557 104 579 104 607H54C26 607 4 585 4 557Z " transform="matrix(-0.38427999270897845,-0.08871802680246642,0.08871802680246642,-0.38427999270897845,23.117228007249377,810.4417292039585)"></path><path d="M1215 544H1265C1293 544 1315 566 1315 594H1265C1237 594 1215 572 1215 544Z " transform="matrix(-0.3841663870697599,-0.06084597820754305,0.06084597820754305,-0.3841663870697599,1716.349118043154,864.5608366752352)"></path><path d="M1033 231H1083C1111 231 1133 253 1133 281H1083C1055 281 1033 259 1033 231Z " transform="matrix(-0.3676964618257159,0.025711841338381076,-0.025711841338381076,-0.3676964618257159,1487.7974995398758,322.2843700579166)"></path><path d="M996 156H1046C1074 156 1096 178 1096 206H1046C1018 206 996 184 996 156Z " transform="matrix(-0.3664564200722983,0.03206078243262014,-0.03206078243262014,-0.3664564200722983,1435.116417015928,213.79303360856537)"></path><path d="M1049 734H1099C1127 734 1149 756 1149 784H1099C1071 784 1049 762 1049 734Z " transform="matrix(-0.36987612339827397,0.019384386237123644,-0.019384386237123644,-0.36987612339827397,1520.2066087686799,1018.432537184691)"></path><path d="M1137 739H1187C1215 739 1237 761 1237 789H1187C1159 789 1137 767 1137 739Z " transform="matrix(-0.37961149341713646,-0.019894595360310834,0.019894595360310834,-0.37961149341713646,1622.3993718308634,1077.6380656633812)"></path><path d="M507 456H557C585 456 607 478 607 506H557C529 506 507 484 507 456Z " transform="matrix(0.05453760633047722,-0.5188906630890795,0.5188906630890795,0.05453760633047722,277.036144328077,743.7895106956578)"></path><path d="M769 84H819C847 84 869 106 869 134H819C791 134 769 112 769 84Z " transform="matrix(-0.37018254940228307,0.01940044534350834,-0.01940044534350834,-0.37018254940228307,1124.2941565029123,133.46093314851552)"></path><path d="M195 575H245C273 575 295 597 295 625H245C217 625 195 603 195 575Z " transform="matrix(-0.035370691895602685,-0.5058244600679973,0.5058244600679973,-0.035370691895602685,-49.828856526375716,745.1494078540209)"></path><path d="M522 374H572C600 374 622 396 622 424H572C544 424 522 402 522 374Z " transform="matrix(-9.416608671364326e-17,-0.5126163003580861,0.5126163003580861,-9.416608671364326e-17,367.46609615712373,692.2165238048253)"></path><path d="M1183 162H1233C1261 162 1283 184 1283 212H1233C1205 212 1183 190 1183 162Z " transform="matrix(-0.38227621719424376,-0.04017884946845647,0.04017884946845647,-0.38227621719424376,1696.8331309499013,308.0261740099304)"></path><path d="M1139 551H1189C1217 551 1239 573 1239 601H1189C1161 601 1139 579 1139 551Z " transform="matrix(-0.37961149341713646,-0.019894595360310834,0.019894595360310834,-0.37961149341713646,1628.898778745436,818.3108940916802)"></path><path d="M140 271H190C218 271 240 293 240 321H190C162 321 140 299 140 271Z " transform="matrix(-0.16462048669919144,-0.45229106998565755,0.45229106998565755,-0.16462048669919144,87.39973575709175,430.66296736023554)"></path><path d="M443 356H493C521 356 543 378 543 406H493C465 406 443 384 443 356Z " transform="matrix(0.13843853945566897,-0.5166596629741844,0.5166596629741844,0.13843853945566897,227.90246845519096,582.968130313663)"></path><path d="M764 591H814C842 591 864 613 864 641H814C786 641 764 619 764 591Z " transform="matrix(-0.37207797402763915,-0.18147455342084162,0.18147455342084162,-0.37207797402763915,1005.0831459512598,992.9203184855908)"></path><path d="M1269 598H1319C1347 598 1369 620 1369 648H1319C1291 648 1269 626 1269 598Z " transform="matrix(-0.3847629622058214,-0.10309692500045625,0.10309692500045625,-0.3847629622058214,1762.272962874194,998.6921695298286)"></path><path d="M685 736H735C763 736 785 758 785 786H735C707 786 685 764 685 736Z " transform="matrix(-0.29025959541080665,-0.34591791561577057,0.34591791561577057,-0.29025959541080665,685.0972688433415,1236.1372200852152)"></path><path d="M751 514H801C829 514 851 536 851 564H801C773 564 751 542 751 514Z " transform="matrix(-0.37207797402763915,-0.18147455342084162,0.18147455342084162,-0.37207797402763915,1001.2196729023052,884.9111452909917)"></path><path d="M1053 382H1103C1131 382 1153 404 1153 432H1103C1075 432 1053 410 1053 382Z " transform="matrix(-0.36987612339827397,0.019384386237123644,-0.019384386237123644,-0.36987612339827397,1518.8628093068055,536.1586042035501)"></path><path d="M1183 616H1233C1261 616 1283 638 1283 666H1233C1205 666 1183 644 1183 616Z " transform="matrix(-0.38227621719424376,-0.04017884946845647,0.04017884946845647,-0.38227621719424376,1678.5919332912217,935.579576616117)"></path><path d="M-8 198H42C70 198 92 220 92 248H42C14 248 -8 226 -8 198Z " transform="matrix(-0.38427999270897845,-0.08871802680246642,0.08871802680246642,-0.38427999270897845,38.355639716827085,312.4205954998058)"></path><path d="M1236 745H1286C1314 745 1336 767 1336 795H1286C1258 795 1236 773 1236 745Z " transform="matrix(-0.3850748909734168,-0.081850194810768,0.081850194810768,-0.3850748909734168,1718.1816597875227,1171.7670165761788)"></path><path d="M1331 734H1381C1409 734 1431 756 1431 784H1381C1353 784 1331 762 1331 734Z " transform="matrix(-0.379539786517548,-0.14569167390910637,0.14569167390910637,-0.379539786517548,1794.5644646837218,1248.2708996352949)"></path><path d="M667 574H717C745 574 767 596 767 624H717C689 624 667 602 667 574Z " transform="matrix(-0.29025959541080665,-0.34591791561577057,0.34591791561577057,-0.29025959541080665,717.9112984557019,1020.8886431475808)"></path><path d="M1114 11H1164C1192 11 1214 33 1214 61H1164C1136 61 1114 39 1114 11Z " transform="matrix(-0.24501290557480349,0.19840753886119197,-0.19840753886119197,-0.24501290557480349,1456.3376934880741,-186.12591063373452)"></path><path d="M1185 466H1235C1263 466 1285 488 1285 516H1235C1207 516 1185 494 1185 466Z " transform="matrix(-0.38227621719424376,-0.04017884946845647,0.04017884946845647,-0.38227621719424376,1687.3833131458791,728.3185017359174)"></path><path d="M582 530H632C660 530 682 552 682 580H632C604 580 582 558 582 530Z " transform="matrix(-0.11863395932320589,-0.47581482212338105,0.47581482212338105,-0.11863395932320589,442.89943601378957,921.5568150063561)"></path><path d="M98 372H148C176 372 198 394 198 422H148C120 422 98 400 98 372Z " transform="matrix(-0.2949723296576187,-0.3393268490425051,0.3393268490425051,-0.2949723296576187,56.94314571945304,564.3243885323654)"></path><path d="M450 244H500C528 244 550 266 550 294H500C472 294 450 272 450 244Z " transform="matrix(0.13843853945566897,-0.5166596629741844,0.5166596629741844,0.13843853945566897,291.7992809321099,490.08986437351734)"></path><path d="M804 172H854C882 172 904 194 904 222H854C826 222 804 200 804 172Z " transform="matrix(-0.3834038220512629,-0.12457545339543173,0.12457545339543173,-0.3834038220512629,1156.8854997128783,378.9179901437975)"></path><path d="M1009 11H1059C1087 11 1109 33 1109 61H1059C1031 61 1009 39 1009 11Z " transform="matrix(-0.16186997933066896,0.2399821133296139,-0.2399821133296139,-0.16186997933066896,1239.0596641910445,-212.313738760157)"></path><path d="M836 468H886C914 468 936 490 936 518H886C858 518 836 496 836 468Z " transform="matrix(-0.384944581815773,-0.08182249674426512,0.08182249674426512,-0.384944581815773,1186.7224085938524,755.272410950595)"></path><path d="M1260 313H1310C1338 313 1360 335 1360 363H1310C1282 363 1260 341 1260 313Z " transform="matrix(-0.3847629622058214,-0.10309692500045625,0.10309692500045625,-0.3847629622058214,1779.192719839472,603.1068529761653)"></path><path d="M913 583H963C991 583 1013 605 1013 633H963C935 633 913 611 913 583Z " transform="matrix(-0.37366058324836854,0.006522269741715898,-0.006522269741715898,-0.37366058324836854,1326.8006816711422,828.9046888537356)"></path><path d="M1055 81H1105C1133 81 1155 103 1155 131H1105C1077 131 1055 109 1055 81Z " transform="matrix(-0.271913506558346,0.1765826958519509,-0.1765826958519509,-0.271913506558346,1424.1821905072788,-60.3010472212211)"></path><path d="M1269 182H1319C1347 182 1369 204 1369 232H1319C1291 232 1269 210 1269 182Z " transform="matrix(-0.3847629622058214,-0.10309692500045625,0.10309692500045625,-0.3847629622058214,1805.1612836743839,422.6307772522068)"></path><path d="M470 634H520C548 634 570 656 570 684H520C492 684 470 662 470 634Z " transform="matrix(0.10098274632104479,-0.5195111931296437,0.5195111931296437,0.10098274632104479,125.1310956406216,862.598190601846)"></path><path d="M720 146H770C798 146 820 168 820 196H770C742 196 720 174 720 146Z " transform="matrix(-0.35738212893907234,-0.23208666820612536,0.23208666820612536,-0.35738212893907234,1005.4974190198382,410.81907856729794)"></path><path d="M1193 685H1243C1271 685 1293 707 1293 735H1243C1215 735 1193 713 1193 685Z " transform="matrix(-0.38227621719424376,-0.04017884946845647,0.04017884946845647,-0.38227621719424376,1689.642354849841,1031.3584240972045)"></path><path d="M1270 495H1320C1348 495 1370 517 1370 545H1320C1292 545 1270 523 1270 495Z " transform="matrix(-0.3847629622058214,-0.10309692500045625,0.10309692500045625,-0.3847629622058214,1774.2767091114467,856.1646813476294)"></path><path d="M621 158H671C699 158 721 180 721 208H671C643 208 621 186 621 158Z " transform="matrix(-0.18671125974230593,-0.4398641629898445,0.4398641629898445,-0.18671125974230593,715.7881134599457,512.3170138990276)"></path><path d="M956 83H1006C1034 83 1056 105 1056 133H1006C978 133 956 111 956 83Z " transform="matrix(-0.2540596572697549,0.19144768370335152,-0.19144768370335152,-0.2540596572697549,1282.2603650533354,-57.15792682043812)"></path><path d="M1091 491H1141C1169 491 1191 513 1191 541H1141C1113 541 1091 519 1091 491Z " transform="matrix(-0.3729639726053394,0.006510110357712137,-0.006510110357712137,-0.3729639726053394,1569.9111096872718,701.0213739462056)"></path><path d="M0 380H50C78 380 100 402 100 430H50C22 430 0 408 0 380Z " transform="matrix(-0.38427999270897845,-0.08871802680246642,0.08871802680246642,-0.38427999270897845,33.28319878045002,565.0692983872596)"></path><path d="M354 730H404C432 730 454 752 454 780H404C376 780 354 758 354 730Z " transform="matrix(0.1667719550871811,-0.5132713006343484,0.5132713006343484,0.1667719550871811,-50.89570183415424,836.448779365455)"></path><path d="M858 91H908C936 91 958 113 958 141H908C880 141 858 119 858 91Z " transform="matrix(-0.30120227114288317,0.1469061633864348,-0.1469061633864348,-0.30120227114288317,1198.5327771505645,17.548667097691634)"></path><path d="M201 737H251C279 737 301 759 301 787H251C223 787 201 765 201 737Z " transform="matrix(-0.035370691895602685,-0.5058244600679973,0.5058244600679973,-0.035370691895602685,-125.56019490601773,915.9144067015166)"></path><path d="M1338 447H1388C1416 447 1438 469 1438 497H1388C1360 497 1338 475 1338 447Z " transform="matrix(-0.379539786517548,-0.14569167390910637,0.14569167390910637,-0.379539786517548,1846.0347536012587,853.3628226221222)"></path><path d="M1152 317H1202C1230 317 1252 339 1252 367H1202C1174 367 1152 345 1152 317Z " transform="matrix(-0.37961149341713646,-0.019894595360310834,0.019894595360310834,-0.37961149341713646,1651.4890634741716,495.7404343717543)"></path><path d="M435 729H485C513 729 535 751 535 779H485C457 779 435 757 435 729Z " transform="matrix(0.13843853945566897,-0.5166596629741844,0.5166596629741844,0.13843853945566897,28.295922481465425,900.1972777929052)"></path><path d="M1268 409H1318C1346 409 1368 431 1368 459H1318C1290 459 1268 437 1268 409Z " transform="matrix(-0.3847629622058214,-0.10309692500045625,0.10309692500045625,-0.3847629622058214,1780.3735187370746,736.8688727479279)"></path><path d="M595 731H645C673 731 695 753 695 781H645C617 781 595 759 595 731Z " transform="matrix(-0.11863395932320589,-0.47581482212338105,0.47581482212338105,-0.11863395932320589,361.80289823819174,1152.5878335179245)"></path><path d="M683 215H733C761 215 783 237 783 265H733C705 265 683 243 683 215Z " transform="matrix(-0.29025959541080665,-0.34591791561577057,0.34591791561577057,-0.29025959541080665,862.7399836883363,563.2201350449534)"></path><path d="M243 507H293C321 507 343 529 343 557H293C265 557 243 535 243 507Z " transform="matrix(0.02707708876549053,-0.5166616318400736,0.5166616318400736,0.02707708876549053,10.202424852792092,668.9768469059006)"></path><path d="M106 545H156C184 545 206 567 206 595H156C128 595 106 573 106 545Z " transform="matrix(-0.23306432567545401,-0.4036792535016655,0.4036792535016655,-0.23306432567545401,-37.7391396905785,765.8206291812686)"></path><path d="M982 319H1032C1060 319 1082 341 1082 369H1032C1004 369 982 347 982 319Z " transform="matrix(-0.3674653343476448,0.02569567933068702,-0.02569567933068702,-0.3674653343476448,1420.0635387365257,443.8901339463208)"></path><path d="M1121 409H1171C1199 409 1221 431 1221 459H1171C1143 459 1121 437 1121 409Z " transform="matrix(-0.3762600058030217,-0.0065676428311831495,0.0065676428311831495,-0.3762600058030217,1608.7501098066052,604.987552273827)"></path><path d="M1340 639H1390C1418 639 1440 661 1440 689H1390C1362 689 1340 667 1340 639Z " transform="matrix(-0.379539786517548,-0.14569167390910637,0.14569167390910637,-0.379539786517548,1820.8210317837452,1118.5258449813098)"></path><path d="M-4 103H46C74 103 96 125 96 153H46C18 153 -4 131 -4 103Z " transform="matrix(-0.38526823125952464,-0.08894617964903158,0.08894617964903158,-0.38526823125952464,52.33722764286209,181.4058578650746)"></path><path d="M356 392H406C434 392 456 414 456 442H406C378 442 356 420 356 392Z " transform="matrix(0.1667719550871811,-0.5132713006343484,0.5132713006343484,0.1667719550871811,124.2564538700812,555.844242786191)"></path><path d="M70 462H120C148 462 170 484 170 512H120C92 512 70 490 70 462Z " transform="matrix(-0.2949723296576187,-0.3393268490425051,0.3393268490425051,-0.2949723296576187,-9.855495924785714,671.3707464283609)"></path><path d="M900 407H950C978 407 1000 429 1000 457H950C922 457 900 435 900 407Z " transform="matrix(-0.37366058324836854,0.006522269741715898,-0.006522269741715898,-0.37366058324836854,1307.7951746143713,587.2252157086651)"></path><path d="M1336 545H1386C1414 545 1436 567 1436 595H1386C1358 595 1336 573 1336 545Z " transform="matrix(-0.379539786517548,-0.14569167390910637,0.14569167390910637,-0.379539786517548,1828.9978899851312,988.2663383530238)"></path><path d="M603 248H653C681 248 703 270 703 298H653C625 298 603 276 603 248Z " transform="matrix(-0.18671125974230593,-0.4398641629898445,0.4398641629898445,-0.18671125974230593,654.8395361154982,611.203472342018)"></path><path d="M75 180H125C153 180 175 202 175 230H125C97 230 75 208 75 180Z " transform="matrix(-0.2949723296576187,-0.3393268490425051,0.3393268490425051,-0.2949723296576187,92.30953715348879,307.885183710125)"></path><path d="M863 232H913C941 232 963 254 963 282H913C885 282 863 260 863 232Z " transform="matrix(-0.3825045722977704,-0.04696565595293517,0.04696565595293517,-0.3825045722977704,1250.15650092796,398.1833189655568)"></path><path d="M307 571H357C385 571 407 593 407 621H357C329 621 307 599 307 571Z " transform="matrix(0.1480455079911829,-0.5162960429142155,0.5162960429142155,0.1480455079911829,-3.564687929724755,692.0825645576299)"></path><path d="M516 723H566C594 723 616 745 616 773H566C538 773 516 751 516 723Z " transform="matrix(-9.416608671364326e-17,-0.5126163003580861,0.5126163003580861,-9.416608671364326e-17,182.56300733215164,1038.1408260026767)"></path><path d="M463 64H513C541 64 563 86 563 114H513C485 114 463 92 463 64Z " transform="matrix(0.08220857593825844,-0.5190445208494582,0.5190445208494582,0.08220857593825844,424.63203818807165,347.95327593726705)"></path><path d="M153 11H203C231 11 253 33 253 61H203C175 61 153 39 153 11Z " transform="matrix(-0.11886319716507769,-0.47673424488880534,0.47673424488880534,-0.11886319716507769,209.96679620851378,137.05612681037027)"></path><path d="M127 726H177C205 726 227 748 227 776H177C149 776 127 754 127 726Z " transform="matrix(-0.23306432567545401,-0.4036792535016655,0.4036792535016655,-0.23306432567545401,-84.91073373519538,997.4825364520609)"></path><path d="M378 186H428C456 186 478 208 478 236H428C400 236 378 214 378 186Z " transform="matrix(0.16692303406640355,-0.5137362739215146,0.5137362739215146,0.16692303406640355,248.15858762213972,395.6583650503971)"></path><path d="M391 9H441C469 9 491 31 491 59H441C413 59 391 37 391 9Z " transform="matrix(0.2043127513361003,-0.5056918048172947,0.5056918048172947,0.2043127513361003,333.70455529699177,250.06345237899956)"></path><path d="M1325 23H1375C1403 23 1425 45 1425 73H1375C1347 73 1325 51 1325 23Z " transform="matrix(-0.38387851990400934,-0.10285993939993379,0.10285993939993379,-0.38387851990400934,1897.8956877768162,207.8585856303014)"></path><path d="M833 649H883C911 649 933 671 933 699H883C855 699 833 677 833 649Z " transform="matrix(-0.384944581815773,-0.08182249674426512,0.08182249674426512,-0.384944581815773,1167.7577029376928,1005.7019127690171)"></path><path d="M904 159H954C982 159 1004 181 1004 209H954C926 209 904 187 904 159Z " transform="matrix(-0.37366058324836854,0.006522269741715898,-0.006522269741715898,-0.37366058324836854,1311.6722940514194,246.5313019841028)"></path><path d="M1336 129H1386C1414 129 1436 151 1436 179H1386C1358 179 1336 157 1336 129Z " transform="matrix(-0.3813412695286984,-0.1313063291856677,0.1313063291856677,-0.3813412695286984,1894.3178248721829,394.71712775875494)"></path><path d="M462 148H512C540 148 562 170 562 198H512C484 198 462 176 462 148Z " transform="matrix(0.09175330561087201,-0.5203588540007672,0.5203588540007672,0.09175330561087201,375.00022578510084,423.550411377712)"></path><path d="M1215 248H1265C1293 248 1315 270 1315 298H1265C1237 298 1215 276 1215 248Z " transform="matrix(-0.3841663870697599,-0.06084597820754305,0.06084597820754305,-0.3841663870697599,1734.3595275925868,454.84758610258643)"></path><path d="M56 725H106C134 725 156 747 156 775H106C78 775 56 753 56 725Z " transform="matrix(-0.34499429361710304,-0.25997184721752037,0.25997184721752037,-0.34499429361710304,-52.40949028972739,1036.3027360178844)"></path><path d="M638 654H688C716 654 738 676 738 704H688C660 704 638 682 638 654Z " transform="matrix(-0.2393902761833358,-0.3984123249261494,0.3984123249261494,-0.2393902761833358,582.1785413892796,1115.6536770776759)"></path><path d="M334 483H384C412 483 434 505 434 533H384C356 533 334 511 334 483Z " transform="matrix(0.1480455079911829,-0.5162960429142155,0.5162960429142155,0.1480455079911829,64.87213513096435,631.0505624195378)"></path><path d="M380 642H430C458 642 480 664 480 692H430C402 692 380 670 380 642Z " transform="matrix(0.16692303406640355,-0.5137362739215146,0.5137362739215146,0.16692303406640355,15.561000645796241,776.5689340639601)"></path><path d="M95 632H145C173 632 195 654 195 682H145C117 682 95 660 95 632Z " transform="matrix(-0.2949723296576187,-0.3393268490425051,0.3393268490425051,-0.2949723296576187,-35.166752020571124,899.9992136962187)"></path><path d="M1068 581H1118C1146 581 1168 603 1168 631H1118C1090 631 1068 609 1068 581Z " transform="matrix(-0.36987612339827397,0.019384386237123644,-0.019384386237123644,-0.36987612339827397,1543.2684440189673,808.4731869662497)"></path><path d="M521 286H571C599 286 621 308 621 336H571C543 336 521 314 521 286Z " transform="matrix(-9.416608671364326e-17,-0.5126163003580861,0.5126163003580861,-9.416608671364326e-17,411.5763305886353,603.7039075044672)"></path><path d="M715 13H765C793 13 815 35 815 63H765C737 63 715 41 715 13Z " transform="matrix(-0.3789653747049486,-0.01986073371345185,0.01986073371345185,-0.3789653747049486,1054.1538037681744,67.59414552957871)"></path><path d="M1014 652H1064C1092 652 1114 674 1114 702H1064C1036 702 1014 680 1014 652Z " transform="matrix(-0.3664564200722983,0.03206078243262014,-0.03206078243262014,-0.3664564200722983,1475.6147806638094,890.9783238806382)"></path><path d="M280 19H330C358 19 380 41 380 69H330C302 69 280 47 280 19Z " transform="matrix(0.19514277815103212,-0.5083643174152235,0.5083643174152235,0.19514277815103212,243.23485324388957,203.17394250837833)"></path><path d="M613 15H663C691 15 713 37 713 65H663C635 65 613 43 613 15Z " transform="matrix(-0.3303401129012147,-0.287160279113741,0.287160279113741,-0.3303401129012147,870.5290836889557,243.60086956845885)"></path><path d="M753 248H803C831 248 853 270 853 298H803C775 298 753 276 753 248Z " transform="matrix(-0.37207797402763915,-0.18147455342084162,0.18147455342084162,-0.37207797402763915,1052.2360600603045,520.3013533064812)"></path><path d="M1336 346H1386C1414 346 1436 368 1436 396H1386C1358 396 1336 374 1336 346Z " transform="matrix(-0.379539786517548,-0.14569167390910637,0.14569167390910637,-0.379539786517548,1857.9905330930433,713.7379208360318)"></path><path d="M1126 233H1176C1204 233 1226 255 1226 283H1176C1148 283 1126 261 1126 233Z " transform="matrix(-0.3762600058030217,-0.0065676428311831495,0.0065676428311831495,-0.3762600058030217,1616.7873149739085,362.79862946665094)"></path><path d="M675 301H725C753 301 775 323 775 351H725C697 351 675 329 675 301Z " transform="matrix(-0.29025959541080665,-0.34591791561577057,0.34591791561577057,-0.29025959541080665,822.6689661820936,671.4151169253566)"></path><path d="M242 184H292C320 184 342 206 342 234H292C264 234 242 212 242 184Z " transform="matrix(0.02707708876549053,-0.5166616318400736,0.5166616318400736,0.02707708876549053,176.11120902590136,354.206084945314)"></path><path d="M159 171H209C237 171 259 193 259 221H209C181 221 159 199 159 171Z " transform="matrix(-0.09445191703860698,-0.4859129891170584,0.4859129891170584,-0.09445191703860698,133.50150479412542,316.06839046503217)"></path><path d="M-15 731H35C63 731 85 753 85 781H35C7 781 -15 759 -15 731Z " transform="matrix(-0.38427999270897845,-0.08871802680246642,0.08871802680246642,-0.38427999270897845,-18.62102851785037,1049.620805426074)"></path><path d="M823 380H873C901 380 923 402 923 430H873C845 430 823 408 823 380Z " transform="matrix(-0.384944581815773,-0.08182249674426512,0.08182249674426512,-0.384944581815773,1175.9185087437424,632.3335952931315)"></path><path d="M814 12H864C892 12 914 34 914 62H864C836 62 814 40 814 12Z " transform="matrix(-0.24944968194618086,0.19489145104122335,-0.19489145104122335,-0.24944968194618086,1086.7355088900254,-122.15657546760829)"></path><path d="M14 14H64C92 14 114 36 114 64H64C36 64 14 42 14 14Z " transform="matrix(-0.3682415926621004,-0.19579752794848318,0.19579752794848318,-0.3682415926621004,79.93135834038358,65.89246390252484)"></path><path d="M1273 678H1323C1351 678 1373 700 1373 728H1323C1295 728 1273 706 1273 678Z " transform="matrix(-0.3847629622058214,-0.10309692500045625,0.10309692500045625,-0.3847629622058214,1759.564260722981,1109.885594206296)"></path><path d="M1199 378H1249C1277 378 1299 400 1299 428H1249C1221 428 1199 406 1199 378Z " transform="matrix(-0.3841663870697599,-0.06084597820754305,0.06084597820754305,-0.3841663870697599,1704.3028882324902,633.8156807703344)"></path><path d="M-12 470H38C66 470 88 492 88 520H38C10 520 -12 498 -12 470Z " transform="matrix(-0.38427999270897845,-0.08871802680246642,0.08871802680246642,-0.38427999270897845,8.687216455720307,688.589881409438)"></path><path d="M492 543H542C570 543 592 565 592 593H542C514 593 492 571 492 543Z " transform="matrix(0.05453760633047722,-0.5188906630890795,0.5188906630890795,0.05453760633047722,217.71072073428422,818.26137899857)"></path><path d="M909 13H959C987 13 1009 35 1009 63H959C931 63 909 41 909 13Z " transform="matrix(-0.16732894715278726,0.23897050234650993,-0.23897050234650993,-0.16732894715278726,1128.5493394086902,-184.8142117584971)"></path><path d="M928 659H978C1006 659 1028 681 1028 709H978C950 709 928 687 928 659Z " transform="matrix(-0.36976937298515883,0.019378791685034733,-0.019378791685034733,-0.36976937298515883,1352.889540292049,917.9697928538845)"></path><path d="M376 91H426C454 91 476 113 476 141H426C398 141 376 119 376 91Z " transform="matrix(0.19536757663230678,-0.5089499374805518,0.5089499374805518,0.19536757663230678,283.7352196068933,310.1500344773675)"></path><path d="M377 296H427C455 296 477 318 477 346H427C399 346 377 324 377 296Z " transform="matrix(0.16692303406640355,-0.5137362739215146,0.5137362739215146,0.16692303406640355,190.81452052483954,486.7830950291712)"></path><path d="M61 282H111C139 282 161 304 161 332H111C83 332 61 310 61 282Z " transform="matrix(-0.34499429361710304,-0.25997184721752037,0.25997184721752037,-0.34499429361710304,69.48300949571968,441.7701231815954)"></path><path d="M300 122H350C378 122 400 144 400 172H350C322 172 300 150 300 122Z " transform="matrix(0.15765157617285017,-0.5156550707331189,0.5156550707331189,0.15765157617285017,219.02065294173397,304.3044930591826)"></path><path d="M-3 642H47C75 642 97 664 97 692H47C19 692 -3 670 -3 642Z " transform="matrix(-0.38427999270897845,-0.08871802680246642,0.08871802680246642,-0.38427999270897845,5.886235780076888,927.4845023966045)"></path><path d="M286 334H336C364 334 386 356 386 384H336C308 384 286 362 286 334Z " transform="matrix(0.11978009847977975,-0.5188246067845463,0.5188246067845463,0.11978009847977975,109.49585307514184,490.3240125253666)"></path><path d="M402 552H452C480 552 502 574 502 602H452C424 602 402 580 402 552Z " transform="matrix(0.15746014084293591,-0.5150289139829985,0.5150289139829985,0.15746014084293591,83.6563329708028,718.9385678539413)"></path><path d="M275 732H325C353 732 375 754 375 782H325C297 782 275 760 275 732Z " transform="matrix(0.08226365543214942,-0.5193922790874399,0.5193922790874399,0.08226365543214942,-94.91564328464057,863.5289035412809)"></path><path d="M927 493H977C1005 493 1027 515 1027 543H977C949 543 927 521 927 493Z " transform="matrix(-0.37366058324836854,0.006522269741715898,-0.006522269741715898,-0.37366058324836854,1345.444925559865,705.1839245849985)"></path><path d="M947 239H997C1025 239 1047 261 1047 289H997C969 289 947 267 947 239Z " transform="matrix(-0.36976937298515883,0.019378791685034733,-0.019378791685034733,-0.36976937298515883,1370.7760658710524,342.29845915810233)"></path><path d="M163 461H213C241 461 263 483 263 511H213C185 511 163 489 163 461Z " transform="matrix(-0.09445191703860698,-0.4859129891170584,0.4859129891170584,-0.09445191703860698,-3.03545438166708,635.4030983626965)"></path><path d="M193 656H243C271 656 293 678 293 706H243C215 706 193 684 193 656Z " transform="matrix(-0.035370691895602685,-0.5058244600679973,0.5058244600679973,-0.035370691895602685,-92.87137917567469,828.0027849774287)"></path><path d="M559 623H609C637 623 659 645 659 673H609C581 673 559 651 559 623Z " transform="matrix(-0.06118694806295457,-0.4983277018951924,0.4983277018951924,-0.06118694806295457,323.34650054225466,991.1307127989667)"></path><path d="M260 422H310C338 422 360 444 360 472H310C282 472 260 450 260 422Z " transform="matrix(0.08226365543214942,-0.5193922790874399,0.5193922790874399,0.08226365543214942,52.32991806394807,571.2397525389356)"></path><path d="M1106 658H1156C1184 658 1206 680 1206 708H1156C1128 708 1106 686 1106 658Z " transform="matrix(-0.3762600058030217,-0.0065676428311831495,0.0065676428311831495,-0.3762600058030217,1586.4708666545948,947.5777790763117)"></path><path d="M208 87H258C286 87 308 109 308 137H258C230 137 208 115 208 87Z " transform="matrix(0.01801799183725377,-0.5159677779011003,0.5159677779011003,0.01801799183725377,195.5629669810653,243.10167161271144)"></path><path d="M1090 156H1140C1168 156 1190 178 1190 206H1140C1112 206 1090 184 1090 156Z " transform="matrix(-0.3729639726053394,0.006510110357712137,-0.006510110357712137,-0.3729639726053394,1566.357258744833,241.08495323377463)"></path><path d="M598 340H648C676 340 698 362 698 390H648C620 390 598 368 598 340Z " transform="matrix(-0.11863395932320589,-0.47581482212338105,0.47581482212338105,-0.11863395932320589,551.2023955664033,716.6293998889211)"></path><path d="M1069 303H1119C1147 303 1169 325 1169 353H1119C1091 353 1069 331 1069 303Z " transform="matrix(-0.36987612339827397,0.019384386237123644,-0.019384386237123644,-0.36987612339827397,1539.249460768445,427.62824027529246)"></path><path d="M749 432H799C827 432 849 454 849 482H799C771 482 749 460 749 432Z " transform="matrix(-0.35714085960898934,-0.2319299860711638,0.2319299860711638,-0.35714085960898934,978.3635431930608,805.5254317121679)"></path><path d="M424 457H474C502 457 524 479 524 507H474C446 507 424 485 424 457Z " transform="matrix(0.15746014084293591,-0.5150289139829985,0.5150289139829985,0.15746014084293591,151.11995670064306,650.2279173416462)"></path><path d="M-14 292H36C64 292 86 314 86 342H36C8 342 -14 320 -14 292Z " transform="matrix(-0.38427999270897845,-0.08871802680246642,0.08871802680246642,-0.38427999270897845,21.710465241141364,442.01060665363497)"></path><path d="M728 659H778C806 659 828 681 828 709H778C750 709 728 687 728 659Z " transform="matrix(-0.35714085960898934,-0.2319299860711638,0.2319299860711638,-0.35714085960898934,897.2154783031177,1108.7258771359143)"></path><path d="M556 95H606C634 95 656 117 656 145H606C578 145 556 123 556 95Z " transform="matrix(-0.11065807771444752,-0.47931279391479004,0.47931279391479004,-0.11065807771444752,615.5412598251804,423.7425224380965)"></path><path d="M1018 472H1068C1096 472 1118 494 1118 522H1068C1040 522 1018 500 1018 472Z " transform="matrix(-0.3676964618257159,0.025711841338381076,-0.025711841338381076,-0.3676964618257159,1473.47860637504,652.2848949779898)"></path><path d="M188 363H238C266 363 288 385 288 413H238C210 413 188 391 188 363Z " transform="matrix(-0.035370691895602685,-0.5058244600679973,0.5058244600679973,-0.035370691895602685,50.15833416477048,522.1100499516772)"></path><path d="M896 319H946C974 319 996 341 996 369H946C918 369 896 347 896 319Z " transform="matrix(-0.3785185564701776,-0.013218159258844142,0.013218159258844142,-0.3785185564701776,1299.5315076357458,486.7147620846076)"></path><path d="M1156 83H1206C1234 83 1256 105 1256 133H1206C1178 133 1156 111 1156 83Z " transform="matrix(-0.3231922855756261,0.11763237189399008,-0.11763237189399008,-0.3231922855756261,1608.4741925687558,1.0401263380155825)"></path><path d="M745 344H795C823 344 845 366 845 394H795C767 394 745 372 745 344Z " transform="matrix(-0.35714085960898934,-0.2319299860711638,0.2319299860711638,-0.35714085960898934,993.3448185288871,685.1693161222922)"></path><path d="M1221 12H1271C1299 12 1321 34 1321 62H1271C1243 62 1221 40 1221 12Z " transform="matrix(-0.3305811815738642,0.10741233709729524,-0.10741233709729524,-0.3305811815738642,1695.1429382529814,-87.28957673242928)"></path><path d="M666 484H716C744 484 766 506 766 534H716C688 534 666 512 666 484Z " transform="matrix(-0.29025959541080665,-0.34591791561577057,0.34591791561577057,-0.29025959541080665,747.7536512657103,904.4193616449923)"></path><path d="M222 272H272C300 272 322 294 322 322H272C244 322 222 300 222 272Z " transform="matrix(0.02707708876549053,-0.5166616318400736,0.5166616318400736,0.02707708876549053,111.18652719928468,429.4900684971493)"></path><path d="M516 10H566C594 10 616 32 616 60H566C538 60 516 38 516 10Z " transform="matrix(-0.11072863330497112,-0.4796184037529389,0.4796184037529389,-0.11072863330497112,611.8857623192608,310.33951868983735)"></path><path d="M1331 243H1381C1409 243 1431 265 1431 293H1381C1353 293 1331 271 1331 243Z " transform="matrix(-0.379539786517548,-0.14569167390910637,0.14569167390910637,-0.379539786517548,1866.0990765730935,570.9168644551787)"></path><path d="M841 551H891C919 551 941 573 941 601H891C863 601 841 579 841 551Z " transform="matrix(-0.3825045722977704,-0.04696565595293517,0.04696565595293517,-0.3825045722977704,1204.759356088423,838.169033097581)"></path><path d="M815 293H865C893 293 915 315 915 343H865C837 343 815 321 815 293Z " transform="matrix(-0.384944581815773,-0.08182249674426512,0.08182249674426512,-0.384944581815773,1171.9575093059673,511.1888367012051)"></path><path d="M285 648H335C363 648 385 670 385 698H335C307 698 285 676 285 648Z " transform="matrix(0.11978009847977975,-0.5188246067845463,0.5188246067845463,0.11978009847977975,-54.29529335672595,766.1942369959313)"></path><path d="M974 404H1024C1052 404 1074 426 1074 454H1024C996 454 974 432 974 404Z " transform="matrix(-0.3674653343476448,0.02569567933068702,-0.02569567933068702,-0.3674653343476448,1411.3079488048531,560.3302528005161)"></path><path d="M536 191H586C614 191 636 213 636 241H586C558 241 536 219 536 191Z " transform="matrix(-9.416608671364326e-17,-0.5126163003580861,0.5126163003580861,-9.416608671364326e-17,475.27487912265343,516.3931520098386)"></path><path d="M670 393H720C748 393 770 415 770 443H720C692 443 670 421 670 393Z " transform="matrix(-0.29025959541080665,-0.34591791561577057,0.34591791561577057,-0.29025959541080665,784.3932199683887,788.3894101250719)"></path><path d="M310 239H360C388 239 410 261 410 289H360C332 289 310 267 310 239Z " transform="matrix(0.1480455079911829,-0.5162960429142155,0.5162960429142155,0.1480455079911829,170.40146179382128,410.7825613394453)"></path></g></svg>