<svg xmlns="http://www.w3.org/2000/svg" xmlns:xlink="http://www.w3.org/1999/xlink" width="500" zoomAndPan="magnify" viewBox="0 0 375 374.999991" height="500" preserveAspectRatio="xMidYMid meet" version="1.0"><defs><g/><clipPath id="c31ac18b6a"><path d="M 43.5 140 L 331.5 140 L 331.5 214 L 43.5 214 Z M 43.5 140 " clip-rule="nonzero"/></clipPath><clipPath id="419d41b5b4"><path d="M 267 82.25 L 317 82.25 L 317 132 L 267 132 Z M 267 82.25 " clip-rule="nonzero"/></clipPath></defs><path fill="#ffffff" d="M 84.726562 168.953125 C 84.636719 170.960938 84.582031 172.984375 84.609375 175.007812 C 84.175781 175.832031 83.773438 176.671875 83.410156 177.511719 C 83.726562 174.621094 84.175781 171.757812 84.726562 168.953125 Z M 125.984375 105.5625 C 124.148438 107.613281 122.488281 109.898438 120.972656 112.386719 C 117.523438 114.121094 114.34375 116 111.457031 118.027344 C 115.890625 113.441406 120.757812 109.25 125.984375 105.5625 Z M 258.023438 118.011719 C 255.136719 115.988281 251.945312 114.09375 248.492188 112.371094 C 246.976562 109.855469 245.285156 107.558594 243.4375 105.488281 C 248.175781 108.828125 252.667969 112.589844 256.839844 116.769531 C 257.242188 117.15625 257.632812 117.59375 258.023438 118.011719 Z M 284.871094 174.996094 C 284.914062 172.941406 284.855469 170.917969 284.753906 168.894531 C 285.304688 171.699219 285.722656 174.519531 286.039062 177.382812 C 285.695312 176.585938 285.304688 175.777344 284.871094 174.996094 Z M 284.464844 210.304688 C 284.25 206.445312 283.167969 202.683594 281.261719 199.027344 C 283.167969 192.304688 284.335938 185.464844 284.726562 178.625 C 285.75 181.082031 286.371094 183.585938 286.648438 186.113281 C 286.660156 187.054688 286.703125 188.007812 286.703125 188.960938 C 286.703125 196.222656 285.9375 203.363281 284.464844 210.304688 Z M 254.542969 263.339844 C 254.789062 262.980469 255.003906 262.605469 255.222656 262.226562 C 256.03125 261.621094 256.8125 260.984375 257.605469 260.347656 C 257.34375 260.609375 257.097656 260.898438 256.839844 261.15625 C 256.089844 261.910156 255.308594 262.617188 254.542969 263.339844 Z M 111.816406 260.289062 C 112.613281 260.941406 113.40625 261.59375 114.214844 262.199219 C 114.429688 262.574219 114.664062 262.949219 114.90625 263.328125 C 114.140625 262.605469 113.375 261.894531 112.625 261.15625 C 112.351562 260.867188 112.089844 260.578125 111.816406 260.289062 Z M 94.847656 164.902344 C 94.933594 171.554688 95.773438 178.378906 97.417969 185.347656 C 97.550781 185.867188 97.679688 186.390625 97.808594 186.910156 C 96.882812 187.71875 96.003906 188.542969 95.167969 189.382812 C 92.625 191.925781 90.53125 194.558594 88.914062 197.234375 C 87.078125 190.367188 86.039062 183.394531 85.808594 176.414062 C 87.871094 172.363281 90.921875 168.503906 94.847656 164.902344 Z M 89.214844 153.21875 C 91.195312 149.402344 94.070312 145.789062 97.722656 142.433594 C 95.886719 148.910156 94.921875 155.691406 94.832031 162.675781 C 93.835938 163.542969 92.882812 164.425781 91.988281 165.308594 C 89.476562 167.835938 87.410156 170.410156 85.75 173.058594 C 85.765625 169.066406 86.054688 165.089844 86.601562 161.144531 C 87.367188 158.453125 88.25 155.808594 89.214844 153.21875 Z M 104.769531 125.6875 C 104.078125 126.890625 103.414062 128.117188 102.792969 129.363281 C 102.011719 130.042969 101.261719 130.707031 100.554688 131.414062 C 101.894531 129.449219 103.296875 127.523438 104.769531 125.6875 Z M 117.160156 119.949219 C 112.582031 122.277344 108.511719 124.820312 105 127.554688 C 106.113281 125.515625 107.339844 123.519531 108.65625 121.566406 C 111.917969 118.894531 115.703125 116.421875 119.90625 114.207031 C 118.90625 116.03125 117.984375 117.9375 117.160156 119.949219 Z M 139.011719 106.574219 C 138.144531 108.382812 137.363281 110.320312 136.671875 112.359375 C 133.753906 113.210938 130.921875 114.152344 128.179688 115.164062 C 124.828125 116.421875 121.695312 117.75 118.75 119.183594 C 119.660156 117.085938 120.667969 115.105469 121.78125 113.238281 C 126.964844 110.664062 132.757812 108.425781 139.011719 106.574219 Z M 131.082031 102.164062 C 132.570312 101.238281 134.070312 100.355469 135.601562 99.519531 C 139.023438 97.941406 142.738281 96.539062 146.664062 95.339844 C 143.949219 98.113281 141.625 101.398438 139.675781 105.199219 C 133.636719 106.949219 127.992188 109.046875 122.894531 111.445312 C 125.246094 107.859375 127.992188 104.753906 131.082031 102.164062 Z M 148.441406 93.632812 C 148.179688 93.691406 147.921875 93.761719 147.660156 93.851562 C 147.980469 93.71875 148.296875 93.605469 148.613281 93.488281 C 148.554688 93.53125 148.5 93.574219 148.441406 93.632812 Z M 165.902344 90.046875 C 160.671875 90.726562 155.632812 91.710938 150.851562 92.96875 C 150.882812 92.867188 150.894531 92.75 150.882812 92.648438 C 156.167969 90.785156 161.640625 89.339844 167.289062 88.371094 C 166.796875 88.875 166.335938 89.441406 165.902344 90.046875 Z M 218.628906 92.9375 C 213.847656 91.679688 208.808594 90.699219 203.566406 90.019531 C 203.144531 89.425781 202.699219 88.875 202.222656 88.371094 C 207.808594 89.339844 213.296875 90.742188 218.613281 92.605469 C 218.582031 92.722656 218.582031 92.824219 218.628906 92.9375 Z M 220.980469 93.574219 C 220.9375 93.53125 220.878906 93.488281 220.824219 93.429688 C 221.140625 93.558594 221.472656 93.675781 221.789062 93.804688 C 221.53125 93.734375 221.253906 93.648438 220.980469 93.574219 Z M 250.730469 119.152344 C 247.785156 117.738281 244.652344 116.390625 241.316406 115.148438 C 238.554688 114.136719 235.726562 113.195312 232.824219 112.34375 C 232.128906 110.304688 231.335938 108.382812 230.46875 106.546875 C 236.722656 108.410156 242.511719 110.636719 247.683594 113.226562 C 248.808594 115.089844 249.820312 117.070312 250.730469 119.152344 Z M 260.796875 121.523438 C 262.125 123.476562 263.351562 125.472656 264.464844 127.511719 C 260.957031 124.792969 256.898438 122.246094 252.320312 119.933594 C 251.496094 117.925781 250.570312 116 249.5625 114.179688 C 253.761719 116.40625 257.53125 118.851562 260.796875 121.523438 Z M 266.660156 129.316406 C 266.039062 128.046875 265.359375 126.800781 264.652344 125.558594 C 266.167969 127.480469 267.628906 129.433594 269 131.429688 C 268.25 130.722656 267.46875 129.996094 266.660156 129.316406 Z M 277.519531 165.308594 C 276.609375 164.410156 275.65625 163.542969 274.660156 162.660156 C 274.558594 155.605469 273.578125 148.765625 271.714844 142.230469 C 275.367188 145.613281 278.242188 149.257812 280.25 153.117188 C 281.246094 155.777344 282.125 158.484375 282.890625 161.230469 C 283.441406 165.148438 283.714844 169.082031 283.730469 173.042969 C 282.082031 170.398438 280.019531 167.824219 277.519531 165.308594 Z M 273.996094 189.382812 C 273.246094 188.617188 272.4375 187.878906 271.613281 187.15625 C 271.773438 186.546875 271.929688 185.941406 272.0625 185.347656 C 273.722656 178.378906 274.558594 171.554688 274.632812 164.917969 C 275.210938 165.4375 275.773438 165.972656 276.308594 166.523438 C 279.5 169.703125 281.953125 173.015625 283.6875 176.398438 C 283.457031 183.496094 282.371094 190.609375 280.464844 197.609375 C 278.820312 194.789062 276.652344 192.042969 273.996094 189.382812 Z M 276.261719 209.84375 C 274.703125 207.210938 272.667969 204.664062 270.199219 202.179688 C 269.359375 201.355469 268.492188 200.558594 267.585938 199.75 C 269.027344 195.976562 270.285156 192.1875 271.308594 188.382812 C 271.945312 188.976562 272.582031 189.570312 273.203125 190.175781 C 276.105469 193.082031 278.386719 196.089844 280.046875 199.15625 C 279.007812 202.757812 277.738281 206.328125 276.261719 209.84375 Z M 283.296875 213.804688 C 282.328125 216.40625 281.273438 218.894531 280.132812 221.292969 C 279.800781 217.808594 278.746094 214.398438 276.957031 211.070312 C 278.445312 207.628906 279.730469 204.160156 280.796875 200.632812 C 282.515625 204.261719 283.382812 207.992188 283.382812 211.792969 C 283.382812 212.460938 283.355469 213.140625 283.296875 213.804688 Z M 280.234375 223.652344 C 280.753906 222.636719 281.246094 221.597656 281.738281 220.542969 C 281.246094 222.03125 280.742188 223.492188 280.191406 224.964844 C 280.21875 224.519531 280.234375 224.097656 280.234375 223.652344 Z M 235.8125 271.597656 C 236.507812 269.949219 236.867188 268.273438 236.925781 266.535156 C 243.554688 263.082031 250.441406 258.640625 256.984375 253.046875 C 256.796875 255.894531 255.902344 258.714844 254.371094 261.445312 C 248.621094 265.683594 242.269531 269.039062 235.8125 271.597656 Z M 225.921875 282.382812 C 225.832031 282.414062 225.746094 282.457031 225.660156 282.472656 C 227.148438 281.515625 228.519531 280.535156 229.746094 279.476562 C 231.839844 278.855469 233.921875 278.105469 235.941406 277.28125 C 232.691406 279.160156 229.355469 280.867188 225.921875 282.382812 Z M 139.617188 279.433594 C 140.800781 280.476562 142.128906 281.457031 143.574219 282.382812 C 143.546875 282.382812 143.515625 282.371094 143.488281 282.355469 C 140.078125 280.851562 136.730469 279.144531 133.492188 277.25 C 135.488281 278.074219 137.539062 278.8125 139.617188 279.433594 Z M 112.496094 253.046875 C 119.039062 258.628906 125.925781 263.066406 132.554688 266.523438 C 132.597656 268.242188 132.960938 269.933594 133.636719 271.582031 C 127.199219 269.007812 120.84375 265.667969 115.09375 261.433594 C 113.566406 258.699219 112.667969 255.878906 112.496094 253.046875 Z M 89.230469 223.605469 C 89.230469 224.054688 89.257812 224.488281 89.273438 224.953125 C 88.710938 223.449219 88.191406 221.945312 87.699219 220.425781 C 88.191406 221.511719 88.695312 222.582031 89.230469 223.605469 Z M 101.894531 199.734375 C 100.984375 200.542969 100.105469 201.339844 99.28125 202.179688 C 96.796875 204.652344 94.789062 207.210938 93.230469 209.8125 C 91.699219 206.183594 90.398438 202.496094 89.332031 198.765625 C 91.425781 195.019531 94.402344 191.464844 98.125 188.136719 C 99.152344 192.015625 100.421875 195.890625 101.894531 199.734375 Z M 114.199219 177.496094 C 115.007812 181.558594 115.992188 185.652344 117.144531 189.730469 C 111.703125 192.460938 106.878906 195.554688 102.820312 198.953125 C 101.347656 195.078125 100.089844 191.191406 99.078125 187.316406 C 103.28125 183.714844 108.367188 180.433594 114.199219 177.496094 Z M 113.59375 131.644531 C 112.410156 137.113281 111.703125 143.011719 111.570312 149.328125 C 111.542969 150.125 111.558594 150.921875 111.558594 151.714844 C 105.652344 154.664062 100.410156 158.003906 96.003906 161.679688 C 96.191406 154.507812 97.304688 147.582031 99.355469 140.972656 C 103.355469 137.574219 108.148438 134.453125 113.59375 131.644531 Z M 113.925781 130.113281 C 108.625 132.804688 103.945312 135.765625 99.988281 138.949219 C 101.042969 135.898438 102.285156 132.917969 103.730469 130.011719 C 107.371094 126.890625 111.703125 124.027344 116.597656 121.453125 C 115.558594 124.183594 114.648438 127.078125 113.925781 130.113281 Z M 134.085938 122.277344 C 129.941406 123.492188 125.957031 124.863281 122.199219 126.367188 C 119.789062 127.351562 117.476562 128.378906 115.269531 129.449219 C 116.046875 126.367188 116.988281 123.417969 118.097656 120.671875 C 123.53125 117.9375 129.636719 115.566406 136.238281 113.601562 C 135.386719 116.304688 134.648438 119.195312 134.085938 122.277344 Z M 159.429688 108.640625 C 158.984375 111.359375 158.609375 114.207031 158.332031 117.144531 C 150.289062 118.257812 142.550781 119.847656 135.300781 121.914062 C 135.90625 118.804688 136.65625 115.914062 137.566406 113.210938 C 144.382812 111.246094 151.71875 109.710938 159.429688 108.640625 Z M 160.816406 101.933594 C 160.371094 103.695312 159.980469 105.546875 159.617188 107.5 C 152.09375 108.527344 144.832031 110.015625 138 111.953125 C 138.734375 109.898438 139.546875 107.960938 140.453125 106.140625 C 146.824219 104.332031 153.667969 102.914062 160.816406 101.933594 Z M 184.167969 99.199219 C 176.675781 99.214844 169.324219 99.691406 162.289062 100.585938 C 163.402344 96.757812 164.804688 93.53125 166.480469 91.117188 C 172.210938 90.363281 178.132812 89.976562 184.167969 89.945312 Z M 207.203125 100.585938 C 200.15625 99.691406 192.804688 99.214844 185.296875 99.199219 L 185.296875 89.945312 C 191.363281 89.960938 197.28125 90.351562 202.972656 91.074219 C 204.675781 93.503906 206.0625 96.726562 207.203125 100.585938 Z M 209.859375 107.484375 C 209.515625 105.546875 209.125 103.683594 208.664062 101.917969 C 215.824219 102.902344 222.65625 104.316406 229.023438 106.125 C 229.933594 107.949219 230.757812 109.898438 231.496094 111.953125 C 224.648438 110 217.398438 108.511719 209.859375 107.484375 Z M 234.179688 121.871094 C 226.988281 119.832031 219.261719 118.226562 211.160156 117.113281 C 210.871094 114.179688 210.511719 111.34375 210.050781 108.640625 C 217.773438 109.695312 225.113281 111.246094 231.929688 113.195312 C 232.824219 115.898438 233.574219 118.777344 234.179688 121.871094 Z M 254.210938 129.375 C 248.535156 126.628906 242.226562 124.230469 235.394531 122.234375 C 234.816406 119.152344 234.109375 116.289062 233.242188 113.585938 C 239.855469 115.566406 245.949219 117.925781 251.378906 120.644531 C 252.492188 123.390625 253.429688 126.3125 254.210938 129.375 Z M 255.554688 130.027344 C 254.816406 127.003906 253.921875 124.140625 252.882812 121.4375 C 257.777344 123.996094 262.097656 126.859375 265.734375 129.984375 C 267.164062 132.847656 268.421875 135.808594 269.460938 138.832031 C 265.476562 135.636719 260.796875 132.671875 255.554688 130.027344 Z M 257.9375 151.703125 C 257.9375 150.921875 257.9375 150.125 257.921875 149.328125 C 257.777344 142.9375 257.070312 136.953125 255.859375 131.429688 C 261.289062 134.21875 266.082031 137.359375 270.066406 140.769531 C 272.148438 147.449219 273.304688 154.433594 273.492188 161.664062 C 269.070312 158.003906 263.84375 154.664062 257.9375 151.703125 Z M 252.332031 189.730469 C 253.488281 185.695312 254.457031 181.660156 255.25 177.65625 C 261.101562 180.621094 266.167969 183.929688 270.34375 187.546875 C 269.347656 191.347656 268.117188 195.179688 266.675781 198.96875 C 262.601562 195.554688 257.777344 192.476562 252.332031 189.730469 Z M 261.765625 210.1875 C 257.980469 207.023438 253.503906 204.144531 248.449219 201.601562 C 249.777344 198.027344 250.960938 194.441406 252.015625 190.828125 C 257.445312 193.574219 262.226562 196.667969 266.242188 200.082031 C 264.914062 203.480469 263.425781 206.847656 261.765625 210.1875 Z M 270.933594 220.671875 C 269.445312 218.128906 267.496094 215.640625 265.085938 213.210938 C 264.320312 212.445312 263.484375 211.691406 262.644531 210.957031 C 264.320312 207.628906 265.808594 204.261719 267.152344 200.878906 C 267.917969 201.570312 268.683594 202.265625 269.390625 202.972656 C 272.03125 205.632812 274.125 208.351562 275.699219 211.15625 C 274.285156 214.367188 272.710938 217.550781 270.933594 220.671875 Z M 212.144531 274.402344 C 212.054688 273.550781 211.824219 272.695312 211.449219 271.859375 C 219.652344 268.691406 227.320312 264.832031 234.382812 260.320312 C 235.277344 262.113281 235.742188 263.964844 235.785156 265.855469 C 226.917969 270.410156 218.539062 273.160156 212.144531 274.402344 Z M 211.722656 277.773438 C 211.984375 277.0625 212.128906 276.3125 212.171875 275.558594 C 218.539062 274.316406 226.875 271.625 235.753906 267.128906 C 235.625 268.835938 235.148438 270.527344 234.339844 272.160156 C 226.554688 275.097656 218.726562 276.933594 211.722656 277.773438 Z M 205.976562 284.191406 C 206.972656 283.570312 207.867188 282.890625 208.648438 282.183594 C 214.484375 282.570312 220.808594 281.863281 227.046875 280.246094 C 225.34375 281.488281 223.40625 282.660156 221.3125 283.714844 C 216.488281 284.886719 212.605469 284.914062 205.976562 284.191406 Z M 171.011719 287.417969 C 175.101562 288.601562 179.808594 289.28125 184.734375 289.28125 C 187.171875 289.28125 189.527344 289.121094 191.765625 288.832031 C 192.515625 289.570312 193.296875 290.179688 194.089844 290.625 C 191 290.902344 187.882812 291.058594 184.734375 291.058594 C 177.828125 291.058594 171.027344 290.367188 164.398438 289.035156 C 166.710938 288.832031 168.847656 288.296875 171.011719 287.417969 Z M 160.875 282.183594 C 161.65625 282.890625 162.550781 283.570312 163.546875 284.191406 C 156.875 284.914062 152.988281 284.886719 148.136719 283.699219 C 146.042969 282.644531 144.121094 281.488281 142.417969 280.230469 C 148.671875 281.863281 155.027344 282.570312 160.875 282.183594 Z M 157.308594 275.558594 C 157.351562 276.296875 157.496094 277.046875 157.757812 277.773438 C 150.75 276.917969 142.910156 275.097656 135.125 272.148438 C 134.316406 270.511719 133.839844 268.835938 133.726562 267.128906 C 142.59375 271.613281 150.925781 274.316406 157.308594 275.558594 Z M 135.082031 260.289062 C 142.160156 264.832031 149.828125 268.691406 158.03125 271.84375 C 157.640625 272.683594 157.410156 273.535156 157.324219 274.402344 C 150.925781 273.144531 142.5625 270.398438 133.683594 265.84375 C 133.726562 263.933594 134.214844 262.082031 135.082031 260.289062 Z M 97.910156 221.800781 C 96.25 224.921875 95.28125 228.132812 95.023438 231.429688 C 93.359375 228.855469 91.800781 226.195312 90.371094 223.363281 C 90.414062 219.601562 91.351562 215.945312 93.101562 212.429688 C 94.53125 215.609375 96.132812 218.734375 97.910156 221.800781 Z M 106.847656 210.941406 C 105.984375 211.691406 105.160156 212.445312 104.378906 213.210938 C 101.984375 215.625 100.03125 218.113281 98.546875 220.65625 C 96.785156 217.535156 95.195312 214.367188 93.792969 211.15625 C 95.816406 207.527344 98.703125 204.085938 102.328125 200.878906 C 103.671875 204.246094 105.175781 207.617188 106.847656 210.941406 Z M 121.046875 201.585938 C 115.976562 204.128906 111.5 207.007812 107.714844 210.175781 C 106.054688 206.847656 104.566406 203.464844 103.238281 200.082031 C 107.210938 196.726562 112.003906 193.632812 117.476562 190.871094 C 118.53125 194.457031 119.714844 198.042969 121.046875 201.585938 Z M 137.132812 183.28125 C 137.914062 186.9375 138.792969 190.640625 139.777344 194.355469 C 133.335938 196.222656 127.398438 198.476562 122.054688 201.078125 C 120.742188 197.523438 119.558594 193.953125 118.503906 190.367188 C 124.078125 187.648438 130.347656 185.261719 137.132812 183.28125 Z M 134.589844 169.601562 C 135.226562 173.707031 135.976562 177.886719 136.875 182.125 C 130.101562 184.089844 123.816406 186.460938 118.1875 189.222656 C 117.03125 185.132812 116.046875 181.039062 115.238281 176.976562 C 121.046875 174.140625 127.542969 171.65625 134.589844 169.601562 Z M 132.410156 145.46875 C 132.554688 152.699219 133.234375 160.40625 134.417969 168.429688 C 127.386719 170.46875 120.871094 172.925781 115.007812 175.789062 C 113.535156 168.039062 112.757812 160.40625 112.667969 153.074219 C 118.574219 150.152344 125.203125 147.609375 132.410156 145.46875 Z M 132.800781 131.804688 C 132.46875 135.578125 132.339844 139.554688 132.367188 143.675781 C 125.261719 145.757812 118.648438 148.273438 112.683594 151.152344 C 112.683594 150.558594 112.683594 149.953125 112.699219 149.359375 C 112.84375 142.78125 113.59375 136.621094 114.894531 130.980469 C 120.597656 128.160156 126.953125 125.675781 133.855469 123.59375 C 133.40625 126.210938 133.046875 128.929688 132.800781 131.804688 Z M 157.480469 138.414062 C 149.046875 139.554688 141.003906 141.21875 133.492188 143.34375 C 133.464844 139.425781 133.609375 135.59375 133.925781 131.890625 C 134.1875 128.871094 134.578125 125.976562 135.054688 123.261719 C 142.289062 121.132812 150.074219 119.472656 158.21875 118.328125 C 157.65625 124.808594 157.4375 131.691406 157.480469 138.414062 Z M 184.167969 116.476562 L 184.167969 136.621094 C 175.332031 136.648438 166.695312 137.226562 158.40625 138.296875 C 158.390625 131.125 158.652344 124.34375 159.214844 118.183594 C 167.242188 117.113281 175.605469 116.523438 184.167969 116.476562 Z M 184.167969 106.949219 L 184.167969 115.351562 C 175.75 115.378906 167.402344 115.945312 159.328125 117 C 159.632812 114.019531 160.007812 111.15625 160.484375 108.511719 C 168.066406 107.515625 176.011719 106.980469 184.167969 106.949219 Z M 184.167969 105.808594 C 176.140625 105.835938 168.285156 106.355469 160.6875 107.339844 C 161.0625 105.386719 161.480469 103.523438 161.945312 101.789062 C 169.09375 100.847656 176.542969 100.355469 184.167969 100.328125 Z M 185.296875 105.808594 L 185.296875 100.328125 C 192.9375 100.355469 200.386719 100.847656 207.535156 101.773438 C 208.011719 103.507812 208.417969 105.375 208.792969 107.339844 C 201.195312 106.355469 193.324219 105.835938 185.296875 105.808594 Z M 185.296875 115.351562 L 185.296875 106.949219 C 193.46875 106.964844 201.414062 107.5 209.007812 108.496094 C 209.472656 111.15625 209.847656 113.992188 210.148438 116.96875 C 202.191406 115.929688 193.84375 115.378906 185.296875 115.351562 Z M 211.074219 138.296875 C 202.800781 137.214844 194.148438 136.632812 185.296875 136.621094 L 185.296875 116.476562 C 193.902344 116.507812 202.265625 117.085938 210.265625 118.125 C 210.84375 124.300781 211.101562 131.109375 211.074219 138.296875 Z M 235.566406 131.890625 C 235.886719 135.59375 236.015625 139.425781 235.984375 143.34375 C 228.492188 141.21875 220.445312 139.554688 212.011719 138.414062 C 212.042969 131.660156 211.839844 124.761719 211.261719 118.257812 C 219.4375 119.386719 227.191406 121.019531 234.398438 123.085938 C 234.902344 125.878906 235.292969 128.8125 235.566406 131.890625 Z M 237.113281 143.675781 C 237.15625 139.554688 237.011719 135.578125 236.695312 131.804688 C 236.433594 128.882812 236.074219 126.109375 235.609375 123.433594 C 242.511719 125.488281 248.867188 127.945312 254.558594 130.765625 C 255.871094 136.476562 256.636719 142.691406 256.796875 149.359375 C 256.8125 149.953125 256.796875 150.558594 256.8125 151.152344 C 250.847656 148.261719 244.230469 145.757812 237.113281 143.675781 Z M 235.046875 168.53125 C 236.261719 160.449219 236.9375 152.699219 237.082031 145.410156 C 244.246094 147.535156 250.875 150.097656 256.8125 153.046875 C 256.738281 160.421875 255.929688 168.128906 254.457031 175.933594 C 248.609375 173.058594 242.082031 170.585938 235.046875 168.53125 Z M 232.605469 182.136719 C 233.503906 177.929688 234.238281 173.796875 234.875 169.730469 C 235.726562 169.976562 236.59375 170.210938 237.445312 170.46875 C 243.539062 172.390625 249.140625 174.621094 254.210938 177.121094 C 253.417969 181.140625 252.449219 185.1875 251.308594 189.222656 C 245.660156 186.476562 239.394531 184.089844 232.605469 182.136719 Z M 229.71875 194.355469 C 230.699219 190.625 231.582031 186.910156 232.359375 183.238281 C 239.132812 185.1875 245.386719 187.574219 250.992188 190.320312 C 249.9375 193.921875 248.753906 197.523438 247.4375 201.09375 C 242.09375 198.492188 236.144531 196.222656 229.71875 194.355469 Z M 243.597656 210.578125 C 241.316406 215.726562 238.800781 220.699219 236.058594 225.488281 C 231.726562 223.363281 226.902344 221.523438 221.6875 220.007812 C 223.234375 215.828125 224.707031 211.519531 226.078125 207.125 C 227.292969 203.207031 228.417969 199.316406 229.445312 195.46875 C 235.828125 197.304688 241.734375 199.546875 247.046875 202.148438 C 245.964844 204.984375 244.839844 207.804688 243.597656 210.578125 Z M 247.582031 232.804688 C 244.578125 230.300781 241.039062 228.015625 237.070312 225.992188 C 239.8125 221.191406 242.339844 216.203125 244.636719 211.042969 C 245.863281 208.265625 247.003906 205.476562 248.058594 202.65625 C 253.070312 205.199219 257.503906 208.0625 261.230469 211.214844 C 257.460938 218.632812 252.882812 225.878906 247.582031 232.804688 Z M 250.398438 235.363281 C 249.777344 234.742188 249.113281 234.132812 248.433594 233.539062 C 253.734375 226.628906 258.328125 219.398438 262.109375 211.980469 C 262.863281 212.660156 263.597656 213.328125 264.277344 214.019531 C 266.804688 216.550781 268.796875 219.140625 270.269531 221.800781 C 269.878906 222.480469 269.492188 223.160156 269.085938 223.824219 C 265.113281 230.257812 260.492188 236.230469 255.308594 241.695312 C 254.066406 239.511719 252.433594 237.414062 250.398438 235.363281 Z M 231.394531 254.332031 C 231.003906 253.957031 230.585938 253.582031 230.167969 253.21875 C 236.363281 247.710938 242.226562 241.480469 247.523438 234.742188 C 247.597656 234.640625 247.667969 234.523438 247.742188 234.4375 C 248.390625 235 249.011719 235.578125 249.589844 236.15625 C 251.65625 238.226562 253.273438 240.367188 254.484375 242.550781 C 248.636719 248.578125 242.035156 253.972656 234.800781 258.683594 C 233.933594 257.195312 232.792969 255.75 231.394531 254.332031 Z M 209.167969 268.632812 C 209.082031 268.546875 209.007812 268.488281 208.921875 268.417969 C 215.867188 264.613281 222.757812 259.699219 229.3125 253.972656 C 229.761719 254.347656 230.195312 254.738281 230.597656 255.144531 C 231.941406 256.503906 233.027344 257.890625 233.863281 259.308594 C 226.785156 263.832031 219.117188 267.695312 210.914062 270.847656 C 210.453125 270.078125 209.875 269.34375 209.167969 268.632812 Z M 140.136719 253.941406 C 146.707031 259.683594 153.609375 264.597656 160.558594 268.402344 C 160.472656 268.488281 160.382812 268.546875 160.3125 268.632812 C 159.605469 269.34375 159.027344 270.078125 158.550781 270.847656 C 150.347656 267.695312 142.691406 263.820312 135.617188 259.308594 C 136.714844 257.414062 138.246094 255.621094 140.136719 253.941406 Z M 121.722656 234.421875 C 121.8125 234.523438 121.882812 234.640625 121.96875 234.742188 C 127.253906 241.480469 133.117188 247.710938 139.3125 253.207031 C 138.894531 253.582031 138.476562 253.957031 138.070312 254.332031 C 136.671875 255.734375 135.53125 257.195312 134.664062 258.683594 C 127.441406 253.972656 120.84375 248.5625 114.996094 242.550781 C 116.570312 239.6875 118.851562 236.953125 121.722656 234.421875 Z M 121.046875 233.527344 C 120.367188 234.121094 119.703125 234.742188 119.082031 235.363281 C 117.03125 237.402344 115.414062 239.511719 114.171875 241.667969 C 108.972656 236.214844 104.367188 230.257812 100.410156 223.824219 C 99.988281 223.160156 99.613281 222.480469 99.210938 221.800781 C 101.128906 218.328125 103.890625 215.046875 107.371094 211.980469 C 111.167969 219.386719 115.746094 226.613281 121.046875 233.527344 Z M 124.859375 211.042969 C 127.140625 216.191406 129.667969 221.179688 132.410156 225.980469 C 128.4375 228.015625 124.902344 230.300781 121.910156 232.789062 C 116.613281 225.878906 112.019531 218.632812 108.25 211.214844 C 111.945312 208.105469 116.378906 205.242188 121.433594 202.699219 C 122.503906 205.503906 123.644531 208.28125 124.859375 211.042969 Z M 143.414062 207.125 C 144.789062 211.519531 146.261719 215.828125 147.792969 220.007812 C 142.578125 221.511719 137.753906 223.363281 133.421875 225.488281 C 130.691406 220.699219 128.164062 215.726562 125.882812 210.578125 C 124.65625 207.816406 123.53125 205.011719 122.460938 202.179688 C 127.730469 199.621094 133.636719 197.363281 140.066406 195.511719 C 141.089844 199.34375 142.1875 203.234375 143.414062 207.125 Z M 161.308594 191.074219 C 162.449219 199.820312 163.777344 208.351562 165.25 216.347656 C 159.546875 217.128906 154.101562 218.242188 149.003906 219.660156 C 146.128906 211.910156 143.488281 203.652344 141.234375 195.179688 C 147.488281 193.417969 154.21875 192.042969 161.308594 191.074219 Z M 159.835938 178.550781 C 160.226562 182.355469 160.671875 186.171875 161.148438 189.929688 C 154.058594 190.886719 147.269531 192.257812 140.929688 194.039062 C 139.964844 190.378906 139.082031 186.679688 138.289062 182.960938 C 144.988281 181.082031 152.226562 179.578125 159.835938 178.550781 Z M 158.566406 164.585938 C 158.765625 167.230469 158.96875 169.660156 159.171875 171.800781 C 159.328125 173.664062 159.519531 175.542969 159.71875 177.410156 C 152.09375 178.421875 144.816406 179.910156 138.027344 181.804688 C 137.148438 177.625 136.367188 173.449219 135.734375 169.269531 C 142.835938 167.257812 150.507812 165.683594 158.566406 164.585938 Z M 158.492188 163.457031 C 150.433594 164.527344 142.738281 166.089844 135.558594 168.113281 C 134.375 160.304688 133.652344 152.570312 133.523438 145.136719 C 140.960938 142.996094 149.003906 141.304688 157.496094 140.148438 C 157.566406 148.550781 158 156.675781 158.492188 163.457031 Z M 184.167969 161.734375 C 175.679688 161.75 167.375 162.300781 159.402344 163.328125 C 158.824219 155.332031 158.476562 147.480469 158.421875 140.019531 C 166.636719 138.917969 175.273438 138.355469 184.167969 138.328125 Z M 210.078125 163.371094 C 202.121094 162.328125 193.800781 161.765625 185.296875 161.734375 L 185.296875 138.328125 C 194.148438 138.339844 202.800781 138.917969 211.074219 140.003906 C 211.015625 147.480469 210.667969 155.34375 210.078125 163.371094 Z M 211.003906 163.484375 C 211.492188 156.691406 211.910156 148.5625 212 140.121094 C 220.433594 141.261719 228.476562 142.9375 235.972656 145.09375 C 235.828125 152.554688 235.105469 160.347656 233.921875 168.199219 C 226.757812 166.160156 219.058594 164.570312 211.003906 163.484375 Z M 209.773438 177.410156 C 209.960938 175.542969 210.148438 173.664062 210.324219 171.800781 C 210.511719 169.675781 210.714844 167.273438 210.914062 164.640625 C 218.871094 165.726562 226.542969 167.332031 233.746094 169.398438 C 233.097656 173.535156 232.332031 177.671875 231.453125 181.804688 C 224.664062 179.910156 217.386719 178.421875 209.773438 177.410156 Z M 208.332031 189.929688 C 208.808594 186.15625 209.253906 182.355469 209.660156 178.523438 C 217.226562 179.550781 224.476562 181.011719 231.21875 182.90625 C 230.410156 186.648438 229.53125 190.367188 228.5625 194.039062 C 222.207031 192.257812 215.4375 190.886719 208.332031 189.929688 Z M 204.230469 216.347656 C 205.703125 208.339844 207.046875 199.808594 208.1875 191.058594 C 215.234375 192.015625 221.976562 193.371094 228.273438 195.136719 C 226.007812 203.625 223.347656 211.910156 220.488281 219.675781 C 215.390625 218.242188 209.933594 217.128906 204.230469 216.347656 Z M 210.324219 243.230469 C 206.726562 242.230469 202.886719 241.421875 198.871094 240.855469 C 200.691406 233.972656 202.4375 226.035156 204.042969 217.460938 C 209.671875 218.226562 215.058594 219.328125 220.101562 220.730469 C 217.023438 228.972656 213.6875 236.589844 210.324219 243.230469 Z M 221.054688 247.261719 C 218.152344 245.84375 214.960938 244.617188 211.507812 243.574219 C 214.914062 236.867188 218.238281 229.246094 221.300781 221.0625 C 226.453125 222.550781 231.234375 224.375 235.507812 226.46875 C 231.207031 233.902344 226.351562 240.855469 221.054688 247.261719 Z M 222.078125 247.78125 C 227.363281 241.378906 232.214844 234.410156 236.519531 226.976562 C 240.449219 228.972656 243.929688 231.242188 246.890625 233.699219 C 246.800781 233.816406 246.714844 233.917969 246.628906 234.03125 C 241.34375 240.769531 235.480469 246.988281 229.3125 252.46875 C 227.234375 250.746094 224.808594 249.171875 222.078125 247.78125 Z M 210.988281 244.601562 C 214.351562 245.601562 217.484375 246.769531 220.300781 248.128906 C 215.148438 254.261719 209.558594 259.871094 203.609375 264.832031 C 202.25 264.179688 200.761719 263.585938 199.175781 263.09375 C 203.03125 258.554688 207.058594 252.191406 210.988281 244.601562 Z M 198.582031 241.96875 C 202.511719 242.503906 206.28125 243.285156 209.804688 244.269531 C 205.804688 252.035156 201.757812 258.382812 197.988281 262.75 C 196.011719 262.199219 193.902344 261.765625 191.707031 261.476562 C 193.976562 257.09375 196.316406 250.34375 198.582031 241.96875 Z M 185.296875 241.046875 C 189.5 241.058594 193.601562 241.335938 197.542969 241.824219 C 195.246094 250.210938 192.847656 256.964844 190.496094 261.332031 C 188.820312 261.144531 187.074219 261.042969 185.296875 261.027344 Z M 178.984375 261.332031 C 176.632812 256.964844 174.234375 250.210938 171.953125 241.824219 C 175.851562 241.320312 179.953125 241.058594 184.167969 241.03125 L 184.167969 261.027344 C 182.40625 261.042969 180.660156 261.144531 178.984375 261.332031 Z M 171.503906 262.75 C 167.734375 258.382812 163.691406 252.035156 159.691406 244.269531 C 163.199219 243.300781 166.957031 242.519531 170.914062 241.96875 C 173.164062 250.355469 175.503906 257.09375 177.785156 261.476562 C 175.578125 261.75 173.46875 262.183594 171.503906 262.75 Z M 165.886719 264.832031 C 159.9375 259.871094 154.347656 254.261719 149.175781 248.144531 C 152.007812 246.800781 155.128906 245.613281 158.507812 244.601562 C 162.433594 252.191406 166.464844 258.554688 170.304688 263.082031 C 168.71875 263.585938 167.230469 264.164062 165.886719 264.832031 Z M 147.402344 247.769531 C 144.6875 249.171875 142.246094 250.746094 140.167969 252.453125 C 134 246.972656 128.136719 240.769531 122.863281 234.03125 C 122.765625 233.917969 122.675781 233.800781 122.589844 233.683594 C 125.523438 231.257812 129.015625 229.015625 132.972656 227.003906 C 137.277344 234.421875 142.117188 241.378906 147.402344 247.769531 Z M 157.972656 243.574219 C 154.535156 244.601562 151.328125 245.832031 148.441406 247.25 C 143.140625 240.855469 138.304688 233.917969 134 226.5 C 138.246094 224.417969 143.027344 222.609375 148.195312 221.105469 C 151.257812 229.261719 154.578125 236.882812 157.972656 243.574219 Z M 170.609375 240.855469 C 166.59375 241.421875 162.765625 242.230469 159.171875 243.230469 C 155.804688 236.589844 152.484375 228.972656 149.410156 220.746094 C 154.417969 219.355469 159.792969 218.257812 165.453125 217.476562 C 167.054688 226.035156 168.804688 233.972656 170.609375 240.855469 Z M 184.167969 216.191406 L 184.167969 239.902344 C 179.867188 239.933594 175.679688 240.222656 171.648438 240.726562 C 169.816406 233.84375 168.039062 225.90625 166.421875 217.347656 C 172.097656 216.609375 178.046875 216.21875 184.167969 216.191406 Z M 184.167969 189.511719 L 184.167969 215.0625 C 178.003906 215.078125 171.980469 215.480469 166.21875 216.21875 C 164.714844 208.207031 163.375 199.664062 162.234375 190.945312 C 169.25 190.03125 176.601562 189.542969 184.167969 189.511719 Z M 184.167969 176.890625 L 184.167969 188.382812 C 176.585938 188.398438 169.195312 188.890625 162.089844 189.800781 C 161.597656 186.042969 161.148438 182.238281 160.746094 178.40625 C 168.242188 177.453125 176.082031 176.917969 184.167969 176.890625 Z M 184.167969 175.761719 C 176.097656 175.777344 168.195312 176.296875 160.628906 177.28125 C 160.195312 173 159.804688 168.707031 159.488281 164.46875 C 167.375 163.441406 175.648438 162.894531 184.167969 162.863281 Z M 185.296875 175.761719 L 185.296875 162.878906 C 193.699219 162.90625 201.992188 163.484375 209.992188 164.527344 C 209.6875 168.75 209.296875 173.015625 208.851562 177.28125 C 201.28125 176.296875 193.382812 175.777344 185.296875 175.761719 Z M 185.296875 188.382812 L 185.296875 176.890625 C 193.355469 176.917969 201.210938 177.425781 208.75 178.394531 C 208.34375 182.226562 207.898438 186.042969 207.40625 189.816406 C 200.300781 188.890625 192.890625 188.398438 185.296875 188.382812 Z M 185.296875 215.0625 L 185.296875 189.511719 C 192.835938 189.527344 200.199219 190.019531 207.261719 190.929688 C 206.121094 199.664062 204.761719 208.207031 203.277344 216.234375 C 197.5 215.480469 191.460938 215.078125 185.296875 215.0625 Z M 185.296875 216.191406 C 191.40625 216.21875 197.355469 216.59375 203.074219 217.332031 C 201.457031 225.90625 199.679688 233.84375 197.832031 240.742188 C 193.800781 240.222656 189.597656 239.933594 185.296875 239.902344 Z M 161.4375 267.605469 C 154.507812 263.832031 147.574219 258.945312 141.003906 253.191406 C 143.027344 251.558594 145.421875 250.039062 148.136719 248.664062 C 153.292969 254.796875 158.867188 260.390625 164.789062 265.394531 C 163.546875 266.058594 162.421875 266.796875 161.4375 267.605469 Z M 204.691406 265.394531 C 210.625 260.40625 216.199219 254.796875 221.34375 248.664062 C 224.027344 250.039062 226.410156 251.558594 228.449219 253.234375 C 221.875 258.960938 214.972656 263.847656 208.042969 267.621094 C 207.058594 266.8125 205.949219 266.074219 204.691406 265.394531 Z M 196.503906 290.367188 C 195.363281 290.105469 194.265625 289.511719 193.210938 288.617188 C 195.074219 288.3125 196.835938 287.90625 198.496094 287.429688 C 200.660156 288.296875 202.785156 288.832031 205.066406 289.035156 C 202.25 289.597656 199.375 290.03125 196.503906 290.367188 Z M 207.953125 280.460938 C 203.652344 284.785156 194.523438 287.574219 184.734375 287.574219 C 174.941406 287.574219 165.828125 284.785156 161.511719 280.460938 C 159.835938 278.785156 158.984375 276.992188 158.984375 275.15625 C 158.984375 268.285156 170.535156 262.707031 184.734375 262.707031 C 194.523438 262.707031 203.652344 265.511719 207.953125 269.832031 C 209.644531 271.511719 210.496094 273.304688 210.496094 275.15625 C 210.496094 276.992188 209.644531 278.785156 207.953125 280.460938 Z M 96.0625 233.0625 C 96.121094 229.59375 97 226.222656 98.601562 222.972656 C 98.878906 223.460938 99.152344 223.941406 99.457031 224.429688 C 103.511719 231.023438 108.265625 237.140625 113.609375 242.738281 C 112.324219 245.28125 111.585938 247.898438 111.398438 250.574219 C 105.867188 245.613281 100.625 239.816406 96.0625 233.0625 Z M 112.46875 251.527344 C 112.539062 248.796875 113.21875 246.148438 114.445312 243.605469 C 120.324219 249.589844 126.910156 254.984375 134.128906 259.683594 C 133.21875 261.503906 132.714844 263.371094 132.585938 265.277344 C 125.914062 261.75 119.007812 257.226562 112.46875 251.527344 Z M 138.878906 277.222656 C 137.726562 276.078125 136.785156 274.894531 136.019531 273.695312 C 143.71875 276.484375 151.429688 278.207031 158.304688 278.984375 C 158.695312 279.722656 159.1875 280.417969 159.792969 281.113281 C 153.554688 281.386719 146.765625 280.417969 140.195312 278.453125 C 139.746094 278.046875 139.285156 277.640625 138.878906 277.222656 Z M 155.488281 286.808594 C 154.390625 286.433594 153.308594 286.027344 152.269531 285.609375 C 155.894531 286.011719 159.632812 285.78125 165.238281 285.132812 C 166.480469 285.78125 167.820312 286.359375 169.28125 286.851562 C 166.203125 287.894531 163.128906 288.210938 159.375 287.863281 C 159.359375 287.863281 159.328125 287.863281 159.328125 287.863281 C 158.042969 287.546875 156.757812 287.183594 155.488281 286.808594 Z M 213.976562 286.808594 C 212.707031 287.183594 211.433594 287.53125 210.148438 287.863281 C 210.136719 287.863281 210.136719 287.863281 210.121094 287.863281 C 206.367188 288.210938 203.320312 287.894531 200.257812 286.867188 C 201.714844 286.359375 203.074219 285.78125 204.300781 285.144531 C 209.859375 285.78125 213.585938 286.011719 217.199219 285.609375 C 216.15625 286.027344 215.074219 286.433594 213.976562 286.808594 Z M 229.269531 278.453125 C 222.699219 280.417969 215.925781 281.386719 209.714844 281.113281 C 210.308594 280.417969 210.800781 279.722656 211.203125 278.984375 C 218.050781 278.207031 225.761719 276.5 233.457031 273.707031 C 232.679688 274.894531 231.738281 276.078125 230.597656 277.222656 C 230.179688 277.640625 229.71875 278.046875 229.269531 278.453125 Z M 236.882812 265.292969 C 236.765625 263.371094 236.246094 261.519531 235.335938 259.683594 C 242.570312 254.984375 249.15625 249.605469 255.035156 243.605469 C 256.289062 246.179688 256.941406 248.839844 257 251.542969 C 250.457031 257.226562 243.554688 261.765625 236.882812 265.292969 Z M 258.082031 250.589844 C 257.894531 247.914062 257.15625 245.296875 255.859375 242.75 C 261.230469 237.140625 265.980469 231.023438 270.039062 224.429688 C 270.328125 223.941406 270.601562 223.460938 270.890625 222.972656 C 272.507812 226.253906 273.359375 229.636719 273.402344 233.09375 C 268.839844 239.832031 263.613281 245.628906 258.082031 250.589844 Z M 274.457031 231.457031 C 274.183594 228.160156 273.214844 224.953125 271.585938 221.8125 C 273.347656 218.734375 274.964844 215.609375 276.378906 212.429688 C 278.15625 216 279.066406 219.644531 279.109375 223.390625 C 277.664062 226.210938 276.105469 228.898438 274.457031 231.457031 Z M 270.660156 186.300781 C 266.386719 182.671875 261.273438 179.375 255.511719 176.457031 C 257 168.675781 257.820312 160.984375 257.921875 153.59375 C 263.914062 156.644531 269.160156 160.117188 273.519531 163.917969 C 273.519531 170.789062 272.683594 177.859375 270.964844 185.085938 C 270.875 185.492188 270.761719 185.898438 270.660156 186.300781 Z M 220.433594 94.601562 C 223.507812 97.363281 226.121094 100.761719 228.304688 104.765625 C 222.035156 103.03125 215.335938 101.6875 208.34375 100.746094 C 207.320312 97.058594 206.035156 93.835938 204.445312 91.277344 C 210.035156 92.058594 215.390625 93.171875 220.433594 94.601562 Z M 149.003906 94.644531 C 154.042969 93.214844 159.429688 92.085938 165.035156 91.289062 C 163.445312 93.851562 162.175781 97.074219 161.148438 100.746094 C 154.160156 101.699219 147.460938 103.046875 141.191406 104.765625 C 143.34375 100.804688 145.941406 97.40625 149.003906 94.644531 Z M 98.515625 185.085938 C 96.8125 177.859375 95.976562 170.773438 95.960938 163.90625 C 100.277344 160.160156 105.519531 156.703125 111.558594 153.640625 C 111.671875 160.96875 112.480469 168.574219 113.953125 176.296875 C 108.179688 179.203125 103.066406 182.46875 98.777344 186.085938 C 98.691406 185.753906 98.601562 185.421875 98.515625 185.085938 Z M 85.777344 211.792969 C 85.777344 207.816406 86.746094 203.941406 88.582031 200.242188 C 89.664062 203.886719 90.992188 207.5 92.523438 211.054688 C 90.734375 214.367188 89.679688 217.78125 89.347656 221.25 C 88.046875 218.53125 86.863281 215.699219 85.808594 212.734375 C 85.792969 212.429688 85.777344 212.113281 85.777344 211.792969 Z M 91.121094 229.507812 C 90.820312 228.351562 90.617188 227.191406 90.5 226.023438 C 91.886719 228.582031 93.359375 231.039062 94.921875 233.367188 C 94.921875 233.382812 94.921875 233.394531 94.921875 233.410156 C 94.921875 235.074219 95.109375 236.722656 95.46875 238.355469 C 93.867188 235.476562 92.421875 232.527344 91.121094 229.507812 Z M 102.761719 249.5625 C 102.691406 249.488281 102.617188 249.429688 102.53125 249.402344 C 101 247.320312 99.570312 245.179688 98.214844 242.996094 C 97.027344 240.410156 96.320312 237.761719 96.121094 235.089844 C 100.683594 241.59375 105.867188 247.203125 111.324219 252.003906 C 111.339844 254.652344 111.917969 257.269531 113.03125 259.8125 C 109.246094 256.804688 105.75 253.40625 102.761719 249.5625 Z M 120.554688 268.300781 C 119.066406 266.882812 117.765625 265.421875 116.683594 263.917969 C 122.242188 267.695312 128.25 270.714844 134.332031 273.058594 C 135.167969 274.632812 136.296875 276.152344 137.726562 277.640625 C 133.074219 276.035156 128.613281 273.941406 124.582031 271.425781 C 123.226562 270.410156 121.882812 269.386719 120.554688 268.300781 Z M 248.925781 268.300781 C 247.566406 269.398438 246.183594 270.46875 244.78125 271.496094 C 240.765625 274.011719 236.304688 276.078125 231.683594 277.671875 C 233.097656 276.210938 234.238281 274.664062 235.105469 273.074219 C 241.183594 270.746094 247.191406 267.722656 252.753906 263.949219 C 251.683594 265.4375 250.398438 266.898438 248.925781 268.300781 Z M 266.933594 249.402344 C 266.863281 249.429688 266.789062 249.488281 266.730469 249.5625 C 263.726562 253.421875 260.21875 256.820312 256.433594 259.84375 C 257.546875 257.28125 258.125 254.664062 258.140625 252.019531 C 263.597656 247.21875 268.78125 241.609375 273.347656 235.132812 C 273.144531 237.804688 272.421875 240.4375 271.253906 243.027344 C 269.894531 245.195312 268.464844 247.320312 266.933594 249.402344 Z M 273.996094 238.355469 C 274.355469 236.734375 274.546875 235.074219 274.546875 233.410156 C 276.105469 231.066406 277.578125 228.640625 278.964844 226.066406 C 278.847656 227.222656 278.644531 228.363281 278.359375 229.519531 C 277.042969 232.527344 275.597656 235.492188 273.996094 238.355469 Z M 277.835938 147.234375 C 275.945312 144.773438 273.664062 142.417969 271.078125 140.164062 C 270.183594 137.371094 269.128906 134.625 267.917969 131.949219 C 269.78125 133.742188 271.441406 135.59375 272.855469 137.53125 C 274.703125 140.667969 276.351562 143.921875 277.835938 147.234375 Z M 246.585938 111.433594 C 241.472656 109.015625 235.839844 106.921875 229.804688 105.1875 C 227.839844 101.367188 225.5 98.070312 222.773438 95.265625 C 226.785156 96.511719 230.585938 97.96875 234.109375 99.605469 C 235.480469 100.371094 236.839844 101.152344 238.179688 101.992188 C 241.359375 104.59375 244.175781 107.757812 246.585938 111.433594 Z M 200.171875 88.023438 C 200.820312 88.542969 201.425781 89.136719 202.019531 89.828125 C 196.605469 89.179688 191.015625 88.832031 185.296875 88.804688 L 185.296875 86.878906 C 190.320312 86.894531 195.289062 87.285156 200.171875 88.023438 Z M 184.167969 86.867188 L 184.167969 88.804688 C 178.480469 88.832031 172.875 89.195312 167.460938 89.84375 C 168.039062 89.152344 168.660156 88.542969 169.308594 88.023438 C 174.160156 87.285156 179.128906 86.894531 184.167969 86.867188 Z M 96.695312 137.472656 C 98.097656 135.578125 99.714844 133.742188 101.550781 131.992188 C 100.320312 134.695312 99.265625 137.472656 98.371094 140.308594 C 95.742188 142.578125 93.476562 144.976562 91.585938 147.4375 C 93.117188 144.007812 94.820312 140.683594 96.695312 137.472656 Z M 82.789062 187.023438 C 82.976562 184.175781 83.640625 181.386719 84.769531 178.667969 C 85.144531 185.363281 86.285156 192.042969 88.117188 198.621094 C 86.242188 202.078125 85.128906 205.632812 84.78125 209.292969 C 83.453125 202.671875 82.761719 195.859375 82.761719 188.960938 C 82.761719 188.3125 82.773438 187.660156 82.789062 187.023438 Z M 81.027344 188.71875 C 81.027344 188.789062 81.042969 188.847656 81.070312 188.917969 C 81.070312 188.933594 81.054688 188.949219 81.054688 188.960938 C 81.054688 216.679688 91.84375 242.75 111.425781 262.359375 C 131.011719 281.964844 157.035156 292.75 184.734375 292.75 C 241.863281 292.75 288.351562 246.234375 288.410156 189.050781 C 288.453125 188.949219 288.480469 188.832031 288.480469 188.71875 C 288.480469 187.804688 288.421875 186.910156 288.335938 186.011719 C 287.601562 159.394531 276.929688 134.464844 258.039062 115.566406 C 238.457031 95.960938 212.433594 85.160156 184.734375 85.160156 C 157.046875 85.160156 131.011719 95.960938 111.425781 115.566406 C 92.421875 134.597656 81.734375 159.699219 81.128906 186.519531 C 81.054688 187.257812 81.027344 187.980469 81.027344 188.71875 " fill-opacity="1" fill-rule="nonzero"/><g clip-path="url(#c31ac18b6a)"><path fill="#ffffff" d="M 294.488281 209.175781 C 292.914062 209.308594 291.902344 210.363281 292.222656 211.519531 C 292.539062 212.691406 294.070312 213.527344 295.644531 213.398438 C 306.648438 212.472656 315.488281 210.8125 321.566406 208.441406 C 328.023438 205.921875 331.558594 202.570312 331.558594 198.390625 C 331.558594 189.714844 315.039062 179.652344 288.351562 170.410156 C 262.585938 161.488281 227.046875 153.046875 187.835938 147.21875 C 168.023438 144.285156 149.191406 142.289062 132.078125 141.1875 C 107.296875 139.597656 86.066406 139.917969 70.746094 142 C 54.484375 144.210938 44.5625 148.5625 43.539062 154.953125 C 43.480469 155.332031 43.449219 155.707031 43.449219 156.066406 C 43.449219 159.667969 46.136719 163.429688 51.105469 167.230469 C 55.886719 170.859375 62.847656 174.605469 71.597656 178.304688 C 73.042969 178.914062 74.789062 178.609375 75.496094 177.597656 C 76.203125 176.601562 75.613281 175.300781 74.167969 174.675781 C 65.949219 171.207031 59.464844 167.738281 55.148438 164.441406 C 51.335938 161.535156 49.269531 158.828125 49.269531 156.445312 C 49.269531 156.210938 49.300781 155.996094 49.328125 155.808594 C 50.050781 151.3125 58.414062 148.058594 72.261719 146.179688 C 87.050781 144.152344 107.757812 143.878906 132.078125 145.425781 C 149.003906 146.511719 167.632812 148.492188 187.171875 151.398438 C 225.90625 157.136719 260.941406 165.453125 286.257812 174.214844 C 310.632812 182.660156 325.726562 191.261719 325.726562 198.015625 C 325.726562 200.601562 323.167969 202.828125 318.492188 204.652344 C 312.988281 206.792969 304.800781 208.308594 294.488281 209.175781 " fill-opacity="1" fill-rule="nonzero"/></g><g clip-path="url(#419d41b5b4)"><path fill="#ffffff" d="M 291.789062 82.789062 L 291.933594 82.789062 C 292.914062 95.730469 303.226562 106.066406 316.152344 107.035156 L 316.152344 107.195312 C 303.226562 108.164062 292.914062 118.503906 291.933594 131.445312 L 291.789062 131.445312 C 290.804688 118.503906 280.496094 108.164062 267.570312 107.195312 L 267.570312 107.035156 C 280.496094 106.066406 290.804688 95.730469 291.789062 82.789062 " fill-opacity="1" fill-rule="evenodd"/></g><path fill="#ffffff" d="M 316.542969 127.4375 L 316.613281 127.4375 C 317.019531 132.949219 321.40625 137.34375 326.894531 137.75 L 326.894531 137.820312 C 321.40625 138.226562 317.019531 142.621094 316.613281 148.117188 L 316.542969 148.117188 C 316.136719 142.621094 311.746094 138.226562 306.246094 137.820312 L 306.246094 137.75 C 311.746094 137.34375 316.136719 132.949219 316.542969 127.4375 " fill-opacity="1" fill-rule="evenodd"/><path stroke-linecap="butt" transform="matrix(0.744551, -0.090242, 0.090242, 0.744551, 73.428787, 153.896767)" fill="none" stroke-linejoin="miter" d="M 2.799741 54.999097 L 37.179574 55.00036 C 42.442035 54.99812 46.299812 51.132127 46.297572 45.869667 L 46.298458 39.715688 C 46.300309 36.410649 43.890056 34.0042 40.600529 34.004229 L 40.091471 34.005487 C 39.299446 34.003927 38.686659 33.389271 38.686965 32.607587 C 38.683355 31.814935 39.298011 31.202149 40.090036 31.203708 L 40.599094 31.202451 C 43.893792 31.203048 46.299615 28.797966 46.296922 25.48713 L 46.297181 19.338322 C 46.300112 14.076488 42.441169 10.203826 37.178709 10.206066 L 2.804046 10.205429 C 2.012021 10.203869 1.391568 10.8212 1.395178 11.613851 L 1.394609 53.606368 C 1.394929 54.382881 2.007716 54.997537 2.799741 54.999097 Z M 19.604045 26.170967 C 18.806849 26.16878 18.194063 25.554124 18.195622 24.762099 C 18.195302 23.985586 18.810585 23.367629 19.60261 23.369189 L 27.996977 23.368801 C 28.77349 23.368481 29.391447 23.983764 29.391141 24.765448 C 29.389581 25.557472 28.774925 26.170259 27.993241 26.169953 Z M 19.604496 41.836921 C 18.807301 41.834735 18.194514 41.220078 18.194194 40.443565 C 18.1945 39.661881 18.809157 39.049095 19.601808 39.045484 L 27.995548 39.050267 C 28.772062 39.049947 29.390019 39.665229 29.390339 40.441743 C 29.390033 41.223427 28.775377 41.836213 27.993693 41.835907 Z M 19.604496 41.836921 " stroke="#231f20" stroke-width="11.269819" stroke-opacity="1" stroke-miterlimit="4"/><path stroke-linecap="butt" transform="matrix(0.747606, -0.0598779, 0.0598779, 0.747606, 109.975821, 149.57495)" fill="none" stroke-linejoin="miter" d="M 2.800986 55.002389 L 33.597596 54.997546 C 34.381342 54.997618 34.994856 54.38318 34.994512 53.604625 L 34.994611 41.273604 C 34.994268 40.49505 34.379829 39.881537 33.601275 39.88188 L 19.655621 39.883086 C 18.861491 39.882182 18.195136 39.26451 18.194792 38.485956 L 18.195397 11.666017 C 18.195885 10.877079 17.580829 10.206041 16.797083 10.205968 L 2.85662 10.20759 C 2.078482 10.202742 1.396644 10.822158 1.396156 11.611096 L 1.39249 53.604226 C 1.392834 54.38278 2.006857 55.001485 2.800986 55.002389 Z M 2.800986 55.002389 " stroke="#231f20" stroke-width="11.269819" stroke-opacity="1" stroke-miterlimit="4"/><path stroke-linecap="butt" transform="matrix(0.749295, -0.0325006, 0.0325006, 0.749295, 138.102711, 147.320102)" fill="none" stroke-linejoin="miter" d="M 12.819928 54.99811 L 26.36895 55.001914 C 32.98453 55.002136 37.796515 50.190514 37.796737 43.574934 L 37.794472 21.632348 C 37.794694 15.016768 32.983072 10.204782 26.367492 10.204561 L 12.823448 10.206185 C 6.218275 10.206415 1.395882 15.017585 1.39566 21.633165 L 1.392948 43.570322 C 1.392726 50.185902 6.219958 54.998565 12.819928 54.99811 Z M 19.602951 42.123702 C 18.810448 42.12582 18.195928 41.51007 18.193359 40.727974 L 18.193945 24.488786 C 18.191827 23.696283 18.807577 23.081764 19.60008 23.079646 C 20.38195 23.08228 20.996469 23.69803 20.998587 24.490533 L 20.998001 40.72972 C 20.995593 41.506387 20.379843 42.120907 19.602951 42.123702 Z M 19.602951 42.123702 " stroke="#231f20" stroke-width="11.269819" stroke-opacity="1" stroke-miterlimit="4"/><path stroke-linecap="butt" transform="matrix(0.749989, -0.0040435, 0.0040435, 0.749989, 168.426337, 146.022442)" fill="none" stroke-linejoin="miter" d="M 12.822724 54.998347 L 36.385558 55.000382 C 37.125158 54.999162 37.795438 54.33089 37.794441 53.549624 L 37.851086 29.518328 C 37.850062 28.742269 37.18151 28.124072 36.389827 28.125012 L 22.446899 28.127966 C 21.722951 28.124063 21.052643 28.797543 21.04846 29.573573 L 20.995207 38.484875 C 20.996203 39.266141 20.326204 39.88233 19.602228 39.883635 C 18.810573 39.879367 18.194076 39.266659 18.193079 38.485392 L 18.193957 26.730017 C 18.193017 25.938334 18.810933 25.321864 19.602588 25.326132 L 36.389309 25.322885 C 37.180992 25.321945 37.793981 24.653365 37.798193 23.872127 L 37.796586 11.611522 C 37.795646 10.819839 37.179148 10.207131 36.387493 10.202863 L 12.819423 10.206008 C 6.220363 10.206888 1.392263 15.01947 1.393059 21.634155 L 1.394577 43.571984 C 1.395373 50.186668 6.218456 54.9992 12.822724 54.998347 Z M 12.822724 54.998347 " stroke="#231f20" stroke-width="11.269819" stroke-opacity="1" stroke-miterlimit="4"/><path stroke-linecap="butt" transform="matrix(0.749497, 0.0274654, -0.0274654, 0.749497, 198.923941, 145.814537)" fill="none" stroke-linejoin="miter" d="M 2.79969 54.999357 L 44.796554 54.997865 C 45.57322 55.000675 46.186467 54.384054 46.189277 53.607389 L 46.189563 43.517277 C 46.187168 42.740802 45.575561 42.12216 44.793882 42.124745 L 19.599927 42.125488 C 18.807647 42.12325 18.19623 41.509812 18.193645 40.728133 C 18.195882 39.935853 18.80793 39.428724 19.601409 39.321469 L 43.78106 36.246434 C 45.176966 36.080621 46.188671 34.959486 46.189222 33.552272 L 46.187976 11.615729 C 46.190023 10.818244 45.573402 10.204997 44.796927 10.207392 L 2.799871 10.203679 C 2.007782 10.206646 1.394344 10.818062 1.392297 11.615547 L 1.396644 21.689854 C 1.393834 22.466519 2.010455 23.079766 2.802735 23.082004 L 27.99669 23.081261 C 28.773355 23.084071 29.389976 23.697318 29.387739 24.489598 C 29.390324 25.271278 28.772881 25.773392 27.995207 25.88528 L 3.815556 28.960315 C 2.404417 29.13711 1.392712 30.258245 1.39178 31.655049 L 1.393598 53.607207 C 1.395993 54.383682 2.0076 55.002324 2.79969 54.999357 Z M 2.79969 54.999357 " stroke="#231f20" stroke-width="11.269819" stroke-opacity="1" stroke-miterlimit="4"/><path stroke-linecap="butt" transform="matrix(0.747683, 0.0589056, -0.0589056, 0.747683, 235.647133, 147.248414)" fill="none" stroke-linejoin="miter" d="M 12.819303 54.998511 L 26.366652 55.002211 C 32.985724 54.997955 37.794735 50.188728 37.79608 43.57444 L 37.796071 11.611115 C 37.796609 10.822178 37.178703 10.207351 36.389765 10.206813 L 22.44535 10.203049 C 21.667206 10.206885 20.994447 10.818907 20.994318 11.613037 L 20.995699 38.487616 C 20.994343 39.26617 20.379516 39.884076 19.600963 39.88272 C 18.806833 39.882591 18.194119 39.267355 18.195475 38.488802 L 18.194094 11.614222 C 18.194223 10.820092 17.576316 10.205265 16.797763 10.203909 L 2.85895 10.204929 C 2.075204 10.203982 1.392469 10.822013 1.391931 11.610951 L 1.391941 43.574275 C 1.395787 50.188155 6.221 55.001131 12.819303 54.998511 Z M 12.819303 54.998511 " stroke="#231f20" stroke-width="11.269819" stroke-opacity="1" stroke-miterlimit="4"/><path stroke-linecap="butt" transform="matrix(0.744549, 0.0902621, -0.0902621, 0.744549, 266.012886, 149.59619)" fill="none" stroke-linejoin="miter" d="M 2.857252 55.000567 L 44.849769 54.998859 C 45.626283 54.999158 46.244223 54.383859 46.244523 53.607345 L 46.244015 42.957078 C 46.244314 42.180565 45.571512 41.564349 44.794999 41.56405 L 19.601556 41.564823 C 18.808905 41.561234 18.194232 40.948464 18.193904 40.16678 C 18.192323 39.374755 18.810264 38.759456 19.602915 38.763045 L 42.608301 38.759961 C 43.384814 38.76026 44.002755 38.144961 44.003054 37.368447 L 44.002253 27.84096 C 44.001925 27.059276 43.334294 26.442433 42.552611 26.442761 L 19.599557 26.444747 C 18.807532 26.446328 18.192232 25.828388 18.192531 25.051874 C 18.196121 24.259223 18.808891 23.64455 19.600916 23.642969 L 44.84669 23.641097 C 45.628373 23.64077 46.241144 23.026097 46.241443 22.249583 L 46.242815 11.614828 C 46.246404 10.822176 45.625934 10.204862 44.849421 10.204563 L 2.804572 10.207368 C 2.00675 10.204406 1.39398 10.819079 1.395561 11.611104 L 1.392098 53.604248 C 1.392425 54.385932 2.075568 55.000894 2.857252 55.000567 Z M 2.857252 55.000567 " stroke="#231f20" stroke-width="11.269819" stroke-opacity="1" stroke-miterlimit="4"/><g fill="#ffffff" fill-opacity="1"><g transform="translate(78.392094, 194.847076)"><g><path d="M 2.085938 -0.253906 L 27.679688 -3.355469 C 31.597656 -3.828125 34.125 -7.054688 33.652344 -10.972656 L 33.097656 -15.558594 C 32.796875 -18.019531 30.789062 -19.59375 28.328125 -19.296875 L 27.953125 -19.25 C 27.371094 -19.179688 26.855469 -19.582031 26.785156 -20.167969 C 26.714844 -20.75 27.117188 -21.265625 27.699219 -21.335938 L 28.074219 -21.378906 C 30.535156 -21.679688 32.109375 -23.6875 31.8125 -26.148438 L 31.257812 -30.734375 C 30.78125 -34.652344 27.558594 -37.179688 23.636719 -36.703125 L -1.957031 -33.601562 C -2.542969 -33.53125 -2.945312 -33.019531 -2.875 -32.433594 L 0.914062 -1.167969 C 0.988281 -0.585938 1.5 -0.183594 2.085938 -0.253906 Z M 11.988281 -23.238281 C 11.40625 -23.167969 10.890625 -23.570312 10.820312 -24.152344 C 10.75 -24.738281 11.152344 -25.25 11.734375 -25.320312 L 17.988281 -26.078125 C 18.574219 -26.152344 19.085938 -25.746094 19.15625 -25.164062 C 19.226562 -24.582031 18.824219 -24.066406 18.242188 -23.996094 Z M 13.402344 -11.566406 C 12.820312 -11.496094 12.304688 -11.898438 12.234375 -12.480469 C 12.164062 -13.066406 12.566406 -13.578125 13.152344 -13.648438 L 19.402344 -14.40625 C 19.988281 -14.476562 20.5 -14.074219 20.570312 -13.492188 C 20.644531 -12.90625 20.238281 -12.394531 19.65625 -12.324219 Z M 13.402344 -11.566406 "/></g></g></g><g fill="#ffffff" fill-opacity="1"><g transform="translate(113.269105, 190.693275)"><g><path d="M 2.09375 -0.167969 L 25.113281 -2.011719 C 25.699219 -2.058594 26.125 -2.554688 26.078125 -3.140625 L 25.339844 -12.351562 C 25.292969 -12.9375 24.796875 -13.359375 24.210938 -13.3125 L 13.789062 -12.480469 C 13.199219 -12.429688 12.660156 -12.851562 12.613281 -13.4375 L 11.007812 -33.488281 C 10.960938 -34.074219 10.460938 -34.539062 9.875 -34.492188 L -0.546875 -33.65625 C -1.132812 -33.609375 -1.597656 -33.109375 -1.550781 -32.523438 L 0.960938 -1.128906 C 1.007812 -0.542969 1.507812 -0.121094 2.09375 -0.167969 Z M 2.09375 -0.167969 "/></g></g></g><g fill="#ffffff" fill-opacity="1"><g transform="translate(139.890241, 188.531352)"><g><path d="M 9.605469 -0.417969 L 19.761719 -0.855469 C 24.710938 -1.070312 28.160156 -4.835938 27.945312 -9.785156 L 27.234375 -26.230469 C 27.019531 -31.183594 23.253906 -34.632812 18.304688 -34.417969 L 8.152344 -33.980469 C 3.199219 -33.765625 -0.25 -30 -0.0351562 -25.050781 L 0.675781 -8.605469 C 0.890625 -3.652344 4.65625 -0.203125 9.605469 -0.417969 Z M 14.265625 -10.285156 C 13.675781 -10.261719 13.195312 -10.703125 13.171875 -11.289062 L 12.644531 -23.457031 C 12.617188 -24.042969 13.058594 -24.523438 13.644531 -24.550781 C 14.234375 -24.574219 14.714844 -24.132812 14.742188 -23.546875 L 15.269531 -11.378906 C 15.292969 -10.792969 14.851562 -10.3125 14.265625 -10.285156 Z M 14.265625 -10.285156 "/></g></g></g><g fill="#ffffff" fill-opacity="1"><g transform="translate(168.648729, 187.271838)"><g><path d="M 9.617188 -0.0507812 L 27.292969 -0.148438 C 27.839844 -0.148438 28.34375 -0.65625 28.339844 -1.246094 L 28.285156 -19.257812 C 28.28125 -19.847656 27.773438 -20.304688 27.1875 -20.304688 L 16.730469 -20.246094 C 16.183594 -20.242188 15.683594 -19.738281 15.6875 -19.148438 L 15.679688 -12.472656 C 15.683594 -11.882812 15.183594 -11.421875 14.636719 -11.417969 C 14.046875 -11.414062 13.582031 -11.875 13.582031 -12.460938 L 13.53125 -21.28125 C 13.53125 -21.867188 13.988281 -22.332031 14.578125 -22.335938 L 27.175781 -22.402344 C 27.761719 -22.40625 28.222656 -22.914062 28.21875 -23.5 L 28.167969 -32.695312 C 28.164062 -33.285156 27.703125 -33.742188 27.113281 -33.742188 L 9.433594 -33.644531 C 4.480469 -33.617188 0.886719 -29.988281 0.914062 -25.03125 L 1.003906 -8.570312 C 1.03125 -3.617188 4.660156 -0.0234375 9.617188 -0.0507812 Z M 9.617188 -0.0507812 "/></g></g></g><g fill="#ffffff" fill-opacity="1"><g transform="translate(197.413342, 187.036868)"><g><path d="M 2.097656 0.078125 L 33.570312 1.230469 C 34.160156 1.25 34.636719 0.808594 34.660156 0.21875 L 34.9375 -7.335938 C 34.957031 -7.921875 34.511719 -8.398438 33.925781 -8.421875 L 15.042969 -9.113281 C 14.453125 -9.136719 14.007812 -9.613281 14.03125 -10.199219 C 14.050781 -10.789062 14.527344 -11.148438 15.117188 -11.210938 L 33.332031 -12.855469 C 34.386719 -12.941406 35.171875 -13.753906 35.210938 -14.804688 L 35.8125 -31.253906 C 35.832031 -31.839844 35.390625 -32.320312 34.800781 -32.339844 L 3.328125 -33.496094 C 2.742188 -33.515625 2.261719 -33.070312 2.242188 -32.484375 L 1.964844 -24.929688 C 1.941406 -24.34375 2.386719 -23.863281 2.976562 -23.84375 L 21.859375 -23.152344 C 22.445312 -23.128906 22.890625 -22.652344 22.871094 -22.0625 C 22.847656 -21.476562 22.371094 -21.113281 21.78125 -21.050781 L 3.570312 -19.410156 C 2.515625 -19.320312 1.730469 -18.511719 1.691406 -17.460938 L 1.085938 -1.011719 C 1.066406 -0.421875 1.511719 0.0546875 2.097656 0.078125 Z M 2.097656 0.078125 "/></g></g></g><g fill="#ffffff" fill-opacity="1"><g transform="translate(232.407324, 188.370984)"><g><path d="M 9.585938 0.753906 L 19.71875 1.554688 C 24.65625 1.941406 28.539062 -1.375 28.929688 -6.3125 L 30.8125 -30.21875 C 30.859375 -30.804688 30.433594 -31.300781 29.847656 -31.347656 L 19.425781 -32.167969 C 18.839844 -32.214844 18.300781 -31.792969 18.253906 -31.207031 L 16.671875 -11.113281 C 16.625 -10.527344 16.128906 -10.101562 15.542969 -10.148438 C 14.957031 -10.195312 14.53125 -10.691406 14.578125 -11.277344 L 16.160156 -31.371094 C 16.207031 -31.957031 15.785156 -32.453125 15.199219 -32.5 L 4.773438 -33.320312 C 4.1875 -33.367188 3.648438 -32.949219 3.601562 -32.359375 L 1.71875 -8.457031 C 1.332031 -3.519531 4.648438 0.367188 9.585938 0.753906 Z M 9.585938 0.753906 "/></g></g></g><g fill="#ffffff" fill-opacity="1"><g transform="translate(261.04847, 190.546364)"><g><path d="M 2.125 0.257812 L 33.390625 4.046875 C 33.976562 4.117188 34.488281 3.714844 34.558594 3.132812 L 35.519531 -4.789062 C 35.589844 -5.371094 35.144531 -5.890625 34.5625 -5.960938 L 15.804688 -8.234375 C 15.21875 -8.308594 14.816406 -8.820312 14.886719 -9.40625 C 14.957031 -9.988281 15.472656 -10.390625 16.054688 -10.320312 L 33.191406 -8.242188 C 33.773438 -8.171875 34.289062 -8.574219 34.359375 -9.160156 L 35.21875 -16.246094 C 35.289062 -16.828125 34.84375 -17.347656 34.257812 -17.417969 L 17.167969 -19.492188 C 16.585938 -19.5625 16.179688 -20.078125 16.253906 -20.660156 C 16.324219 -21.242188 16.835938 -21.648438 17.421875 -21.574219 L 36.222656 -19.296875 C 36.804688 -19.226562 37.320312 -19.628906 37.390625 -20.210938 L 38.351562 -28.132812 C 38.421875 -28.71875 38.019531 -29.230469 37.433594 -29.300781 L 6.128906 -33.097656 C 5.542969 -33.167969 5.03125 -32.765625 4.957031 -32.179688 L 1.167969 -0.914062 C 1.097656 -0.332031 1.542969 0.1875 2.125 0.257812 Z M 2.125 0.257812 "/></g></g></g><path stroke-linecap="butt" transform="matrix(1.062621, -0.184217, 0.184217, 1.062621, 58.789215, 221.941231)" fill="none" stroke-linejoin="miter" d="M 9.289148 12.998957 L 1.249707 12.998453 L 1.250534 1.797662 L 9.45909 1.798075 C 10.918591 1.797449 12.120423 1.862434 13.063966 1.996599 C 14.00394 2.130146 14.732639 2.337347 15.242305 2.620534 C 15.751971 2.903722 16.097375 3.265038 16.282085 3.705101 C 16.463845 4.140977 16.553336 4.663787 16.554129 5.274149 C 16.537318 5.752798 16.406118 6.149123 16.160528 6.463124 C 15.914318 6.780694 15.624001 7.013421 15.291907 7.169059 C 14.964 7.321748 14.671118 7.399635 14.421634 7.396821 C 14.667549 7.399017 14.953671 7.444943 15.282332 7.542357 C 15.610994 7.639771 15.928662 7.779391 16.238906 7.961837 C 16.54915 8.144284 16.804956 8.365081 17.013463 8.625467 C 17.218401 8.885235 17.32127 9.182448 17.318501 9.516489 C 17.319821 9.954169 17.26899 10.353398 17.168959 10.718366 C 17.065358 11.082716 16.861974 11.40771 16.560045 11.686212 C 16.253929 11.967664 15.804585 12.205906 15.212014 12.400937 C 14.615255 12.598919 13.839582 12.747503 12.877237 12.849022 C 11.919079 12.94759 10.722431 13.001137 9.289148 12.998957 Z M 9.022188 6.43871 C 9.70997 6.436635 10.244912 6.404387 10.620496 6.337161 C 11.000267 6.266985 11.260555 6.165067 11.405548 6.028456 C 11.551159 5.888277 11.625538 5.713693 11.625734 5.500516 C 11.623599 5.279583 11.551514 5.101663 11.40591 4.96614 C 11.260925 4.827047 10.998977 4.726495 10.620684 4.660913 C 10.242392 4.595332 9.711449 4.562104 9.023667 4.564179 L 5.95463 4.561479 L 5.953152 6.43601 Z M 9.022514 10.232453 C 9.728139 10.233472 10.297532 10.214549 10.733642 10.179872 C 11.170371 10.141626 11.493041 10.061551 11.695753 9.931271 C 11.898465 9.800991 12.001681 9.587293 12.000595 9.296696 C 11.999508 9.0061 11.896684 8.793443 11.695693 8.659346 C 11.490513 8.528198 11.170702 8.443347 10.735022 8.411929 C 10.296392 8.376325 9.726049 8.358322 9.023992 8.357923 L 5.954337 8.358791 L 5.952859 10.233322 Z M 9.022514 10.232453 " stroke="#231f20" stroke-width="1.9" stroke-opacity="1" stroke-miterlimit="4"/><path stroke-linecap="butt" transform="matrix(1.067298, -0.154836, 0.154836, 1.067298, 78.142235, 218.595938)" fill="none" stroke-linejoin="miter" d="M 10.936987 12.999979 L 6.234177 12.998477 L 6.235974 7.688159 L 0.11581 1.789823 L 5.327787 1.788333 L 8.585482 5.141314 L 11.835199 1.788119 L 17.046656 1.790213 L 10.939304 7.686076 Z M 10.936987 12.999979 " stroke="#231f20" stroke-width="1.9" stroke-opacity="1" stroke-miterlimit="4"/><path stroke-linecap="butt" transform="matrix(1.071711, -0.120556, 0.120556, 1.071711, 101.038313, 215.361315)" fill="none" stroke-linejoin="miter" d="M 8.217387 13.242224 C 9.354548 13.242571 10.361907 13.100747 11.246258 12.82116 C 12.127414 12.537569 13.091173 12.102896 14.131145 11.509131 L 13.415412 10.743383 C 11.820878 11.763178 10.127042 12.272456 8.337099 12.275219 C 6.533164 12.272764 5.028193 11.84833 3.822996 10.994719 C 2.617393 10.144707 2.016969 9.001929 2.014929 7.561975 C 2.016893 6.118826 2.625705 4.918896 3.844561 3.966187 C 5.063821 3.009879 6.597622 2.529983 8.452758 2.530908 C 10.009105 2.531026 11.265407 2.865524 12.221664 3.534403 C 13.177921 4.203282 13.655516 5.077102 13.658047 6.156269 C 13.654996 6.928639 13.438864 7.618721 12.998448 8.228901 C 12.561227 8.843085 12.064029 9.147998 11.506449 9.147239 C 11.054464 9.147424 10.829144 8.947124 10.826891 8.545935 C 10.828239 8.43674 10.860451 8.279989 10.920333 8.071678 L 12.243225 4.444401 L 10.118095 4.445909 L 9.881221 5.093565 C 9.524882 4.470301 8.860533 4.155007 7.890966 4.155288 C 6.837399 4.157054 5.920521 4.531393 5.132727 5.281096 C 4.344934 6.030798 3.954147 6.912636 3.952763 7.9294 C 3.953356 8.669375 4.196542 9.261686 4.689114 9.710741 C 5.178086 10.159392 5.820163 10.381058 6.618133 10.383344 C 7.722495 10.383647 8.577464 9.944026 9.186235 9.068484 C 9.353478 9.914683 9.940487 10.334267 10.946452 10.334437 C 11.740823 10.336318 12.464689 10.12251 13.117647 9.696613 C 13.76741 9.266712 14.255697 8.749394 14.57972 8.137056 C 14.900143 7.524313 15.060981 6.904553 15.061829 6.281375 C 15.062763 5.30101 14.750333 4.449414 14.125348 3.719388 C 13.500362 2.989362 12.690329 2.446278 11.698442 2.09414 C 10.70696 1.738402 9.618838 1.561328 8.430476 1.56251 C 6.23255 1.563119 4.382235 2.134981 2.879125 3.281696 C 1.376015 4.428412 0.623322 5.838139 0.62424 7.514884 C 0.625923 9.217228 1.36002 10.59738 2.82653 11.65534 C 4.29664 12.713705 6.092258 13.243731 8.217387 13.242224 Z M 7.32939 9.147554 C 6.739012 9.146751 6.445888 8.803963 6.446421 8.118787 C 6.443896 7.622801 6.636273 7.046682 7.023958 6.386832 C 7.408044 5.726577 7.878877 5.396829 8.429258 5.396778 C 8.680446 5.39952 8.881154 5.462191 9.034981 5.585196 C 9.188403 5.711801 9.265386 5.8699 9.265523 6.063094 C 9.265347 6.485879 9.02519 7.195128 8.548246 8.194845 C 8.225393 8.829184 7.817774 9.147819 7.32939 9.147554 Z M 7.32939 9.147554 " stroke="#231f20" stroke-width="1.9" stroke-opacity="1" stroke-miterlimit="4"/><path stroke-linecap="butt" transform="matrix(1.074293, -0.0948266, 0.0948266, 1.074293, 118.098974, 213.450761)" fill="none" stroke-linejoin="miter" d="M 7.407624 13.240642 C 5.891304 13.241334 4.669362 13.078933 3.741796 12.753439 C 2.81423 12.427944 2.108348 11.980209 1.624151 11.410233 C 1.139953 10.840258 0.816209 10.182634 0.649311 9.437044 L 5.641629 9.43774 C 6.00931 9.968342 6.600272 10.235036 7.407618 10.233578 C 8.214645 10.235727 8.80191 9.967586 9.172386 9.43669 C 9.202419 9.3848 9.217383 9.338851 9.217596 9.295237 C 9.218874 9.157177 9.032004 9.04978 8.659957 8.980578 C 8.28791 8.911377 7.732915 8.855116 6.990727 8.818693 C 6.05965 8.780141 5.079548 8.679085 4.053392 8.523057 C 1.768473 8.168653 0.624233 7.249528 0.624283 5.765999 C 0.624287 5.642372 0.632462 5.508557 0.648491 5.368164 C 0.816076 4.623009 1.139651 3.964346 1.626115 3.396419 C 2.109289 2.824565 2.814139 2.377726 3.740984 2.052293 C 4.667829 1.72686 5.88957 1.561993 7.40589 1.561301 C 8.92189 1.564216 10.143833 1.726617 11.071399 2.052112 C 11.998965 2.377607 12.701239 2.825023 13.189044 3.395317 C 13.673242 3.965293 13.996986 4.622916 14.163884 5.368507 L 9.171566 5.36781 C 8.800277 4.83689 8.212923 4.570514 7.405577 4.571973 C 6.59855 4.569824 6.011603 4.834356 5.640809 5.36886 C 5.61534 5.410245 5.601013 5.448978 5.601436 5.485376 C 5.601432 5.609004 5.778752 5.701014 6.137004 5.761725 C 6.491648 5.822118 7.018097 5.872223 7.716034 5.915649 C 8.41068 5.955148 9.150002 6.024043 9.938243 6.115436 C 10.722558 6.21012 11.460815 6.37346 12.145798 6.60482 C 12.830782 6.83618 13.363907 7.181399 13.749418 7.63358 C 14.053329 7.980384 14.203365 8.422688 14.203135 8.960813 C 14.204191 9.113622 14.190178 9.272374 14.164704 9.437387 C 13.997119 10.182542 13.673544 10.841205 13.18708 11.409132 C 12.703906 11.980985 11.999056 12.427825 11.068603 12.752939 C 10.141758 13.078372 8.920017 13.243239 7.407624 13.240642 Z M 7.407624 13.240642 " stroke="#231f20" stroke-width="1.9" stroke-opacity="1" stroke-miterlimit="4"/><path stroke-linecap="butt" transform="matrix(1.076326, -0.0679725, 0.0679725, 1.076326, 134.286178, 212.010821)" fill="none" stroke-linejoin="miter" d="M 8.475422 13.242056 C 5.706352 13.241387 3.666294 12.673414 2.359319 11.531136 C 1.203634 10.521808 0.626587 9.142546 0.624332 7.396737 C 0.625235 5.658387 1.20204 4.283038 2.358131 3.274534 C 3.667719 2.134182 5.707162 1.562534 8.476232 1.563203 C 11.248917 1.564101 13.285361 2.131845 14.592335 3.274123 C 15.751634 4.28368 16.328911 5.659327 16.328007 7.397677 C 16.326647 9.143257 15.749614 10.522221 14.593523 11.530726 C 13.28755 12.671306 11.248107 13.242954 8.475422 13.242056 Z M 8.476699 10.233494 C 9.612705 10.232651 10.446168 9.907845 10.977087 9.259076 C 11.402416 8.730662 11.615649 8.11264 11.617243 7.39778 C 11.618609 6.686534 11.403695 6.066878 10.975659 5.54627 C 10.443553 4.892066 9.611418 4.563692 8.47564 4.560921 C 7.339634 4.561764 6.505943 4.890185 5.967337 5.545727 C 5.542465 6.066911 5.329232 6.684933 5.327638 7.399793 C 5.329887 8.111267 5.541186 8.730695 5.968766 9.258533 C 6.504715 9.909351 7.340693 10.234338 8.476699 10.233494 Z M 8.476699 10.233494 " stroke="#231f20" stroke-width="1.9" stroke-opacity="1" stroke-miterlimit="4"/><path stroke-linecap="butt" transform="matrix(1.077718, -0.0402755, 0.0402755, 1.077718, 152.800365, 210.853419)" fill="none" stroke-linejoin="miter" d="M 7.881816 13.243368 C 5.148925 13.242725 3.223784 12.674216 2.110013 11.537977 C 1.170589 10.585857 0.703725 9.209201 0.702181 7.407739 L 0.70164 1.796906 L 5.40638 1.795124 L 5.406921 7.405957 C 5.40666 8.188852 5.539439 8.806364 5.805258 9.258494 C 6.183216 9.91054 6.877927 10.233716 7.881881 10.234989 C 8.896829 10.233049 9.594036 9.907522 9.969881 9.258274 C 10.233862 8.789698 10.365712 8.171202 10.368917 7.40654 L 10.368376 1.795707 L 15.069361 1.79741 L 15.071222 7.469909 C 15.07077 9.227802 14.603127 10.587657 13.672318 11.538751 C 12.553365 12.674915 10.622082 13.240663 7.881816 13.243368 Z M 7.881816 13.243368 " stroke="#231f20" stroke-width="1.9" stroke-opacity="1" stroke-miterlimit="4"/><path stroke-linecap="butt" transform="matrix(1.078449, -0.00673948, 0.00673948, 1.078449, 170.121673, 210.143511)" fill="none" stroke-linejoin="miter" d="M 22.563582 13.000401 L 17.858478 12.999975 L 17.859695 5.84996 L 13.656849 12.999073 L 10.147037 12.998872 L 5.953846 5.851621 L 5.952629 13.001637 L 1.251148 13.001233 L 1.248762 1.790822 L 6.837669 1.789528 L 11.905653 9.79706 L 16.968691 1.787641 L 22.561196 1.789991 Z M 22.563582 13.000401 " stroke="#231f20" stroke-width="1.9" stroke-opacity="1" stroke-miterlimit="4"/><path stroke-linecap="butt" transform="matrix(1.078107, 0.0279811, -0.0279811, 1.078107, 196.136682, 210.043933)" fill="none" stroke-linejoin="miter" d="M 10.9391 13.001642 L 6.236095 13.000513 L 6.23592 7.688837 L 0.118944 1.789526 L 5.329144 1.788361 L 8.586533 5.142281 L 11.836533 1.789762 L 17.046733 1.788597 L 10.938831 7.686345 Z M 10.9391 13.001642 " stroke="#231f20" stroke-width="1.9" stroke-opacity="1" stroke-miterlimit="4"/><path stroke-linecap="butt" transform="matrix(1.07688, 0.0585547, -0.0585547, 1.07688, 214.936558, 210.522291)" fill="none" stroke-linejoin="miter" d="M 18.82654 13.000825 L 14.063674 12.998632 L 13.006215 11.162639 L 5.936451 11.162552 L 4.882903 13.00088 L 0.11642 12.998884 L 7.287979 1.795721 L 11.655447 1.797649 Z M 11.42266 8.39037 L 9.474982 4.992227 L 7.523318 8.392007 Z M 11.42266 8.39037 " stroke="#231f20" stroke-width="1.9" stroke-opacity="1" stroke-miterlimit="4"/><path stroke-linecap="butt" transform="matrix(1.074659, 0.0905854, -0.0905854, 1.074659, 235.647205, 211.652931)" fill="none" stroke-linejoin="miter" d="M 18.827783 12.999161 L 14.06262 13.000991 L 13.006289 11.163549 L 5.936447 11.163363 L 4.884517 13.000406 L 0.11544 12.998932 L 7.288017 1.798686 L 11.657036 1.797533 Z M 11.420272 8.38934 L 9.476319 4.991025 L 7.523799 8.390644 Z M 11.420272 8.38934 " stroke="#231f20" stroke-width="1.9" stroke-opacity="1" stroke-miterlimit="4"/><path stroke-linecap="butt" transform="matrix(1.071469, 0.122694, -0.122694, 1.071469, 256.316678, 213.398218)" fill="none" stroke-linejoin="miter" d="M 17.882872 12.998232 L 12.290644 13.0006 L 5.953368 5.414091 L 5.95443 13.000666 L 1.251364 12.99965 L 1.25094 1.789179 L 6.84358 1.79041 L 13.179922 9.336923 L 13.179795 1.790345 L 17.882448 1.787762 Z M 17.882872 12.998232 " stroke="#231f20" stroke-width="1.9" stroke-opacity="1" stroke-miterlimit="4"/><path stroke-linecap="butt" transform="matrix(1.067559, 0.153021, -0.153021, 1.067559, 277.10697, 215.800371)" fill="none" stroke-linejoin="miter" d="M 8.475691 13.242395 C 5.705539 13.240626 3.666588 12.673008 2.357811 11.53237 C 1.202763 10.519719 0.624829 9.142599 0.623495 7.397424 C 0.626775 5.658907 1.201877 4.28483 2.359558 3.273651 C 3.666749 2.13127 5.707213 1.560708 8.477366 1.562478 C 11.247518 1.564247 13.286469 2.131865 14.595247 3.272502 C 15.750294 4.285154 16.327714 5.658689 16.32802 7.396692 C 16.329354 9.141866 15.75118 10.520043 14.593499 11.531222 C 13.286308 12.673603 11.249429 13.243651 8.475691 13.242395 Z M 8.476325 10.234568 C 9.610406 10.23301 10.445704 9.908374 10.978119 9.257588 C 11.404049 8.731838 11.618894 8.111936 11.615485 7.39891 C 11.615662 6.685371 11.402795 6.068231 10.976885 5.547492 C 10.443855 4.892085 9.613371 4.561062 8.475704 4.563134 C 7.341109 4.561107 6.506325 4.889328 5.967767 5.548312 C 5.54081 6.066892 5.32955 6.68628 5.329373 7.39982 C 5.329197 8.113359 5.542063 8.730499 5.969001 9.258409 C 6.505103 9.909716 7.34173 10.232541 8.476325 10.234568 Z M 8.476325 10.234568 " stroke="#231f20" stroke-width="1.9" stroke-opacity="1" stroke-miterlimit="4"/><path stroke-linecap="butt" transform="matrix(1.062792, 0.183226, -0.183226, 1.062792, 295.499164, 218.423321)" fill="none" stroke-linejoin="miter" d="M 17.881031 12.999757 L 12.290792 13.000545 L 5.955025 5.415073 L 5.954433 13.001324 L 1.249643 13.000155 L 1.250282 1.789892 L 6.84409 1.788488 L 13.180842 9.337036 L 13.180449 1.787709 L 17.88167 1.789494 Z M 17.881031 12.999757 " stroke="#231f20" stroke-width="1.9" stroke-opacity="1" stroke-miterlimit="4"/><g fill="#ffffff" fill-opacity="1"><g transform="translate(61.18404, 235.755299)"><g><path d="M 9.875 -1.703125 L 1.328125 -0.234375 L -0.734375 -12.140625 L 7.984375 -13.65625 C 9.535156 -13.914062 10.820312 -14.0625 11.84375 -14.09375 C 12.875 -14.132812 13.6875 -14.050781 14.28125 -13.84375 C 14.882812 -13.632812 15.316406 -13.3125 15.578125 -12.875 C 15.847656 -12.4375 16.039062 -11.894531 16.15625 -11.25 C 16.226562 -10.75 16.160156 -10.304688 15.953125 -9.921875 C 15.753906 -9.535156 15.492188 -9.226562 15.171875 -9 C 14.847656 -8.78125 14.550781 -8.648438 14.28125 -8.609375 C 14.539062 -8.648438 14.851562 -8.648438 15.21875 -8.609375 C 15.582031 -8.578125 15.945312 -8.488281 16.3125 -8.34375 C 16.6875 -8.207031 17.003906 -8.019531 17.265625 -7.78125 C 17.523438 -7.539062 17.6875 -7.238281 17.75 -6.875 C 17.832031 -6.414062 17.851562 -5.984375 17.8125 -5.578125 C 17.78125 -5.179688 17.628906 -4.800781 17.359375 -4.4375 C 17.085938 -4.082031 16.648438 -3.75 16.046875 -3.4375 C 15.441406 -3.125 14.640625 -2.820312 13.640625 -2.53125 C 12.640625 -2.25 11.382812 -1.972656 9.875 -1.703125 Z M 8.390625 -8.625 C 9.117188 -8.757812 9.675781 -8.894531 10.0625 -9.03125 C 10.445312 -9.175781 10.703125 -9.332031 10.828125 -9.5 C 10.953125 -9.675781 11 -9.878906 10.96875 -10.109375 C 10.925781 -10.335938 10.816406 -10.515625 10.640625 -10.640625 C 10.460938 -10.765625 10.164062 -10.820312 9.75 -10.8125 C 9.34375 -10.8125 8.773438 -10.742188 8.046875 -10.609375 L 4.78125 -10.046875 L 5.125 -8.0625 Z M 9.078125 -4.59375 C 9.816406 -4.726562 10.414062 -4.851562 10.875 -4.96875 C 11.332031 -5.082031 11.660156 -5.226562 11.859375 -5.40625 C 12.054688 -5.582031 12.125 -5.828125 12.0625 -6.140625 C 12.007812 -6.453125 11.863281 -6.65625 11.625 -6.75 C 11.382812 -6.851562 11.023438 -6.882812 10.546875 -6.84375 C 10.078125 -6.800781 9.472656 -6.710938 8.734375 -6.578125 L 5.46875 -6.015625 L 5.8125 -4.03125 Z M 9.078125 -4.59375 "/></g></g></g><g fill="#ffffff" fill-opacity="1"><g transform="translate(80.155107, 232.470808)"><g><path d="M 11.671875 -1.6875 L 6.65625 -0.96875 L 5.828125 -6.640625 L -1.609375 -11.984375 L 3.953125 -12.796875 L 7.9375 -9.703125 L 10.90625 -13.796875 L 16.453125 -14.609375 L 10.84375 -7.359375 Z M 11.671875 -1.6875 "/></g></g></g><g fill="#ffffff" fill-opacity="1"><g transform="translate(98.422047, 229.879354)"><g/></g></g><g fill="#ffffff" fill-opacity="1"><g transform="translate(102.605539, 229.29356)"><g><path d="M 8.828125 -0.71875 C 10.054688 -0.863281 11.125 -1.140625 12.03125 -1.546875 C 12.9375 -1.960938 13.910156 -2.546875 14.953125 -3.296875 L 14.109375 -4.03125 C 12.515625 -2.75 10.753906 -2 8.828125 -1.78125 C 6.910156 -1.5625 5.253906 -1.835938 3.859375 -2.609375 C 2.460938 -3.378906 1.675781 -4.535156 1.5 -6.078125 C 1.320312 -7.628906 1.828125 -8.984375 3.015625 -10.140625 C 4.210938 -11.304688 5.800781 -12 7.78125 -12.21875 C 9.445312 -12.40625 10.832031 -12.195312 11.9375 -11.59375 C 13.050781 -11 13.671875 -10.125 13.796875 -8.96875 C 13.890625 -8.144531 13.738281 -7.378906 13.34375 -6.671875 C 12.957031 -5.960938 12.460938 -5.578125 11.859375 -5.515625 C 11.367188 -5.453125 11.101562 -5.632812 11.0625 -6.0625 C 11.039062 -6.1875 11.054688 -6.363281 11.109375 -6.59375 L 12.09375 -10.625 L 9.8125 -10.375 L 9.640625 -9.671875 C 9.179688 -10.285156 8.429688 -10.535156 7.390625 -10.421875 C 6.265625 -10.296875 5.320312 -9.785156 4.5625 -8.890625 C 3.8125 -7.992188 3.5 -7.003906 3.625 -5.921875 C 3.707031 -5.117188 4.039062 -4.507812 4.625 -4.09375 C 5.207031 -3.675781 5.925781 -3.515625 6.78125 -3.609375 C 7.957031 -3.742188 8.820312 -4.3125 9.375 -5.3125 C 9.644531 -4.4375 10.316406 -4.054688 11.390625 -4.171875 C 12.253906 -4.273438 13.007812 -4.59375 13.65625 -5.125 C 14.300781 -5.65625 14.753906 -6.265625 15.015625 -6.953125 C 15.285156 -7.648438 15.382812 -8.335938 15.3125 -9.015625 C 15.195312 -10.054688 14.757812 -10.929688 14 -11.640625 C 13.25 -12.359375 12.320312 -12.84375 11.21875 -13.09375 C 10.125 -13.351562 8.9375 -13.410156 7.65625 -13.265625 C 5.300781 -13.003906 3.382812 -12.171875 1.90625 -10.765625 C 0.4375 -9.359375 -0.191406 -7.753906 0.015625 -5.953125 C 0.210938 -4.128906 1.160156 -2.738281 2.859375 -1.78125 C 4.566406 -0.820312 6.554688 -0.46875 8.828125 -0.71875 Z M 7.390625 -5.015625 C 6.753906 -4.941406 6.394531 -5.273438 6.3125 -6.015625 C 6.257812 -6.546875 6.398438 -7.1875 6.734375 -7.9375 C 7.066406 -8.695312 7.523438 -9.109375 8.109375 -9.171875 C 8.378906 -9.203125 8.601562 -9.15625 8.78125 -9.03125 C 8.957031 -8.914062 9.054688 -8.753906 9.078125 -8.546875 C 9.128906 -8.085938 8.960938 -7.300781 8.578125 -6.1875 C 8.304688 -5.457031 7.910156 -5.066406 7.390625 -5.015625 Z M 7.390625 -5.015625 "/></g></g></g><g fill="#ffffff" fill-opacity="1"><g transform="translate(119.331719, 227.416576)"><g><path d="M 7.96875 -0.4375 C 6.34375 -0.289062 5.015625 -0.347656 3.984375 -0.609375 C 2.960938 -0.878906 2.164062 -1.296875 1.59375 -1.859375 C 1.019531 -2.421875 0.609375 -3.097656 0.359375 -3.890625 L 5.703125 -4.359375 C 6.148438 -3.828125 6.8125 -3.597656 7.6875 -3.671875 C 8.5625 -3.742188 9.171875 -4.085938 9.515625 -4.703125 C 9.546875 -4.753906 9.554688 -4.804688 9.546875 -4.859375 C 9.535156 -5.003906 9.328125 -5.097656 8.921875 -5.140625 C 8.515625 -5.179688 7.910156 -5.179688 7.109375 -5.140625 C 6.109375 -5.109375 5.050781 -5.128906 3.9375 -5.203125 C 1.445312 -5.367188 0.128906 -6.242188 -0.015625 -7.828125 C -0.0234375 -7.960938 -0.0234375 -8.109375 -0.015625 -8.265625 C 0.0859375 -9.078125 0.367188 -9.8125 0.828125 -10.46875 C 1.296875 -11.125 2.015625 -11.671875 2.984375 -12.109375 C 3.953125 -12.546875 5.25 -12.835938 6.875 -12.984375 C 8.5 -13.128906 9.828125 -13.070312 10.859375 -12.8125 C 11.890625 -12.550781 12.6875 -12.132812 13.25 -11.5625 C 13.820312 -11 14.234375 -10.328125 14.484375 -9.546875 L 9.140625 -9.078125 C 8.691406 -9.609375 8.03125 -9.835938 7.15625 -9.765625 C 6.28125 -9.691406 5.671875 -9.347656 5.328125 -8.734375 C 5.316406 -8.679688 5.3125 -8.640625 5.3125 -8.609375 C 5.332031 -8.472656 5.53125 -8.382812 5.90625 -8.34375 C 6.289062 -8.3125 6.859375 -8.304688 7.609375 -8.328125 C 8.359375 -8.359375 9.160156 -8.359375 10.015625 -8.328125 C 10.867188 -8.296875 11.671875 -8.1875 12.421875 -8 C 13.179688 -7.820312 13.789062 -7.507812 14.25 -7.0625 C 14.613281 -6.71875 14.816406 -6.257812 14.859375 -5.6875 C 14.878906 -5.519531 14.878906 -5.347656 14.859375 -5.171875 C 14.753906 -4.347656 14.472656 -3.609375 14.015625 -2.953125 C 13.554688 -2.304688 12.835938 -1.757812 11.859375 -1.3125 C 10.890625 -0.875 9.59375 -0.582031 7.96875 -0.4375 Z M 7.96875 -0.4375 "/></g></g></g><g fill="#ffffff" fill-opacity="1"><g transform="translate(135.16982, 226.003064)"><g><path d="M 9.140625 -0.3125 C 6.148438 -0.125 3.921875 -0.597656 2.453125 -1.734375 C 1.128906 -2.753906 0.410156 -4.203125 0.296875 -6.078125 C 0.171875 -7.953125 0.703125 -9.46875 1.890625 -10.625 C 3.203125 -11.9375 5.351562 -12.6875 8.34375 -12.875 C 11.320312 -13.0625 13.554688 -12.585938 15.046875 -11.453125 C 16.359375 -10.453125 17.078125 -9.015625 17.203125 -7.140625 C 17.316406 -5.265625 16.785156 -3.738281 15.609375 -2.5625 C 14.273438 -1.25 12.117188 -0.5 9.140625 -0.3125 Z M 8.9375 -3.5625 C 10.15625 -3.632812 11.023438 -4.035156 11.546875 -4.765625 C 11.972656 -5.367188 12.164062 -6.054688 12.125 -6.828125 C 12.070312 -7.585938 11.796875 -8.234375 11.296875 -8.765625 C 10.679688 -9.429688 9.765625 -9.726562 8.546875 -9.65625 C 7.316406 -9.570312 6.441406 -9.160156 5.921875 -8.421875 C 5.492188 -7.828125 5.304688 -7.148438 5.359375 -6.390625 C 5.398438 -5.617188 5.671875 -4.960938 6.171875 -4.421875 C 6.785156 -3.765625 7.707031 -3.476562 8.9375 -3.5625 Z M 8.9375 -3.5625 "/></g></g></g><g fill="#ffffff" fill-opacity="1"><g transform="translate(153.323947, 224.863756)"><g><path d="M 8.515625 -0.046875 C 5.566406 0.0546875 3.46875 -0.476562 2.21875 -1.65625 C 1.175781 -2.644531 0.617188 -4.113281 0.546875 -6.0625 L 0.3125 -12.09375 L 5.375 -12.28125 L 5.609375 -6.25 C 5.640625 -5.40625 5.804688 -4.742188 6.109375 -4.265625 C 6.546875 -3.578125 7.304688 -3.253906 8.390625 -3.296875 C 9.484375 -3.335938 10.21875 -3.71875 10.59375 -4.4375 C 10.851562 -4.957031 10.96875 -5.628906 10.9375 -6.453125 L 10.703125 -12.484375 L 15.78125 -12.671875 L 16.015625 -6.578125 C 16.085938 -4.671875 15.632812 -3.1875 14.65625 -2.125 C 13.5 -0.851562 11.453125 -0.160156 8.515625 -0.046875 Z M 8.515625 -0.046875 "/></g></g></g><g fill="#ffffff" fill-opacity="1"><g transform="translate(170.209286, 224.163353)"><g><path d="M 24.328125 -0.15625 L 19.25 -0.125 L 19.203125 -7.828125 L 14.71875 -0.09375 L 10.9375 -0.0625 L 6.375 -7.75 L 6.421875 -0.046875 L 1.34375 -0.015625 L 1.265625 -12.109375 L 7.296875 -12.140625 L 12.828125 -3.53125 L 18.21875 -12.203125 L 24.25 -12.25 Z M 24.328125 -0.15625 "/></g></g></g><g fill="#ffffff" fill-opacity="1"><g transform="translate(195.772927, 224.059329)"><g><path d="M 11.796875 0.3125 L 6.71875 0.171875 L 6.875 -5.5625 L 0.4375 -12.09375 L 6.0625 -11.9375 L 9.46875 -8.234375 L 13.078125 -11.765625 L 18.6875 -11.609375 L 11.953125 -5.421875 Z M 11.796875 0.3125 "/></g></g></g><g fill="#ffffff" fill-opacity="1"><g transform="translate(214.175346, 224.521728)"><g><path d="M 20.265625 1.109375 L 15.140625 0.828125 L 14.125 -1.21875 L 6.5 -1.640625 L 5.265625 0.28125 L 0.125 0 L 8.5 -11.640625 L 13.203125 -11.375 Z M 12.5625 -4.296875 L 10.671875 -8.0625 L 8.359375 -4.53125 Z M 12.5625 -4.296875 "/></g></g></g><g fill="#ffffff" fill-opacity="1"><g transform="translate(234.469594, 225.623503)"><g><path d="M 20.21875 1.703125 L 15.109375 1.265625 L 14.15625 -0.8125 L 6.5625 -1.453125 L 5.25 0.4375 L 0.125 0.015625 L 8.84375 -11.375 L 13.53125 -10.96875 Z M 12.6875 -3.921875 L 10.90625 -7.75 L 8.5 -4.265625 Z M 12.6875 -3.921875 "/></g></g></g><g fill="#ffffff" fill-opacity="1"><g transform="translate(254.72166, 227.327309)"><g><path d="M 19.15625 2.1875 L 13.15625 1.5 L 7.296875 -7.390625 L 6.375 0.734375 L 1.328125 0.15625 L 2.703125 -11.859375 L 8.703125 -11.171875 L 14.5625 -2.3125 L 15.484375 -10.40625 L 20.53125 -9.828125 Z M 19.15625 2.1875 "/></g></g></g><g fill="#ffffff" fill-opacity="1"><g transform="translate(275.117694, 229.678643)"><g><path d="M 9.015625 1.5625 C 6.054688 1.132812 3.960938 0.210938 2.734375 -1.203125 C 1.660156 -2.460938 1.257812 -4.023438 1.53125 -5.890625 C 1.789062 -7.742188 2.613281 -9.117188 4 -10.015625 C 5.570312 -11.035156 7.835938 -11.332031 10.796875 -10.90625 C 13.753906 -10.476562 15.84375 -9.554688 17.0625 -8.140625 C 18.144531 -6.890625 18.554688 -5.335938 18.296875 -3.484375 C 18.023438 -1.617188 17.191406 -0.234375 15.796875 0.671875 C 14.234375 1.691406 11.972656 1.988281 9.015625 1.5625 Z M 9.46875 -1.65625 C 10.675781 -1.476562 11.613281 -1.695312 12.28125 -2.3125 C 12.820312 -2.8125 13.148438 -3.441406 13.265625 -4.203125 C 13.367188 -4.953125 13.226562 -5.644531 12.84375 -6.28125 C 12.382812 -7.050781 11.550781 -7.523438 10.34375 -7.703125 C 9.125 -7.878906 8.179688 -7.660156 7.515625 -7.046875 C 6.972656 -6.546875 6.648438 -5.921875 6.546875 -5.171875 C 6.429688 -4.410156 6.566406 -3.710938 6.953125 -3.078125 C 7.410156 -2.304688 8.25 -1.832031 9.46875 -1.65625 Z M 9.46875 -1.65625 "/></g></g></g><g fill="#ffffff" fill-opacity="1"><g transform="translate(293.11723, 232.239619)"><g><path d="M 19 3.28125 L 13.0625 2.25 L 7.71875 -6.953125 L 6.328125 1.09375 L 1.328125 0.234375 L 3.375 -11.6875 L 9.3125 -10.671875 L 14.671875 -1.484375 L 16.046875 -9.515625 L 21.046875 -8.640625 Z M 19 3.28125 "/></g></g></g></svg>